<svg width="41" height="41" viewBox="0 0 41 41" fill="none" xmlns="http://www.w3.org/2000/svg">
<path d="M36.3251 0.828125H5.21398C2.76953 0.828125 0.769531 2.82813 0.769531 5.27257V20.8281C0.769531 23.2726 2.76953 25.2726 5.21398 25.2726H36.3251C38.7695 25.2726 40.7695 23.2726 40.7695 20.8281V5.27257C40.7695 2.82813 38.7695 0.828125 36.3251 0.828125ZM36.3251 14.1615H29.3473C28.3029 14.1615 27.4806 14.8948 27.1918 15.8948C26.3918 18.6948 23.7695 20.8281 20.7695 20.8281C17.7695 20.8281 15.1473 18.6948 14.3473 15.8948C14.0584 14.8948 13.2362 14.1615 12.1918 14.1615H5.21398V7.49479C5.21398 6.27257 6.21398 5.27257 7.4362 5.27257H34.1029C35.3251 5.27257 36.3251 6.27257 36.3251 7.49479V14.1615ZM29.3695 29.717H38.5473C39.7695 29.717 40.7695 30.717 40.7695 31.9392V36.3837C40.7695 38.8281 38.7695 40.8281 36.3251 40.8281H5.21398C2.76953 40.8281 0.769531 38.8281 0.769531 36.3837V31.9392C0.769531 30.717 1.76953 29.717 2.99175 29.717H12.1695C13.214 29.717 14.0584 30.4726 14.3473 31.4948C14.7337 32.9017 15.5714 34.1428 16.7316 35.0274C17.8919 35.912 19.3105 36.3911 20.7695 36.3911C22.2285 36.3911 23.6472 35.912 24.8074 35.0274C25.9677 34.1428 26.8054 32.9017 27.1918 31.4948C27.4806 30.4726 28.3251 29.717 29.3695 29.717Z" fill="black"/>
</svg>
