<svg width="24" height="20" viewBox="0 0 24 20" fill="none" xmlns="http://www.w3.org/2000/svg">
<path d="M2.36935 0.828125L4.69769 5.4848H8.1902L5.86186 0.828125H8.1902L10.5185 5.4848H14.011L11.6827 0.828125H14.011L16.3394 5.4848H19.8319L17.5036 0.828125H20.9961C21.6364 0.828125 22.1847 1.0563 22.641 1.51266C23.0974 1.96901 23.3252 2.51695 23.3244 3.15646V17.1265C23.3244 17.7668 23.0966 18.3151 22.641 18.7715C22.1855 19.2278 21.6371 19.4556 20.9961 19.4548H2.36935C1.72906 19.4548 1.18113 19.227 0.725547 18.7715C0.269969 18.3159 0.0417917 17.7676 0.0410156 17.1265V3.15646C0.0410156 2.51617 0.269193 1.96823 0.725547 1.51266C1.1819 1.05708 1.72984 0.828901 2.36935 0.828125Z" fill="black"/>
</svg>
