<svg width="21" height="20" viewBox="0 0 21 20" fill="none" xmlns="http://www.w3.org/2000/svg">
<path fill-rule="evenodd" clip-rule="evenodd" d="M18.3322 0.200422C18.6323 0.150367 18.9397 0.166278 19.2331 0.24705C19.5265 0.327821 19.7987 0.471515 20.031 0.668143C20.2632 0.864771 20.4498 1.10961 20.5778 1.38565C20.7059 1.66169 20.7723 1.9623 20.7724 2.26659V14.651C20.7722 15.5736 20.4676 16.4703 19.9058 17.2021C19.3441 17.9339 18.5565 18.4598 17.6654 18.6985C16.7742 18.9371 15.8293 18.875 14.977 18.5218C14.1247 18.1687 13.4128 17.5442 12.9516 16.7452C12.4904 15.9462 12.3058 15.0173 12.4263 14.1027C12.5467 13.1881 12.9657 12.3387 13.618 11.6864C14.2704 11.0341 15.1198 10.6153 16.0344 10.4949C16.9491 10.3745 17.8779 10.5593 18.6769 11.0206V6.4576L8.19934 8.2042V15.6988C8.19934 15.7616 8.1941 15.8214 8.18362 15.8811C8.25885 16.6868 8.06546 17.4947 7.63361 18.1791C7.20175 18.8634 6.55567 19.3857 5.79603 19.6645C5.03639 19.9433 4.20585 19.9631 3.43381 19.7207C2.66177 19.4783 1.99159 18.9873 1.52769 18.3243C1.06378 17.6613 0.832206 16.8634 0.869036 16.0551C0.905866 15.2467 1.20904 14.4732 1.73131 13.8551C2.25358 13.237 2.96563 12.8091 3.75652 12.6379C4.5474 12.4666 5.3727 12.5618 6.10384 12.9086V4.01319C6.10377 3.51715 6.27969 3.03716 6.60028 2.65863C6.92087 2.2801 7.36534 2.02758 7.85463 1.94598L18.3322 0.200422ZM8.19934 6.08041L18.6769 4.3338V2.26659L8.19934 4.01319V6.08041Z" fill="black"/>
</svg>
