<svg width="24" height="20" viewBox="0 0 24 20" fill="none" xmlns="http://www.w3.org/2000/svg">
<path d="M2.36935 0.71875L4.69769 5.37543H8.1902L5.86186 0.71875H8.1902L10.5185 5.37543H14.011L11.6827 0.71875H14.011L16.3394 5.37543H19.8319L17.5036 0.71875H20.9961C21.6364 0.71875 22.1847 0.946927 22.641 1.40328C23.0974 1.85964 23.3252 2.40757 23.3244 3.04709V17.0171C23.3244 17.6574 23.0966 18.2057 22.641 18.6621C22.1855 19.1184 21.6371 19.3462 20.9961 19.3455H2.36935C1.72906 19.3455 1.18113 19.1177 0.725547 18.6621C0.269969 18.2065 0.0417917 17.6582 0.0410156 17.0171V3.04709C0.0410156 2.4068 0.269193 1.85886 0.725547 1.40328C1.1819 0.947703 1.72984 0.719526 2.36935 0.71875Z" fill="black"/>
</svg>
