<svg width="35" height="38" viewBox="0 0 35 38" fill="none" xmlns="http://www.w3.org/2000/svg">
<path d="M32.5 0C33.1123 6.73137e-05 33.7033 0.187409 34.1609 0.52649C34.6185 0.865572 34.9109 1.33281 34.9825 1.83958L35 2.08333V35.4167C34.9993 35.9477 34.7553 36.4584 34.3179 36.8445C33.8805 37.2306 33.2826 37.463 32.6465 37.4941C32.0104 37.5252 31.3841 37.3528 30.8954 37.012C30.4068 36.6711 30.0928 36.1877 30.0175 35.6604L30 35.4167V25H27.5C26.8877 24.9999 26.2967 24.8126 25.8391 24.4735C25.3815 24.1344 25.0891 23.6672 25.0175 23.1604L25 22.9167V10.4167C25 5.8125 28.75 0 32.5 0ZM17.5 0C18.1123 6.73137e-05 18.7033 0.187409 19.1609 0.52649C19.6185 0.865572 19.9109 1.33281 19.9825 1.83958L20 2.08333V12.5C19.9997 14.3476 19.2629 16.1429 17.9054 17.6037C16.5479 19.0645 14.6466 20.1082 12.5 20.5708V35.4167C12.4993 35.9477 12.2553 36.4584 11.8179 36.8445C11.3805 37.2306 10.7826 37.463 10.1465 37.4941C9.51041 37.5252 8.88405 37.3528 8.39542 37.012C7.90679 36.6711 7.59276 36.1877 7.5175 35.6604L7.5 35.4167V20.5708C5.43863 20.1267 3.60102 19.1462 2.25441 17.7719C0.907803 16.3976 0.122426 14.7011 0.0125003 12.9292L0 12.5V2.08333C0.000706769 1.55233 0.244697 1.0416 0.68212 0.655483C1.11954 0.269366 1.71738 0.0370104 2.35349 0.00589142C2.98959 -0.0252276 3.61595 0.147239 4.10458 0.488052C4.59321 0.828865 4.90724 1.3123 4.9825 1.83958L5 2.08333V12.5C5.00002 13.2314 5.23106 13.9499 5.6699 14.5833C6.10875 15.2167 6.73992 15.7426 7.5 16.1083V2.08333C7.50071 1.55233 7.7447 1.0416 8.18212 0.655483C8.61954 0.269366 9.21738 0.0370104 9.85349 0.00589142C10.4896 -0.0252276 11.1159 0.147239 11.6046 0.488052C12.0932 0.828865 12.4072 1.3123 12.4825 1.83958L12.5 2.08333L12.5025 16.1083C13.2002 15.7723 13.79 15.3007 14.2218 14.7337C14.6536 14.1668 14.9146 13.5212 14.9825 12.8521L15 12.5V2.08333C15 1.5308 15.2634 1.00089 15.7322 0.610194C16.2011 0.219493 16.837 0 17.5 0Z" fill="black"/>
</svg>
