<svg width="39" height="39" viewBox="0 0 39 39" fill="none" xmlns="http://www.w3.org/2000/svg">
<path d="M38.5859 19.3984C38.5859 15.6406 37.4716 11.9671 35.3839 8.84261C33.2961 5.71808 30.3287 3.2828 26.8569 1.84473C23.3851 0.40667 19.5649 0.030407 15.8792 0.763527C12.1936 1.49665 8.80811 3.30622 6.15092 5.96342C3.49372 8.62061 1.68415 12.0061 0.951027 15.6917C0.217907 19.3774 0.59417 23.1976 2.03223 26.6694C3.4703 30.1412 5.90558 33.1086 9.03011 35.1964C12.1546 37.2841 15.8281 38.3984 19.5859 38.3984C24.6251 38.3984 29.4578 36.3967 33.021 32.8335C36.5842 29.2703 38.5859 24.4376 38.5859 19.3984ZM30.4431 20.7556L13.9538 20.7556L21.5267 28.3651L19.5859 30.2556L8.7288 19.3984L19.5859 8.5413L21.5267 10.4779L13.9538 18.0413L30.4431 18.0413V20.7556Z" fill="#505050"/>
</svg>
