<svg width="39" height="39" viewBox="0 0 39 39" fill="none" xmlns="http://www.w3.org/2000/svg">
<path d="M0.585938 19.3984C0.585938 23.1563 1.70027 26.8297 3.78801 29.9543C5.87576 33.0788 8.84315 35.5141 12.3149 36.9521C15.7867 38.3902 19.607 38.7665 23.2926 38.0333C26.9783 37.3002 30.3638 35.4907 33.021 32.8335C35.6782 30.1763 37.4877 26.7908 38.2208 23.1051C38.954 19.4195 38.5777 15.5992 37.1396 12.1274C35.7016 8.65565 33.2663 5.68826 30.1418 3.60051C27.0172 1.51277 23.3438 0.398437 19.5859 0.398438C14.5468 0.398438 9.7141 2.40022 6.15091 5.96341C2.58772 9.5266 0.585938 14.3593 0.585938 19.3984ZM8.72879 18.0413H25.2181L17.6452 10.4318L19.5859 8.54129L30.4431 19.3984L19.5859 30.2556L17.6452 28.3189L25.2181 20.7556H8.72879V18.0413Z" fill="#505050"/>
</svg>
