<svg width="21" height="20" viewBox="0 0 21 20" fill="none" xmlns="http://www.w3.org/2000/svg">
<path fill-rule="evenodd" clip-rule="evenodd" d="M17.715 0.262922C18.0151 0.212867 18.3225 0.228778 18.6159 0.30955C18.9093 0.390321 19.1816 0.534015 19.4138 0.730643C19.646 0.927271 19.8326 1.17211 19.9607 1.44815C20.0887 1.72419 20.1551 2.0248 20.1552 2.32909V14.7135C20.155 15.6361 19.8504 16.5328 19.2886 17.2646C18.7269 17.9964 17.9394 18.5223 17.0482 18.761C16.1571 18.9996 15.2121 18.9375 14.3598 18.5843C13.5075 18.2312 12.7956 17.6067 12.3344 16.8077C11.8732 16.0087 11.6886 15.0798 11.8091 14.1652C11.9296 13.2506 12.3485 12.4012 13.0008 11.7489C13.6532 11.0966 14.5026 10.6778 15.4173 10.5574C16.3319 10.437 17.2607 10.6218 18.0597 11.0831V6.5201L7.58215 8.2667V15.7613C7.58215 15.8241 7.57691 15.8839 7.56644 15.9436C7.64166 16.7493 7.44828 17.5572 7.01642 18.2416C6.58456 18.9259 5.93848 19.4482 5.17884 19.727C4.4192 20.0058 3.58866 20.0256 2.81662 19.7832C2.04459 19.5408 1.37441 19.0498 0.910502 18.3868C0.446597 17.7238 0.215019 16.9259 0.251849 16.1176C0.288679 15.3092 0.591848 14.5357 1.11412 13.9176C1.6364 13.2995 2.34844 12.8716 3.13933 12.7004C3.93021 12.5291 4.75551 12.6243 5.48665 12.9711V4.07569C5.48659 3.57965 5.6625 3.09966 5.98309 2.72113C6.30368 2.3426 6.74815 2.09008 7.23744 2.00848L17.715 0.262922ZM7.58215 6.14291L18.0597 4.3963V2.32909L7.58215 4.07569V6.14291Z" fill="black"/>
</svg>
