<svg width="42" height="34" viewBox="0 0 42 34" fill="none" xmlns="http://www.w3.org/2000/svg">
<path d="M4.16667 0L8.33333 8.33333H14.5833L10.4167 0H14.5833L18.75 8.33333H25L20.8333 0H25L29.1667 8.33333H35.4167L31.25 0H37.5C38.6458 0 39.6271 0.408333 40.4438 1.225C41.2604 2.04167 41.6681 3.02222 41.6667 4.16667V29.1667C41.6667 30.3125 41.259 31.2937 40.4438 32.1104C39.6285 32.9271 38.6472 33.3347 37.5 33.3333H4.16667C3.02083 33.3333 2.04028 32.9257 1.225 32.1104C0.409722 31.2951 0.00138889 30.3139 0 29.1667V4.16667C0 3.02083 0.408334 2.04028 1.225 1.225C2.04167 0.409722 3.02222 0.00138889 4.16667 0Z" fill="black"/>
</svg>
