<svg width="26" height="23" viewBox="0 0 26 23" fill="none" xmlns="http://www.w3.org/2000/svg">
<path fill-rule="evenodd" clip-rule="evenodd" d="M7.36358 0.0486018C5.15685 0.0486018 3.27992 0.841159 1.96417 2.28641C0.660507 3.71612 0.0078125 5.67421 0.0078125 7.84122C0.0078125 11.6054 1.92446 14.6047 4.35911 16.9375C6.7834 19.2599 9.83277 21.0263 12.3572 22.3473C12.5417 22.444 12.7468 22.4949 12.9551 22.4955C13.1634 22.4961 13.3688 22.4464 13.5538 22.3507C16.08 21.0436 19.1276 19.2634 21.5536 16.9289C23.9883 14.5892 25.9084 11.5795 25.9084 7.84122C25.9084 5.66557 25.2522 3.70922 23.9469 2.2795C22.6294 0.837706 20.7524 0.046875 18.5526 0.046875C16.6947 0.046875 15.1579 0.735831 13.9889 2.03431C13.5896 2.48442 13.2437 2.97925 12.9581 3.50892C12.6725 2.97925 12.3266 2.48442 11.9273 2.03431C10.7583 0.735831 9.22151 0.0486018 7.36358 0.0486018Z" fill="#F20000"/>
</svg>
