<svg width="21" height="22" viewBox="0 0 21 22" fill="none" xmlns="http://www.w3.org/2000/svg">
<path d="M18.9579 0.703125C19.3001 0.703163 19.6303 0.807849 19.886 0.997328C20.1417 1.18681 20.3051 1.4479 20.3451 1.73109L20.3549 1.86729V20.494C20.3545 20.7907 20.2182 21.0761 19.9737 21.2919C19.7293 21.5076 19.3952 21.6375 19.0398 21.6549C18.6843 21.6723 18.3343 21.5759 18.0613 21.3854C17.7882 21.195 17.6127 20.9249 17.5707 20.6302L17.5609 20.494V14.6732H16.1639C15.8217 14.6731 15.4915 14.5684 15.2358 14.379C14.9801 14.1895 14.8167 13.9284 14.7767 13.6452L14.7669 13.509V6.52397C14.7669 3.95116 16.8624 0.703125 18.9579 0.703125ZM10.5759 0.703125C10.9181 0.703163 11.2483 0.807849 11.504 0.997328C11.7597 1.18681 11.9231 1.4479 11.9631 1.73109L11.9729 1.86729V7.68814C11.9727 8.72061 11.561 9.72378 10.8024 10.5401C10.0439 11.3564 8.98139 11.9396 7.78189 12.1981V20.494C7.7815 20.7907 7.64515 21.0761 7.40072 21.2919C7.15629 21.5076 6.82222 21.6375 6.46676 21.6549C6.1113 21.6723 5.76129 21.5759 5.48825 21.3854C5.2152 21.195 5.03972 20.9249 4.99766 20.6302L4.98788 20.494V12.1981C3.83599 11.95 2.80913 11.4021 2.05664 10.6341C1.30416 9.86611 0.865287 8.91811 0.80386 7.92796L0.796875 7.68814V1.86729C0.79727 1.57057 0.933612 1.28517 1.17804 1.06941C1.42248 0.853647 1.75655 0.723806 2.11201 0.706417C2.46746 0.689028 2.81747 0.785402 3.09052 0.975849C3.36357 1.1663 3.53905 1.43644 3.5811 1.73109L3.59088 1.86729V7.68814C3.59089 8.09684 3.72 8.49834 3.96523 8.85228C4.21045 9.20622 4.56315 9.50013 4.98788 9.70448V1.86729C4.98828 1.57057 5.12462 1.28517 5.36905 1.06941C5.61349 0.853647 5.94756 0.723806 6.30302 0.706417C6.65847 0.689028 7.00848 0.785402 7.28153 0.975849C7.55458 1.1663 7.73006 1.43644 7.77211 1.73109L7.78189 1.86729L7.78329 9.70448C8.17314 9.51669 8.50275 9.25316 8.74404 8.93634C8.98534 8.61952 9.13117 8.25879 9.16912 7.88488L9.17889 7.68814V1.86729C9.17889 1.55854 9.32608 1.26243 9.58807 1.0441C9.85006 0.825778 10.2054 0.703125 10.5759 0.703125Z" fill="black"/>
</svg>
