<svg width="24" height="20" viewBox="0 0 24 20" fill="none" xmlns="http://www.w3.org/2000/svg">
<path d="M2.79709 0.515625L5.12543 5.1723H8.61794L6.2896 0.515625H8.61794L10.9463 5.1723H14.4388L12.1104 0.515625H14.4388L16.7671 5.1723H20.2596L17.9313 0.515625H21.4238C22.0641 0.515625 22.6124 0.743802 23.0688 1.20016C23.5251 1.65651 23.7529 2.20445 23.7521 2.84396V16.814C23.7521 17.4543 23.5243 18.0026 23.0688 18.459C22.6132 18.9153 22.0649 19.1431 21.4238 19.1423H2.79709C2.1568 19.1423 1.60886 18.9145 1.15328 18.459C0.697703 18.0034 0.469526 17.4551 0.46875 16.814V2.84396C0.46875 2.20367 0.696927 1.65573 1.15328 1.20016C1.60964 0.744578 2.15757 0.516401 2.79709 0.515625Z" fill="black"/>
</svg>
