<svg width="20" height="22" viewBox="0 0 20 22" fill="none" xmlns="http://www.w3.org/2000/svg">
<path d="M18.3857 0.398438C18.7278 0.398475 19.0581 0.503162 19.3138 0.692641C19.5695 0.88212 19.7328 1.14321 19.7729 1.4264L19.7827 1.56261V20.1893C19.7823 20.486 19.6459 20.7714 19.4015 20.9872C19.1571 21.203 18.823 21.3328 18.4675 21.3502C18.1121 21.3676 17.7621 21.2712 17.489 21.0808C17.216 20.8903 17.0405 20.6202 16.9984 20.3255L16.9886 20.1893V14.3685H15.5916C15.2495 14.3684 14.9192 14.2637 14.6635 14.0743C14.4078 13.8848 14.2445 13.6237 14.2044 13.3405L14.1946 13.2043V6.21928C14.1946 3.64647 16.2901 0.398438 18.3857 0.398438ZM10.0036 0.398438C10.3458 0.398475 10.6761 0.503162 10.9318 0.692641C11.1875 0.88212 11.3508 1.14321 11.3909 1.4264L11.4006 1.56261V7.38345C11.4005 8.41592 10.9888 9.41909 10.2302 10.2354C9.4716 11.0517 8.40912 11.6349 7.20963 11.8934V20.1893C7.20923 20.486 7.07289 20.7714 6.82846 20.9872C6.58402 21.203 6.24995 21.3328 5.89449 21.3502C5.53904 21.3676 5.18903 21.2712 4.91598 21.0808C4.64293 20.8903 4.46745 20.6202 4.4254 20.3255L4.41562 20.1893V11.8934C3.26372 11.6453 2.23686 11.0974 1.48438 10.3294C0.731891 9.56142 0.293021 8.61342 0.231595 7.62327L0.224609 7.38345V1.56261C0.225004 1.26588 0.361347 0.980485 0.605779 0.764722C0.850212 0.548959 1.18429 0.419119 1.53974 0.40173C1.8952 0.38434 2.24521 0.480715 2.51825 0.671161C2.7913 0.861608 2.96678 1.13175 3.00884 1.4264L3.01862 1.56261V7.38345C3.01863 7.79215 3.14773 8.19365 3.39296 8.54759C3.63818 8.90153 3.99089 9.19544 4.41562 9.39979V1.56261C4.41601 1.26588 4.55236 0.980485 4.79679 0.764722C5.04122 0.548959 5.37529 0.419119 5.73075 0.40173C6.08621 0.38434 6.43622 0.480715 6.70926 0.671161C6.98231 0.861608 7.15779 1.13175 7.19985 1.4264L7.20963 1.56261L7.21102 9.39979C7.60087 9.21201 7.93048 8.94848 8.17178 8.63166C8.41307 8.31483 8.5589 7.95411 8.59685 7.5802L8.60663 7.38345V1.56261C8.60663 1.25385 8.75381 0.957739 9.0158 0.739415C9.27779 0.521091 9.63312 0.398438 10.0036 0.398438Z" fill="black"/>
</svg>
