<svg width="24" height="20" viewBox="0 0 24 20" fill="none" xmlns="http://www.w3.org/2000/svg">
<path d="M2.36935 0.617188L4.69769 5.27386H8.1902L5.86186 0.617188H8.1902L10.5185 5.27386H14.011L11.6827 0.617188H14.011L16.3394 5.27386H19.8319L17.5036 0.617188H20.9961C21.6364 0.617188 22.1847 0.845364 22.641 1.30172C23.0974 1.75807 23.3252 2.30601 23.3244 2.94553V16.9156C23.3244 17.5558 23.0966 18.1042 22.641 18.5605C22.1855 19.0169 21.6371 19.2447 20.9961 19.2439H2.36935C1.72906 19.2439 1.18113 19.0161 0.725547 18.5605C0.269969 18.1049 0.0417917 17.5566 0.0410156 16.9156V2.94553C0.0410156 2.30523 0.269193 1.7573 0.725547 1.30172C1.1819 0.846141 1.72984 0.617964 2.36935 0.617188Z" fill="black"/>
</svg>
