<svg width="26" height="23" viewBox="0 0 26 23" fill="none" xmlns="http://www.w3.org/2000/svg">
<path fill-rule="evenodd" clip-rule="evenodd" d="M7.36358 0.150164C5.15685 0.150164 3.27992 0.942722 1.96417 2.38797C0.660507 3.81769 0.0078125 5.77577 0.0078125 7.94278C0.0078125 11.707 1.92446 14.7063 4.35911 17.0391C6.7834 19.3615 9.83277 21.1279 12.3572 22.4488C12.5417 22.5456 12.7468 22.5965 12.9551 22.5971C13.1634 22.5977 13.3688 22.548 13.5538 22.4523C16.08 21.1452 19.1276 19.3649 21.5536 17.0304C23.9883 14.6907 25.9084 11.6811 25.9084 7.94278C25.9084 5.76714 25.2522 3.81078 23.9469 2.38107C22.6294 0.939269 20.7524 0.148438 18.5526 0.148438C16.6947 0.148438 15.1579 0.837393 13.9889 2.13588C13.5896 2.58598 13.2437 3.08081 12.9581 3.61048C12.6725 3.08081 12.3266 2.58598 11.9273 2.13588C10.7583 0.837393 9.22151 0.150164 7.36358 0.150164Z" fill="#F20000"/>
</svg>
