<svg width="20" height="22" viewBox="0 0 20 22" fill="none" xmlns="http://www.w3.org/2000/svg">
<path d="M18.3407 0.664062C18.6829 0.6641 19.0132 0.768787 19.2689 0.958266C19.5246 1.14775 19.6879 1.40884 19.728 1.69202L19.7377 1.82823V20.4549C19.7373 20.7517 19.601 21.0371 19.3566 21.2528C19.1121 21.4686 18.7781 21.5984 18.4226 21.6158C18.0671 21.6332 17.7171 21.5368 17.4441 21.3464C17.171 21.1559 16.9956 20.8858 16.9535 20.5911L16.9437 20.4549V14.6341H15.5467C15.2045 14.6341 14.8743 14.5294 14.6186 14.3399C14.3629 14.1504 14.1995 13.8893 14.1595 13.6061L14.1497 13.4699V6.48491C14.1497 3.91209 16.2452 0.664062 18.3407 0.664062ZM9.95871 0.664062C10.3009 0.6641 10.6311 0.768787 10.8868 0.958266C11.1425 1.14775 11.3059 1.40884 11.3459 1.69202L11.3557 1.82823V7.64908C11.3555 8.68154 10.9438 9.68472 10.1853 10.501C9.42668 11.3174 8.3642 11.9006 7.1647 12.1591V20.4549C7.16431 20.7517 7.02797 21.0371 6.78353 21.2528C6.5391 21.4686 6.20503 21.5984 5.84957 21.6158C5.49412 21.6332 5.14411 21.5368 4.87106 21.3464C4.59801 21.1559 4.42253 20.8858 4.38048 20.5911L4.3707 20.4549V12.1591C3.2188 11.9109 2.19194 11.363 1.43946 10.595C0.686969 9.82704 0.248099 8.87904 0.186673 7.8889L0.179688 7.64908V1.82823C0.180082 1.53151 0.316425 1.24611 0.560857 1.03035C0.80529 0.814584 1.13936 0.684744 1.49482 0.667355C1.85027 0.649965 2.20028 0.74634 2.47333 0.936786C2.74638 1.12723 2.92186 1.39738 2.96391 1.69202L2.97369 1.82823V7.64908C2.97371 8.05778 3.10281 8.45927 3.34804 8.81321C3.59326 9.16715 3.94596 9.46107 4.3707 9.66542V1.82823C4.37109 1.53151 4.50743 1.24611 4.75187 1.03035C4.9963 0.814584 5.33037 0.684744 5.68583 0.667355C6.04128 0.649965 6.39129 0.74634 6.66434 0.936786C6.93739 1.12723 7.11287 1.39738 7.15492 1.69202L7.1647 1.82823L7.1661 9.66542C7.55595 9.47763 7.88556 9.2141 8.12686 8.89728C8.36815 8.58046 8.51398 8.21973 8.55193 7.84582L8.56171 7.64908V1.82823C8.56171 1.51947 8.70889 1.22336 8.97088 1.00504C9.23287 0.786716 9.5882 0.664063 9.95871 0.664062Z" fill="black"/>
</svg>
