<svg width="36" height="36" viewBox="0 0 36 36" fill="none" xmlns="http://www.w3.org/2000/svg">
<path fill-rule="evenodd" clip-rule="evenodd" d="M31.2578 0.0510861C31.795 -0.0384899 32.3451 -0.0100158 32.8701 0.134529C33.3951 0.279073 33.8824 0.53622 34.2979 0.888094C34.7135 1.23997 35.0475 1.67813 35.2766 2.17211C35.5057 2.66609 35.6245 3.20405 35.6247 3.74859V25.9111C35.6243 27.562 35.0793 29.1667 34.074 30.4763C33.0687 31.7859 31.6594 32.7271 30.0646 33.1542C28.4699 33.5812 26.7788 33.4701 25.2536 32.8381C23.7284 32.2061 22.4544 31.0885 21.6291 29.6587C20.8038 28.2288 20.4733 26.5666 20.689 24.9298C20.9046 23.293 21.6543 21.7731 22.8217 20.6058C23.9892 19.4385 25.5092 18.689 27.146 18.4735C28.7828 18.2581 30.445 18.5887 31.8747 19.4142V11.2486L13.1247 14.3742V27.7861C13.1247 27.8986 13.1153 28.0055 13.0966 28.1123C13.2312 29.5542 12.8851 31 12.1123 32.2247C11.3395 33.4493 10.1833 34.3839 8.82388 34.8829C7.46447 35.3819 5.97818 35.4173 4.59658 34.9835C3.21499 34.5497 2.01567 33.6711 1.18549 32.4846C0.355314 31.2981 -0.0591052 29.8703 0.00680387 28.4237C0.0727129 26.9771 0.615248 25.5929 1.54988 24.4868C2.48451 23.3807 3.75876 22.6148 5.17408 22.3084C6.5894 22.0021 8.06631 22.1724 9.37471 22.793V6.87421C9.3746 5.98651 9.68941 5.12756 10.2631 4.45017C10.8368 3.77277 11.6322 3.32086 12.5078 3.17484L31.2578 0.0510861ZM13.1247 10.5736L31.8747 7.44796V3.74859L13.1247 6.87421V10.5736Z" fill="black"/>
</svg>
