<svg width="21" height="20" viewBox="0 0 21 20" fill="none" xmlns="http://www.w3.org/2000/svg">
<path fill-rule="evenodd" clip-rule="evenodd" d="M18.3322 0.309797C18.6323 0.259742 18.9397 0.275653 19.2331 0.356425C19.5265 0.437196 19.7987 0.58089 20.031 0.777518C20.2632 0.974146 20.4498 1.21899 20.5778 1.49503C20.7059 1.77107 20.7723 2.07168 20.7724 2.37596V14.7604C20.7722 15.6829 20.4676 16.5796 19.9058 17.3114C19.3441 18.0432 18.5565 18.5692 17.6654 18.8078C16.7742 19.0465 15.8293 18.9844 14.977 18.6312C14.1247 18.2781 13.4128 17.6536 12.9516 16.8546C12.4904 16.0556 12.3058 15.1267 12.4263 14.2121C12.5467 13.2974 12.9657 12.4481 13.618 11.7958C14.2704 11.1435 15.1198 10.7247 16.0344 10.6043C16.9491 10.4839 17.8779 10.6687 18.6769 11.1299V6.56697L8.19934 8.31358V15.8081C8.19934 15.871 8.1941 15.9307 8.18362 15.9905C8.25885 16.7962 8.06546 17.6041 7.63361 18.2884C7.20175 18.9728 6.55567 19.495 5.79603 19.7739C5.03639 20.0527 4.20585 20.0725 3.43381 19.8301C2.66177 19.5877 1.99159 19.0967 1.52769 18.4337C1.06378 17.7706 0.832206 16.9728 0.869036 16.1644C0.905866 15.3561 1.20904 14.5826 1.73131 13.9645C2.25358 13.3464 2.96563 12.9184 3.75652 12.7472C4.5474 12.576 5.3727 12.6712 6.10384 13.018V4.12257C6.10377 3.62652 6.27969 3.14654 6.60028 2.76801C6.92087 2.38948 7.36534 2.13695 7.85463 2.05535L18.3322 0.309797ZM8.19934 6.18978L18.6769 4.44318V2.37596L8.19934 4.12257V6.18978Z" fill="black"/>
</svg>
