<svg width="21" height="20" viewBox="0 0 21 20" fill="none" xmlns="http://www.w3.org/2000/svg">
<path fill-rule="evenodd" clip-rule="evenodd" d="M18.3322 0.0988595C18.6323 0.0488043 18.9397 0.0647157 19.2331 0.145487C19.5265 0.226259 19.7987 0.369953 20.031 0.56658C20.2632 0.763208 20.4498 1.00805 20.5778 1.28409C20.7059 1.56013 20.7723 1.86074 20.7724 2.16503V14.5495C20.7722 15.472 20.4676 16.3687 19.9058 17.1005C19.3441 17.8323 18.5565 18.3583 17.6654 18.5969C16.7742 18.8355 15.8293 18.7734 14.977 18.4203C14.1247 18.0671 13.4128 17.4426 12.9516 16.6436C12.4904 15.8446 12.3058 14.9158 12.4263 14.0011C12.5467 13.0865 12.9657 12.2372 13.618 11.5849C14.2704 10.9326 15.1198 10.5137 16.0344 10.3933C16.9491 10.273 17.8779 10.4577 18.6769 10.919V6.35604L8.19934 8.10264V15.5972C8.19934 15.6601 8.1941 15.7198 8.18362 15.7795C8.25885 16.5852 8.06546 17.3932 7.63361 18.0775C7.20175 18.7618 6.55567 19.2841 5.79603 19.5629C5.03639 19.8418 4.20585 19.8615 3.43381 19.6191C2.66177 19.3767 1.99159 18.8858 1.52769 18.2227C1.06378 17.5597 0.832206 16.7619 0.869036 15.9535C0.905866 15.1451 1.20904 14.3717 1.73131 13.7536C2.25358 13.1355 2.96563 12.7075 3.75652 12.5363C4.5474 12.3651 5.3727 12.4603 6.10384 12.807V3.91163C6.10377 3.41558 6.27969 2.9356 6.60028 2.55707C6.92087 2.17854 7.36534 1.92601 7.85463 1.84441L18.3322 0.0988595ZM8.19934 5.97884L18.6769 4.23224V2.16503L8.19934 3.91163V5.97884Z" fill="black"/>
</svg>
