<svg width="24" height="20" viewBox="0 0 24 20" fill="none" xmlns="http://www.w3.org/2000/svg">
<path d="M2.75217 0.78125L5.08051 5.43793H8.57301L6.24467 0.78125H8.57301L10.9014 5.43793H14.3939L12.0655 0.78125H14.3939L16.7222 5.43793H20.2147L17.8864 0.78125H21.3789C22.0192 0.78125 22.5675 1.00943 23.0238 1.46578C23.4802 1.92214 23.708 2.47007 23.7072 3.10959V17.0796C23.7072 17.7199 23.4794 18.2682 23.0238 18.7246C22.5683 19.1809 22.0199 19.4087 21.3789 19.408H2.75217C2.11187 19.408 1.56394 19.1802 1.10836 18.7246C0.652781 18.269 0.424604 17.7207 0.423828 17.0796V3.10959C0.423828 2.4693 0.652005 1.92136 1.10836 1.46578C1.56471 1.0102 2.11265 0.782026 2.75217 0.78125Z" fill="black"/>
</svg>
