<svg width="21" height="22" viewBox="0 0 21 22" fill="none" xmlns="http://www.w3.org/2000/svg">
<path d="M18.9579 0.5C19.3001 0.500038 19.6303 0.604724 19.886 0.794203C20.1417 0.983683 20.3051 1.24478 20.3451 1.52796L20.3549 1.66417V20.2909C20.3545 20.5876 20.2182 20.873 19.9737 21.0888C19.7293 21.3045 19.3952 21.4344 19.0398 21.4518C18.6843 21.4691 18.3343 21.3728 18.0613 21.1823C17.7882 20.9919 17.6127 20.7217 17.5707 20.4271L17.5609 20.2909V14.47H16.1639C15.8217 14.47 15.4915 14.3653 15.2358 14.1758C14.9801 13.9863 14.8167 13.7253 14.7767 13.4421L14.7669 13.3059V6.32085C14.7669 3.74803 16.8624 0.5 18.9579 0.5ZM10.5759 0.5C10.9181 0.500038 11.2483 0.604724 11.504 0.794203C11.7597 0.983683 11.9231 1.24478 11.9631 1.52796L11.9729 1.66417V7.48502C11.9727 8.51748 11.561 9.52066 10.8024 10.337C10.0439 11.1533 8.98139 11.7365 7.78189 11.995V20.2909C7.7815 20.5876 7.64515 20.873 7.40072 21.0888C7.15629 21.3045 6.82222 21.4344 6.46676 21.4518C6.1113 21.4691 5.76129 21.3728 5.48825 21.1823C5.2152 20.9919 5.03972 20.7217 4.99766 20.4271L4.98788 20.2909V11.995C3.83599 11.7469 2.80913 11.1989 2.05664 10.431C1.30416 9.66298 0.865287 8.71498 0.80386 7.72483L0.796875 7.48502V1.66417C0.79727 1.36745 0.933612 1.08205 1.17804 0.866285C1.42248 0.650522 1.75655 0.520681 2.11201 0.503292C2.46746 0.485903 2.81747 0.582277 3.09052 0.772724C3.36357 0.963171 3.53905 1.23331 3.5811 1.52796L3.59088 1.66417V7.48502C3.59089 7.89371 3.72 8.29521 3.96523 8.64915C4.21045 9.00309 4.56315 9.29701 4.98788 9.50136V1.66417C4.98828 1.36745 5.12462 1.08205 5.36905 0.866285C5.61349 0.650522 5.94756 0.520681 6.30302 0.503292C6.65847 0.485903 7.00848 0.582277 7.28153 0.772724C7.55458 0.963171 7.73006 1.23331 7.77211 1.52796L7.78189 1.66417L7.78329 9.50136C8.17314 9.31357 8.50275 9.05004 8.74404 8.73322C8.98534 8.4164 9.13117 8.05567 9.16912 7.68176L9.17889 7.48502V1.66417C9.17889 1.35541 9.32608 1.0593 9.58807 0.840977C9.85006 0.622653 10.2054 0.5 10.5759 0.5Z" fill="black"/>
</svg>
