<svg width="20" height="22" viewBox="0 0 20 22" fill="none" xmlns="http://www.w3.org/2000/svg">
<path d="M18.3857 0.5625C18.7278 0.562538 19.0581 0.667224 19.3138 0.856703C19.5695 1.04618 19.7328 1.30728 19.7729 1.59046L19.7827 1.72667V20.3534C19.7823 20.6501 19.6459 20.9355 19.4015 21.1513C19.1571 21.367 18.823 21.4969 18.4675 21.5143C18.1121 21.5316 17.7621 21.4353 17.489 21.2448C17.216 21.0544 17.0405 20.7842 16.9984 20.4896L16.9886 20.3534V14.5325H15.5916C15.2495 14.5325 14.9192 14.4278 14.6635 14.2383C14.4078 14.0488 14.2445 13.7878 14.2044 13.5046L14.1946 13.3684V6.38335C14.1946 3.81053 16.2901 0.5625 18.3857 0.5625ZM10.0036 0.5625C10.3458 0.562538 10.6761 0.667224 10.9318 0.856703C11.1875 1.04618 11.3508 1.30728 11.3909 1.59046L11.4006 1.72667V7.54752C11.4005 8.57998 10.9888 9.58316 10.2302 10.3995C9.4716 11.2158 8.40912 11.799 7.20963 12.0575V20.3534C7.20923 20.6501 7.07289 20.9355 6.82846 21.1513C6.58402 21.367 6.24995 21.4969 5.89449 21.5143C5.53904 21.5316 5.18903 21.4353 4.91598 21.2448C4.64293 21.0544 4.46745 20.7842 4.4254 20.4896L4.41562 20.3534V12.0575C3.26372 11.8094 2.23686 11.2614 1.48438 10.4935C0.731891 9.72548 0.293021 8.77748 0.231595 7.78733L0.224609 7.54752V1.72667C0.225004 1.42995 0.361347 1.14455 0.605779 0.928785C0.850212 0.713022 1.18429 0.583181 1.53974 0.565792C1.8952 0.548403 2.24521 0.644777 2.51825 0.835224C2.7913 1.02567 2.96678 1.29581 3.00884 1.59046L3.01862 1.72667V7.54752C3.01863 7.95621 3.14773 8.35771 3.39296 8.71165C3.63818 9.06559 3.99089 9.35951 4.41562 9.56386V1.72667C4.41601 1.42995 4.55236 1.14455 4.79679 0.928785C5.04122 0.713022 5.37529 0.583181 5.73075 0.565792C6.08621 0.548403 6.43622 0.644777 6.70926 0.835224C6.98231 1.02567 7.15779 1.29581 7.19985 1.59046L7.20963 1.72667L7.21102 9.56386C7.60087 9.37607 7.93048 9.11254 8.17178 8.79572C8.41307 8.4789 8.5589 8.11817 8.59685 7.74426L8.60663 7.54752V1.72667C8.60663 1.41791 8.75381 1.1218 9.0158 0.903477C9.27779 0.685153 9.63312 0.5625 10.0036 0.5625Z" fill="black"/>
</svg>
