<svg width="21" height="20" viewBox="0 0 21 20" fill="none" xmlns="http://www.w3.org/2000/svg">
<path fill-rule="evenodd" clip-rule="evenodd" d="M17.7599 0.161359C18.06 0.111304 18.3675 0.127216 18.6608 0.207987C18.9542 0.288759 19.2265 0.432453 19.4587 0.62908C19.6909 0.825708 19.8775 1.07055 20.0056 1.34659C20.1336 1.62263 20.2 1.92324 20.2001 2.22753V14.612C20.1999 15.5345 19.8953 16.4312 19.3335 17.163C18.7718 17.8948 17.9843 18.4208 17.0931 18.6594C16.202 18.898 15.257 18.8359 14.4047 18.4828C13.5525 18.1296 12.8405 17.5051 12.3793 16.7061C11.9182 15.9071 11.7335 14.9783 11.854 14.0636C11.9745 13.149 12.3934 12.2997 13.0458 11.6474C13.6981 10.9951 14.5475 10.5762 15.4622 10.4558C16.3768 10.3355 17.3057 10.5202 18.1046 10.9815V6.41854L7.62708 8.16514V15.6597C7.62708 15.7226 7.62184 15.7823 7.61136 15.842C7.68658 16.6477 7.4932 17.4557 7.06134 18.14C6.62948 18.8243 5.9834 19.3466 5.22376 19.6254C4.46412 19.9043 3.63358 19.924 2.86155 19.6816C2.08951 19.4392 1.41933 18.9483 0.955424 18.2852C0.491518 17.6222 0.259941 16.8244 0.296771 16.016C0.333601 15.2076 0.63677 14.4342 1.15904 13.8161C1.68132 13.198 2.39337 12.77 3.18425 12.5988C3.97513 12.4276 4.80043 12.5228 5.53157 12.8695V3.97413C5.53151 3.47808 5.70742 2.9981 6.02801 2.61957C6.3486 2.24104 6.79308 1.98851 7.28236 1.90691L17.7599 0.161359ZM7.62708 6.04134L18.1046 4.29474V2.22753L7.62708 3.97413V6.04134Z" fill="black"/>
</svg>
