<svg width="27" height="23" viewBox="0 0 27 23" fill="none" xmlns="http://www.w3.org/2000/svg">
<path fill-rule="evenodd" clip-rule="evenodd" d="M7.79131 0.00172679C5.58458 0.00172679 3.70765 0.794284 2.3919 2.23954C1.08824 3.66925 0.435547 5.62733 0.435547 7.79435C0.435547 11.5586 2.35219 14.5579 4.78684 16.8906C7.21114 19.213 10.2605 20.9795 12.7849 22.3004C12.9694 22.3972 13.1745 22.448 13.3828 22.4486C13.5911 22.4492 13.7965 22.3996 13.9816 22.3039C16.5077 20.9967 19.5554 19.2165 21.9814 16.882C24.416 14.5423 26.3361 11.5327 26.3361 7.79435C26.3361 5.6187 25.68 3.66234 24.3746 2.23263C23.0571 0.790831 21.1802 0 18.9804 0C17.1224 0 15.5857 0.688956 14.4167 1.98744C14.0173 2.43754 13.6714 2.93237 13.3858 3.46204C13.1003 2.93237 12.7544 2.43754 12.355 1.98744C11.186 0.688956 9.64925 0.00172679 7.79131 0.00172679Z" fill="#F20000"/>
</svg>
