<svg width="27" height="24" viewBox="0 0 27 24" fill="none" xmlns="http://www.w3.org/2000/svg">
<path fill-rule="evenodd" clip-rule="evenodd" d="M2.34698 3.1536C3.66273 1.70835 5.54139 0.914062 7.74639 0.914062C9.75628 0.914062 11.9026 1.86375 13.3409 3.72169C14.7706 1.86548 16.9083 0.914062 18.9354 0.914062C21.1353 0.914062 23.0105 1.70489 24.3297 3.14669C25.6351 4.5764 26.2912 6.53449 26.2912 8.70668C26.2912 12.4467 24.3694 15.4564 21.9365 17.7961C19.5104 20.1306 16.4628 21.9108 13.9366 23.2179C13.7516 23.3136 13.5462 23.3633 13.3379 23.3627C13.1296 23.3621 12.9245 23.3112 12.74 23.2145C10.2139 21.8935 7.16622 20.1271 4.7402 17.8047C2.30727 15.4719 0.390625 12.4726 0.390625 8.70841C0.390625 6.54139 1.04332 4.58331 2.34698 3.1536ZM4.2619 4.89757C3.47625 5.76092 2.98068 7.05077 2.98068 8.70841C2.98068 11.5126 4.38967 13.8816 6.53252 15.9329C8.51132 17.8289 11.0219 19.3605 13.3444 20.6037C15.6495 19.3777 18.1619 17.834 20.1424 15.9295C22.2887 13.8626 23.7011 11.4832 23.7011 8.70841C23.7011 7.04559 23.2039 5.75574 22.4165 4.89239C21.6429 4.04803 20.4895 3.50585 18.9354 3.50585C17.2502 3.50585 15.3214 4.59022 14.5721 6.87292C14.4873 7.13265 14.3226 7.35892 14.1015 7.51936C13.8803 7.67981 13.6141 7.76621 13.3409 7.76621C13.0677 7.76621 12.8015 7.67981 12.5804 7.51936C12.3592 7.35892 12.1945 7.13265 12.1098 6.87292C11.3621 4.59367 9.41266 3.50585 7.74639 3.50585C6.18718 3.50585 5.03546 4.04803 4.2619 4.89757Z" fill="black"/>
</svg>
