<svg width="24" height="20" viewBox="0 0 24 20" fill="none" xmlns="http://www.w3.org/2000/svg">
<path d="M2.79709 0.679688L5.12543 5.33636H8.61794L6.2896 0.679688H8.61794L10.9463 5.33636H14.4388L12.1104 0.679688H14.4388L16.7671 5.33636H20.2596L17.9313 0.679688H21.4238C22.0641 0.679688 22.6124 0.907864 23.0688 1.36422C23.5251 1.82057 23.7529 2.36851 23.7521 3.00803V16.9781C23.7521 17.6183 23.5243 18.1667 23.0688 18.623C22.6132 19.0794 22.0649 19.3072 21.4238 19.3064H2.79709C2.1568 19.3064 1.60886 19.0786 1.15328 18.623C0.697703 18.1674 0.469526 17.6191 0.46875 16.9781V3.00803C0.46875 2.36773 0.696927 1.8198 1.15328 1.36422C1.60964 0.908641 2.15757 0.680464 2.79709 0.679688Z" fill="black"/>
</svg>
