<svg width="27" height="24" viewBox="0 0 27 24" fill="none" xmlns="http://www.w3.org/2000/svg">
<path fill-rule="evenodd" clip-rule="evenodd" d="M2.34698 3.17704C3.66273 1.73178 5.54139 0.9375 7.74639 0.9375C9.75628 0.9375 11.9026 1.88719 13.3409 3.74512C14.7706 1.88891 16.9083 0.9375 18.9354 0.9375C21.1353 0.9375 23.0105 1.72833 24.3297 3.17013C25.6351 4.59984 26.2912 6.55793 26.2912 8.73012C26.2912 12.4702 24.3694 15.4798 21.9365 17.8195C19.5104 20.154 16.4628 21.9342 13.9366 23.2414C13.7516 23.3371 13.5462 23.3867 13.3379 23.3861C13.1296 23.3855 12.9245 23.3347 12.74 23.2379C10.2139 21.917 7.16622 20.1505 4.7402 17.8281C2.30727 15.4954 0.390625 12.4961 0.390625 8.73185C0.390625 6.56483 1.04332 4.60675 2.34698 3.17704ZM4.2619 4.92101C3.47625 5.78436 2.98068 7.07421 2.98068 8.73185C2.98068 11.536 4.38967 13.9051 6.53252 15.9564C8.51132 17.8523 11.0219 19.3839 13.3444 20.6271C15.6495 19.4012 18.1619 17.8575 20.1424 15.9529C22.2887 13.8861 23.7011 11.5067 23.7011 8.73185C23.7011 7.06903 23.2039 5.77918 22.4165 4.91583C21.6429 4.07147 20.4895 3.52928 18.9354 3.52928C17.2502 3.52928 15.3214 4.61365 14.5721 6.89636C14.4873 7.15609 14.3226 7.38236 14.1015 7.5428C13.8803 7.70325 13.6141 7.78965 13.3409 7.78965C13.0677 7.78965 12.8015 7.70325 12.5804 7.5428C12.3592 7.38236 12.1945 7.15609 12.1098 6.89636C11.3621 4.61711 9.41266 3.52928 7.74639 3.52928C6.18718 3.52928 5.03546 4.07147 4.2619 4.92101Z" fill="black"/>
</svg>
