<svg width="21" height="21" viewBox="0 0 21 21" fill="none" xmlns="http://www.w3.org/2000/svg">
<path fill-rule="evenodd" clip-rule="evenodd" d="M17.7599 0.997297C18.06 0.947242 18.3675 0.963153 18.6608 1.04392C18.9542 1.1247 19.2265 1.26839 19.4587 1.46502C19.6909 1.66165 19.8775 1.90649 20.0056 2.18253C20.1336 2.45857 20.2 2.75918 20.2001 3.06346V15.4479C20.1999 16.3704 19.8953 17.2671 19.3335 17.9989C18.7718 18.7307 17.9843 19.2567 17.0931 19.4953C16.202 19.734 15.257 19.6719 14.4047 19.3187C13.5525 18.9656 12.8405 18.3411 12.3793 17.5421C11.9182 16.7431 11.7335 15.8142 11.854 14.8996C11.9745 13.9849 12.3934 13.1356 13.0458 12.4833C13.6981 11.831 14.5475 11.4122 15.4622 11.2918C16.3768 11.1714 17.3057 11.3562 18.1046 11.8174V7.25447L7.62708 9.00108V16.4956C7.62708 16.5585 7.62184 16.6182 7.61136 16.678C7.68658 17.4837 7.4932 18.2916 7.06134 18.9759C6.62948 19.6603 5.9834 20.1825 5.22376 20.4614C4.46412 20.7402 3.63358 20.76 2.86155 20.5176C2.08951 20.2752 1.41933 19.7842 0.955424 19.1212C0.491518 18.4581 0.259941 17.6603 0.296771 16.8519C0.333601 16.0436 0.63677 15.2701 1.15904 14.652C1.68132 14.0339 2.39337 13.6059 3.18425 13.4347C3.97513 13.2635 4.80043 13.3587 5.53157 13.7055V4.81007C5.53151 4.31402 5.70742 3.83404 6.02801 3.45551C6.3486 3.07698 6.79308 2.82445 7.28236 2.74285L17.7599 0.997297ZM7.62708 6.87728L18.1046 5.13068V3.06346L7.62708 4.81007V6.87728Z" fill="black"/>
</svg>
