<svg width="21" height="22" viewBox="0 0 21 22" fill="none" xmlns="http://www.w3.org/2000/svg">
<path d="M18.9579 0.601562C19.3001 0.6016 19.6303 0.706287 19.886 0.895766C20.1417 1.08525 20.3051 1.34634 20.3451 1.62952L20.3549 1.76573V20.3924C20.3545 20.6892 20.2182 20.9746 19.9737 21.1903C19.7293 21.4061 19.3952 21.5359 19.0398 21.5533C18.6843 21.5707 18.3343 21.4743 18.0613 21.2839C17.7882 21.0934 17.6127 20.8233 17.5707 20.5286L17.5609 20.3924V14.5716H16.1639C15.8217 14.5716 15.4915 14.4669 15.2358 14.2774C14.9801 14.0879 14.8167 13.8268 14.7767 13.5436L14.7669 13.4074V6.42241C14.7669 3.84959 16.8624 0.601562 18.9579 0.601562ZM10.5759 0.601562C10.9181 0.6016 11.2483 0.706287 11.504 0.895766C11.7597 1.08525 11.9231 1.34634 11.9631 1.62952L11.9729 1.76573V7.58658C11.9727 8.61904 11.561 9.62222 10.8024 10.4385C10.0439 11.2549 8.98139 11.8381 7.78189 12.0966V20.3924C7.7815 20.6892 7.64515 20.9746 7.40072 21.1903C7.15629 21.4061 6.82222 21.5359 6.46676 21.5533C6.1113 21.5707 5.76129 21.4743 5.48825 21.2839C5.2152 21.0934 5.03972 20.8233 4.99766 20.5286L4.98788 20.3924V12.0966C3.83599 11.8484 2.80913 11.3005 2.05664 10.5325C1.30416 9.76454 0.865287 8.81654 0.80386 7.8264L0.796875 7.58658V1.76573C0.79727 1.46901 0.933612 1.18361 1.17804 0.967847C1.42248 0.752084 1.75655 0.622244 2.11201 0.604855C2.46746 0.587465 2.81747 0.68384 3.09052 0.874286C3.36357 1.06473 3.53905 1.33488 3.5811 1.62952L3.59088 1.76573V7.58658C3.59089 7.99528 3.72 8.39677 3.96523 8.75071C4.21045 9.10465 4.56315 9.39857 4.98788 9.60292V1.76573C4.98828 1.46901 5.12462 1.18361 5.36905 0.967847C5.61349 0.752084 5.94756 0.622244 6.30302 0.604855C6.65847 0.587465 7.00848 0.68384 7.28153 0.874286C7.55458 1.06473 7.73006 1.33488 7.77211 1.62952L7.78189 1.76573L7.78329 9.60292C8.17314 9.41513 8.50275 9.1516 8.74404 8.83478C8.98534 8.51796 9.13117 8.15723 9.16912 7.78332L9.17889 7.58658V1.76573C9.17889 1.45697 9.32608 1.16086 9.58807 0.94254C9.85006 0.724216 10.2054 0.601563 10.5759 0.601562Z" fill="black"/>
</svg>
