<svg width="18" height="11" viewBox="0 0 18 11" fill="none" xmlns="http://www.w3.org/2000/svg">
<path fill-rule="evenodd" clip-rule="evenodd" d="M2.10457 0.175781C1.83221 0.175842 1.56597 0.259661 1.33953 0.416643C1.11308 0.573625 0.936589 0.796723 0.832366 1.05773C0.728144 1.31874 0.700868 1.60594 0.753988 1.88302C0.807109 2.1601 0.93824 2.41463 1.1308 2.61443L8.01744 9.7575C8.27573 10.0253 8.62599 10.1758 8.99121 10.1758C9.35643 10.1758 9.70669 10.0253 9.96498 9.7575L16.8516 2.61443C17.0442 2.41463 17.1753 2.1601 17.2284 1.88302C17.2816 1.60594 17.2543 1.31874 17.1501 1.05773C17.0458 0.796723 16.8693 0.573625 16.6429 0.416643C16.4165 0.259661 16.1502 0.175842 15.8778 0.175781H2.10457Z" fill="white"/>
</svg>
