<svg width="16" height="15" viewBox="0 0 16 15" fill="none" xmlns="http://www.w3.org/2000/svg">
<path fill-rule="evenodd" clip-rule="evenodd" d="M0.68478 1.62444C0.77542 1.37252 0.928923 1.1572 1.12587 1.00572C1.32283 0.854243 1.55438 0.773407 1.79124 0.773438H9.77437C11.3623 0.773438 12.8852 1.49962 14.0081 2.79223C15.1309 4.08484 15.7617 5.83799 15.7617 7.66602C15.7617 9.49404 15.1309 11.2472 14.0081 12.5398C12.8852 13.8324 11.3623 14.5586 9.77437 14.5586H2.58955C2.27197 14.5586 1.96738 14.4134 1.74282 14.1548C1.51825 13.8963 1.39208 13.5457 1.39208 13.1801C1.39208 12.8145 1.51825 12.4638 1.74282 12.2053C1.96738 11.9468 2.27197 11.8016 2.58955 11.8016H9.77437C10.7271 11.8016 11.6409 11.3659 12.3146 10.5903C12.9883 9.81472 13.3668 8.76283 13.3668 7.66602C13.3668 6.5692 12.9883 5.51731 12.3146 4.74174C11.6409 3.96618 10.7271 3.53047 9.77437 3.53047H4.68193L5.43235 4.39434C5.65037 4.65445 5.77093 5.00273 5.76805 5.36417C5.76518 5.72561 5.6391 6.0713 5.41697 6.32677C5.19485 6.58223 4.89445 6.72705 4.58047 6.73002C4.2665 6.73299 3.96407 6.59387 3.73833 6.34264L0.944231 3.1261C0.776893 2.93335 0.662935 2.68783 0.616756 2.42055C0.570577 2.15327 0.594249 1.87624 0.68478 1.62444Z" fill="#9A9A9A"/>
</svg>
