<svg width="26" height="24" viewBox="0 0 26 24" fill="none" xmlns="http://www.w3.org/2000/svg">
<path d="M22.0688 7.78442C22.0688 8.04012 21.9673 8.28534 21.7865 8.46614C21.6057 8.64695 21.3604 8.74852 21.1047 8.74852C20.849 8.74852 20.6038 8.64695 20.423 8.46614C20.2422 8.28534 20.1406 8.04012 20.1406 7.78442C20.1406 7.52872 20.2422 7.2835 20.423 7.10269C20.6038 6.92189 20.849 6.82031 21.1047 6.82031C21.3604 6.82031 21.6057 6.92189 21.7865 7.10269C21.9673 7.2835 22.0688 7.52872 22.0688 7.78442Z" fill="black"/>
<path d="M22.0688 7.78358C22.0688 8.03928 21.9673 8.2845 21.7865 8.46531C21.6057 8.64611 21.3604 8.74769 21.1047 8.74769C20.849 8.74769 20.6038 8.64611 20.423 8.46531C20.2422 8.2845 20.1406 8.03928 20.1406 7.78358C20.1406 7.52788 20.2422 7.28266 20.423 7.10185C20.6038 6.92105 20.849 6.81947 21.1047 6.81947C21.3604 6.81947 21.6057 6.92105 21.7865 7.10185C21.9673 7.28266 22.0688 7.52788 22.0688 7.78358ZM22.0688 7.78358V2.96305C22.0688 2.79259 22.1366 2.6291 22.2571 2.50857C22.3776 2.38803 22.5411 2.32031 22.7116 2.32031H24.4255" stroke="black" stroke-width="2" stroke-linecap="round"/>
<path d="M16.9276 17.3162C16.3594 17.3162 15.8145 17.0904 15.4127 16.6887C15.0109 16.2869 14.7852 15.7419 14.7852 15.1737C14.7852 14.6055 15.0109 14.0606 15.4127 13.6588C15.8145 13.257 16.3594 13.0312 16.9276 13.0312C17.4958 13.0312 18.0408 13.257 18.4426 13.6588C18.8443 14.0606 19.0701 14.6055 19.0701 15.1737C19.0701 15.7419 18.8443 16.2869 18.4426 16.6887C18.0408 17.0904 17.4958 17.3162 16.9276 17.3162Z" stroke="black" stroke-width="2" stroke-linecap="round" stroke-linejoin="round"/>
<path d="M23.3007 13.0335C22.764 18.4464 18.1963 22.6746 12.642 22.6746C6.72558 22.6746 1.92969 17.8787 1.92969 11.9623C1.92969 6.0459 6.72558 1.25001 12.642 1.25001C14.1165 1.24812 15.5754 1.55158 16.9269 2.14127" stroke="black" stroke-width="2" stroke-linecap="round" stroke-linejoin="round"/>
<path d="M8.89108 8.75092C8.74903 8.75092 8.61279 8.69449 8.51235 8.59404C8.4119 8.49359 8.35547 8.35736 8.35547 8.2153C8.35547 8.07325 8.4119 7.93701 8.51235 7.83656C8.61279 7.73612 8.74903 7.67969 8.89108 7.67969C9.03314 7.67969 9.16937 7.73612 9.26982 7.83656C9.37027 7.93701 9.4267 8.07325 9.4267 8.2153C9.4267 8.35736 9.37027 8.49359 9.26982 8.59404C9.16937 8.69449 9.03314 8.75092 8.89108 8.75092ZM16.3897 8.75092C16.2476 8.75092 16.1114 8.69449 16.0109 8.59404C15.9105 8.49359 15.8541 8.35736 15.8541 8.2153C15.8541 8.07325 15.9105 7.93701 16.0109 7.83656C16.1114 7.73612 16.2476 7.67969 16.3897 7.67969C16.5317 7.67969 16.668 7.73612 16.7684 7.83656C16.8689 7.93701 16.9253 8.07325 16.9253 8.2153C16.9253 8.35736 16.8689 8.49359 16.7684 8.59404C16.668 8.69449 16.5317 8.75092 16.3897 8.75092Z" fill="black" stroke="black" stroke-width="2" stroke-linecap="round" stroke-linejoin="round"/>
</svg>
