<svg width="23" height="20" viewBox="0 0 23 20" fill="none" xmlns="http://www.w3.org/2000/svg">
<path d="M4.50202 8.7885L10.7172 0.078125L16.9325 8.7885H4.50202ZM16.9325 19.4345C15.5199 19.4345 14.3194 19.0112 13.331 18.1647C12.3426 17.3182 11.848 16.2897 11.8473 15.0793C11.8473 13.8695 12.3419 12.8414 13.331 11.9949C14.3202 11.1484 15.5207 10.7248 16.9325 10.7241C18.345 10.7241 19.5459 11.1477 20.535 11.9949C21.5242 12.842 22.0184 13.8702 22.0177 15.0793C22.0177 16.2891 21.5235 17.3176 20.535 18.1647C19.5466 19.0119 18.3458 19.4351 16.9325 19.4345ZM0.546875 18.9506V11.208H9.58721V18.9506H0.546875ZM16.9325 17.4989C17.7235 17.4989 18.3921 17.265 18.9383 16.7972C19.4845 16.3294 19.7576 15.7568 19.7576 15.0793C19.7576 14.4018 19.4845 13.8292 18.9383 13.3614C18.3921 12.8937 17.7235 12.6598 16.9325 12.6598C16.1414 12.6598 15.4728 12.8937 14.9267 13.3614C14.3805 13.8292 14.1074 14.4018 14.1074 15.0793C14.1074 15.7568 14.3805 16.3294 14.9267 16.7972C15.4728 17.265 16.1414 17.4989 16.9325 17.4989ZM2.80696 17.015H7.32712V13.1437H2.80696V17.015ZM8.51367 6.85286H12.9208L10.7172 3.80423L8.51367 6.85286Z" fill="black"/>
</svg>
