<svg width="25" height="27" viewBox="0 0 25 27" fill="none" xmlns="http://www.w3.org/2000/svg">
<path d="M6.51649 0.21875V1.10179H7.6654V0.21875H6.51649ZM18.0056 0.21875V1.10179H19.1545V0.21875H18.0056ZM6.26118 2.0951V5.51698H19.4098V2.0951H6.26118ZM6.01289 6.51029C4.31716 6.80362 2.62144 7.09673 0.925781 7.39012L1.15116 8.36412L2.04852 8.20892V12.6364H3.19743V8.01024L6.51649 7.43626V9.93217H7.6654V6.51029H6.01289ZM18.0056 6.51029V9.93217H19.1545V7.43626L22.4735 8.01024V12.6364H23.6224V8.20892L24.5198 8.36412L24.7451 7.39012C23.0495 7.09679 21.3538 6.80357 19.6581 6.51029H18.0056ZM6.89946 10.9255L4.34608 12.5813H21.3249L18.7715 10.9255H6.89946ZM2.44196 13.5746L9.99685 18.1473C7.61178 19.6598 5.22633 21.172 2.84139 22.6846L3.52065 23.4856L4.71698 22.7271L4.20585 23.8763L1.82301 25.3184L2.48185 26.1322L12.8355 19.8654C16.2867 21.9543 19.738 24.0431 23.189 26.1322L23.8479 25.3184L21.4651 23.8763L20.954 22.7271L22.1503 23.4856L22.8296 22.6846C20.4445 21.1721 18.0592 19.6597 15.6741 18.1473L23.229 13.5746H21.2259L14.6958 17.5271L13.8069 16.9633L19.1511 13.5746H17.2083L12.8355 16.3473L8.46261 13.5746H6.51987L11.8641 16.9633L10.9751 17.527L4.44508 13.5745L2.44196 13.5746ZM12.8355 17.5792L13.7019 18.1286L12.8355 18.6531L11.9691 18.1286L12.8355 17.5792ZM10.9908 18.7489L11.834 19.2592L5.88995 22.8569L6.43122 21.6401L10.9908 18.7489ZM14.6801 18.7489L19.2397 21.6401L19.781 22.8569L13.837 19.2593L14.6801 18.7489Z" fill="black"/>
</svg>
