<svg width="23" height="22" viewBox="0 0 23 22" fill="none" xmlns="http://www.w3.org/2000/svg">
<path d="M18.7023 0.390378C19.2009 0.125713 19.8285 0.295264 20.1035 0.774968L20.3099 1.13475C21.1394 2.56972 21.1609 4.26523 20.456 5.68366C21.6036 6.86638 22.2999 8.45023 22.2999 10.1912C22.2999 10.9563 22.1667 11.6924 21.9174 12.3747C21.6552 13.0901 20.6924 13.0488 20.3356 12.3706L19.8328 11.4029C19.6565 11.0679 19.2998 10.8529 18.9086 10.8529H15.7666C15.195 10.8529 14.735 10.4104 14.735 9.86039V6.55209C14.735 6.00209 14.2751 5.5596 13.7035 5.5596H12.9685C12.0529 5.5596 11.679 4.57124 12.5043 4.19906C13.3897 3.79793 14.3783 3.57462 15.4228 3.57462C16.6392 3.57462 17.7782 3.8765 18.7668 4.40996C19.0032 3.65733 18.9258 2.82198 18.5089 2.10242L18.3026 1.74265C18.0275 1.26294 18.2037 0.659177 18.7023 0.394513V0.390378ZM7.65155 14.554L11.6403 6.88292H13.3596V10.1912C13.3596 11.2871 14.2837 12.1762 15.4228 12.1762H18.698L19.7253 14.1529C16.2953 18.6233 10.7936 21.4395 4.72875 21.4395H2.20139C1.14832 21.4395 0.292969 20.6165 0.292969 19.6033C0.292969 18.7432 0.916213 17.9988 1.78876 17.8127L3.92928 17.3537C5.54541 17.0063 6.91655 15.9808 7.65585 14.554H7.65155Z" fill="black"/>
</svg>
