<svg width="23" height="21" viewBox="0 0 23 21" fill="none" xmlns="http://www.w3.org/2000/svg">
<path d="M4.50202 9.42912L10.7172 0.71875L16.9325 9.42912H4.50202ZM16.9325 20.0751C15.5199 20.0751 14.3194 19.6519 13.331 18.8053C12.3426 17.9588 11.848 16.9304 11.8473 15.7199C11.8473 14.5102 12.3419 13.482 13.331 12.6355C14.3202 11.789 15.5207 11.3654 16.9325 11.3648C18.345 11.3648 19.5459 11.7883 20.535 12.6355C21.5242 13.4827 22.0184 14.5108 22.0177 15.7199C22.0177 16.9297 21.5235 17.9582 20.535 18.8053C19.5466 19.6525 18.3458 20.0758 16.9325 20.0751ZM0.546875 19.5912V11.8487H9.58721V19.5912H0.546875ZM16.9325 18.1395C17.7235 18.1395 18.3921 17.9056 18.9383 17.4378C19.4845 16.97 19.7576 16.3974 19.7576 15.7199C19.7576 15.0425 19.4845 14.4698 18.9383 14.0021C18.3921 13.5343 17.7235 13.3004 16.9325 13.3004C16.1414 13.3004 15.4728 13.5343 14.9267 14.0021C14.3805 14.4698 14.1074 15.0425 14.1074 15.7199C14.1074 16.3974 14.3805 16.97 14.9267 17.4378C15.4728 17.9056 16.1414 18.1395 16.9325 18.1395ZM2.80696 17.6556H7.32712V13.7843H2.80696V17.6556ZM8.51367 7.49348H12.9208L10.7172 4.44485L8.51367 7.49348Z" fill="black"/>
</svg>
