<svg width="39" height="39" viewBox="0 0 39 39" fill="none" xmlns="http://www.w3.org/2000/svg">
<path d="M19.5 37C29.1652 37 37 29.1652 37 19.5C37 9.83475 29.1652 2 19.5 2C9.83475 2 2 9.83475 2 19.5C2 29.1652 9.83475 37 19.5 37Z" fill="black" stroke="black" stroke-width="3.33333" stroke-linejoin="round"/>
<path d="M25.625 14.25V15.125ZM13.375 14.25V15.125ZM25.625 25.625C25.625 25.625 23.875 29.125 19.5 29.125C15.125 29.125 13.375 25.625 13.375 25.625" fill="black"/>
<path d="M25.625 14.25V15.125M13.375 14.25V15.125M25.625 25.625C25.625 25.625 23.875 29.125 19.5 29.125C15.125 29.125 13.375 25.625 13.375 25.625" stroke="white" stroke-width="3.33333" stroke-linecap="round" stroke-linejoin="round"/>
</svg>
