<svg width="40" height="55" viewBox="0 0 40 55" fill="none" xmlns="http://www.w3.org/2000/svg">
<path d="M20.271 0.15625C23.0318 0.15625 25.7306 0.954251 28.0261 2.44934C30.3216 3.94443 32.1108 6.06946 33.1673 8.5557C34.2238 11.0419 34.5002 13.7777 33.9616 16.4171C33.423 19.0565 32.0936 21.4809 30.1414 23.3838C28.1892 25.2867 25.702 26.5826 22.9942 27.1076C20.2864 27.6326 17.4798 27.3631 14.9291 26.3333C12.3785 25.3035 10.1984 23.5595 8.66457 21.3219C7.13075 19.0844 6.31207 16.4537 6.31207 13.7626L6.32603 13.1721C6.48214 9.66916 8.01954 6.36016 10.6176 3.93518C13.2157 1.5102 16.6739 0.156453 20.271 0.15625ZM25.8545 32.8116C29.5566 32.8116 33.1071 34.2451 35.7249 36.7968C38.3427 39.3485 39.8134 42.8093 39.8134 46.418V49.1393C39.8134 50.5827 39.2251 51.9671 38.178 52.9877C37.1309 54.0084 35.7107 54.5818 34.2298 54.5818H6.31207C4.83122 54.5818 3.41102 54.0084 2.3639 52.9877C1.31678 51.9671 0.728516 50.5827 0.728516 49.1393V46.418C0.728516 42.8093 2.19918 39.3485 4.81698 36.7968C7.43478 34.2451 10.9853 32.8116 14.6874 32.8116H25.8545Z" fill="#303030"/>
</svg>
