<svg width="53" height="50" viewBox="0 0 53 50" fill="none" xmlns="http://www.w3.org/2000/svg">
<path d="M37.5531 0.382812C33.1201 0.382812 29.1857 2.33336 26.5202 5.68594C23.8546 2.33336 19.9203 0.382812 15.4873 0.382812C11.6262 0.38802 7.92468 2.10006 5.19452 5.14341C2.46436 8.18677 0.9285 12.3129 0.923828 16.6169C0.923828 34.4104 24.2717 48.6275 25.2646 49.2252C25.6505 49.4569 26.0819 49.5782 26.5202 49.5782C26.9584 49.5782 27.3899 49.4569 27.7757 49.2252C28.7687 48.6275 52.1165 34.4104 52.1165 16.6169C52.1118 12.3129 50.576 8.18677 47.8458 5.14341C45.1157 2.10006 41.4141 0.38802 37.5531 0.382812ZM36.3417 35.3992C33.2685 38.3062 29.9833 40.9225 26.5202 43.2211C23.0571 40.9225 19.7719 38.3062 16.6987 35.3992C11.917 30.8266 6.21962 23.8533 6.21962 16.6169C6.21962 13.877 7.19603 11.2493 8.93405 9.31193C10.6721 7.37453 13.0293 6.28611 15.4873 6.28611C19.415 6.28611 22.7028 8.59824 24.0687 12.3222C24.2675 12.8651 24.6068 13.3297 25.0434 13.6567C25.48 13.9837 25.9942 14.1584 26.5202 14.1584C27.0462 14.1584 27.5603 13.9837 27.9969 13.6567C28.4335 13.3297 28.7729 12.8651 28.9717 12.3222C30.3376 8.59824 33.6254 6.28611 37.5531 6.28611C40.011 6.28611 42.3683 7.37453 44.1063 9.31193C45.8443 11.2493 46.8207 13.877 46.8207 16.6169C46.8207 23.8533 41.1233 30.8266 36.3417 35.3992Z" fill="#FF6969"/>
</svg>
