<svg width="43" height="38" viewBox="0 0 43 38" fill="none" xmlns="http://www.w3.org/2000/svg">
<path opacity="0.25" d="M9.58333 37.5833H1.91667C1.40833 37.5833 0.920823 37.4034 0.561379 37.083C0.201934 36.7626 0 36.3281 0 35.875V22.2083C0 21.7553 0.201934 21.3207 0.561379 21.0004C0.920823 20.68 1.40833 20.5 1.91667 20.5H9.58333C10.0917 20.5 10.5792 20.68 10.9386 21.0004C11.2981 21.3207 11.5 21.7553 11.5 22.2083V35.875C11.5 36.3281 11.2981 36.7626 10.9386 37.083C10.5792 37.4034 10.0917 37.5833 9.58333 37.5833Z" fill="black"/>
<path d="M24.9193 37.5833H17.2526C16.7443 37.5833 16.2568 37.4034 15.8973 37.083C15.5379 36.7626 15.3359 36.3281 15.3359 35.875V1.70833C15.3359 1.25526 15.5379 0.820734 15.8973 0.500359C16.2568 0.179985 16.7443 0 17.2526 0H24.9193C25.4276 0 25.9151 0.179985 26.2746 0.500359C26.634 0.820734 26.8359 1.25526 26.8359 1.70833V35.875C26.8359 36.3281 26.634 36.7626 26.2746 37.083C25.9151 37.4034 25.4276 37.5833 24.9193 37.5833Z" fill="black"/>
<path opacity="0.5" d="M40.2552 37.5807H32.5885C32.0802 37.5807 31.5927 37.4007 31.2333 37.0804C30.8738 36.76 30.6719 36.3255 30.6719 35.8724V15.3724C30.6719 14.9193 30.8738 14.4848 31.2333 14.1644C31.5927 13.844 32.0802 13.6641 32.5885 13.6641H40.2552C40.7635 13.6641 41.2511 13.844 41.6105 14.1644C41.9699 14.4848 42.1719 14.9193 42.1719 15.3724V35.8724C42.1719 36.3255 41.9699 36.76 41.6105 37.0804C41.2511 37.4007 40.7635 37.5807 40.2552 37.5807Z" fill="black"/>
</svg>
