<svg width="20" height="20" viewBox="0 0 20 20" fill="none" xmlns="http://www.w3.org/2000/svg">
<path d="M12.6239 3.34601V1.55078M12.6239 3.34601V5.14124M12.6239 3.34601H8.39018M1.33398 8.7317V16.8102C1.33398 17.2864 1.53223 17.743 1.88511 18.0797C2.23799 18.4163 2.71659 18.6055 3.21564 18.6055H16.3872C16.8863 18.6055 17.3649 18.4163 17.7177 18.0797C18.0706 17.743 18.2689 17.2864 18.2689 16.8102V8.7317M1.33398 8.7317H18.2689M1.33398 8.7317V5.14124C1.33398 4.66512 1.53223 4.20849 1.88511 3.87182C2.23799 3.53515 2.71659 3.34601 3.21564 3.34601H5.09729M18.2689 8.7317V5.14124C18.2689 4.66512 18.0706 4.20849 17.7177 3.87182C17.3649 3.53515 16.8863 3.34601 16.3872 3.34601H15.9168M5.09729 1.55078V5.14124" stroke="#535353" stroke-width="1.5" stroke-linecap="round" stroke-linejoin="round"/>
</svg>
