<svg width="38" height="34" viewBox="0 0 38 34" fill="none" xmlns="http://www.w3.org/2000/svg">
<path fill-rule="evenodd" clip-rule="evenodd" d="M11.0523 0.697822C7.84557 0.697822 5.11812 1.84952 3.20615 3.94968C1.31174 6.02726 0.363281 8.87264 0.363281 12.0216C0.363281 17.4916 3.14844 21.85 6.68634 25.2398C10.2092 28.6146 14.6404 31.1815 18.3087 33.101C18.5768 33.2416 18.8748 33.3155 19.1775 33.3164C19.4803 33.3173 19.7787 33.2451 20.0476 33.106C23.7185 31.2066 28.1471 28.6197 31.6725 25.2273C35.2104 21.8274 38.0006 17.4539 38.0006 12.0216C38.0006 8.86009 37.0471 6.01722 35.1502 3.93965C33.2357 1.8445 30.5082 0.695312 27.3116 0.695312C24.6117 0.695312 22.3786 1.69646 20.6799 3.58335C20.0995 4.23741 19.5969 4.95647 19.1819 5.72616C18.767 4.95647 18.2643 4.23741 17.684 3.58335C15.9853 1.69646 13.7521 0.697822 11.0523 0.697822Z" fill="#F20000"/>
</svg>
