<svg width="24" height="24" viewBox="0 0 24 24" fill="none" xmlns="http://www.w3.org/2000/svg">
<path fill-rule="evenodd" clip-rule="evenodd" d="M20.8386 0.0340574C21.1966 -0.0256599 21.5634 -0.0066772 21.9134 0.0896858C22.2634 0.186049 22.5882 0.35748 22.8653 0.592063C23.1423 0.826645 23.365 1.11875 23.5177 1.44807C23.6705 1.7774 23.7497 2.13603 23.7498 2.49906V17.2741C23.7496 18.3747 23.3862 19.4445 22.716 20.3175C22.0458 21.1906 21.1063 21.8181 20.0431 22.1028C18.9799 22.3875 17.8525 22.3134 16.8357 21.8921C15.819 21.4707 14.9696 20.7257 14.4194 19.7724C13.8692 18.8192 13.6489 17.7111 13.7926 16.6199C13.9364 15.5287 14.4362 14.5154 15.2145 13.7372C15.9928 12.959 17.0061 12.4593 18.0973 12.3157C19.1885 12.1721 20.2966 12.3925 21.2498 12.9428V7.49906L8.74981 9.58281V18.5241C8.74981 18.5991 8.74356 18.6703 8.73106 18.7416C8.8208 19.7028 8.59009 20.6667 8.07487 21.4831C7.55965 22.2995 6.78886 22.9226 5.88259 23.2553C4.97631 23.588 3.98545 23.6115 3.06439 23.3223C2.14332 23.0331 1.34378 22.4474 0.790328 21.6564C0.236876 20.8654 -0.0394035 19.9135 0.00453592 18.9491C0.0484753 17.9847 0.410165 17.0619 1.03325 16.3245C1.65634 15.5871 2.50584 15.0765 3.44938 14.8723C4.39293 14.668 5.37754 14.7816 6.24981 15.1953V4.58281C6.24974 3.99101 6.4596 3.41837 6.84208 2.96678C7.22455 2.51518 7.75482 2.21391 8.33856 2.11656L20.8386 0.0340574ZM8.74981 7.04906L21.2498 4.96531V2.49906L8.74981 4.58281V7.04906Z" fill="black"/>
</svg>
