<svg width="25" height="23" viewBox="0 0 25 23" fill="none" xmlns="http://www.w3.org/2000/svg">
<path d="M4.58727 10.1025L11.7958 0L19.0044 10.1025H4.58727ZM19.0044 22.45C17.3661 22.45 15.9738 21.9591 14.8274 20.9773C13.681 19.9955 13.1074 18.8026 13.1065 17.3988C13.1065 15.9956 13.6801 14.8032 14.8274 13.8213C15.9746 12.8395 17.367 12.3482 19.0044 12.3475C20.6427 12.3475 22.0355 12.8388 23.1828 13.8213C24.33 14.8039 24.9032 15.9964 24.9023 17.3988C24.9023 18.8019 24.3292 19.9947 23.1828 20.9773C22.0364 21.9598 20.6436 22.4507 19.0044 22.45ZM0 21.8888V12.9088H10.4852V21.8888H0ZM19.0044 20.205C19.9219 20.205 20.6973 19.9337 21.3308 19.3912C21.9643 18.8486 22.281 18.1845 22.281 17.3988C22.281 16.613 21.9643 15.9489 21.3308 15.4063C20.6973 14.8638 19.9219 14.5925 19.0044 14.5925C18.087 14.5925 17.3115 14.8638 16.678 15.4063C16.0445 15.9489 15.7278 16.613 15.7278 17.3988C15.7278 18.1845 16.0445 18.8486 16.678 19.3912C17.3115 19.9337 18.087 20.205 19.0044 20.205ZM2.6213 19.6438H7.8639V15.1538H2.6213V19.6438ZM9.24008 7.8575H14.3516L11.7958 4.32163L9.24008 7.8575Z" fill="black"/>
</svg>
