<svg width="25" height="20" viewBox="0 0 25 20" fill="none" xmlns="http://www.w3.org/2000/svg">
<path d="M2.5 0L5 5H8.75L6.25 0H8.75L11.25 5H15L12.5 0H15L17.5 5H21.25L18.75 0H22.5C23.1875 0 23.7763 0.245 24.2663 0.735C24.7563 1.225 25.0008 1.81333 25 2.5V17.5C25 18.1875 24.7554 18.7763 24.2663 19.2663C23.7771 19.7563 23.1883 20.0008 22.5 20H2.5C1.8125 20 1.22417 19.7554 0.735 19.2663C0.245833 18.7771 0.000833333 18.1883 0 17.5V2.5C0 1.8125 0.245 1.22417 0.735 0.735C1.225 0.245833 1.81333 0.000833333 2.5 0Z" fill="black"/>
</svg>
