<svg width="27" height="30" viewBox="0 0 27 30" fill="none" xmlns="http://www.w3.org/2000/svg">
<path d="M6.23387 0.84375V1.82837H7.51495V0.84375H6.23387ZM19.0447 0.84375V1.82837H20.3257V0.84375H19.0447ZM5.94919 2.93595V6.75149H20.6104V2.93595H5.94919ZM5.67233 7.85907C3.78153 8.18615 1.89073 8.51299 0 8.84013L0.251305 9.92617L1.2519 9.75312V14.6899H2.53298V9.53158L6.23387 8.89158V11.6746H7.51495V7.85907H5.67233ZM19.0447 7.85907V11.6746H20.3257V8.89158L24.0266 9.53158V14.6899H25.3077V9.75312L26.3083 9.92617L26.5595 8.84013C24.6689 8.51305 22.7781 8.18609 20.8874 7.85907H19.0447ZM6.6609 12.7822L3.81377 14.6285H22.7458L19.8987 12.7822H6.6609ZM1.6906 15.7361L10.1146 20.8348C7.45517 22.5214 4.79529 24.2075 2.13599 25.8941L2.89339 26.7873L4.22735 25.9414L3.65741 27.2229L1.00045 28.8309L1.73508 29.7383L13.2798 22.7505C17.128 25.0798 20.9764 27.4089 24.8245 29.7383L25.5592 28.8309L22.9022 27.2229L22.3323 25.9414L23.6662 26.7873L24.4236 25.8941C21.7642 24.2076 19.1045 22.5212 16.445 20.8348L24.869 15.7361H22.6355L15.3542 20.1432L14.363 19.5146L20.322 15.7361H18.1557L13.2798 18.8278L8.40388 15.7361H6.23764L12.1967 19.5146L11.2055 20.1432L3.92416 15.736L1.6906 15.7361ZM13.2798 20.2014L14.2459 20.814L13.2798 21.3988L12.3137 20.814L13.2798 20.2014ZM11.223 21.5056L12.1631 22.0746L5.53526 26.0862L6.13879 24.7294L11.223 21.5056ZM15.3367 21.5056L20.4208 24.7294L21.0244 26.0862L14.3966 22.0747L15.3367 21.5056Z" fill="black"/>
</svg>
