<svg width="21" height="19" viewBox="0 0 21 19" fill="none" xmlns="http://www.w3.org/2000/svg">
<path d="M0.526855 18.6433C0.373057 18.5882 0.239627 18.4845 0.14518 18.3468C0.0507329 18.2091 -2.0489e-05 18.0441 6.20479e-09 17.8749C6.20479e-09 14.1628 0.716797 11.1941 2.13135 9.05067C3.84033 6.46083 6.53613 5.06637 10.1562 4.89321V0.812429C10.1563 0.653332 10.2012 0.49774 10.2855 0.364954C10.3697 0.232169 10.4896 0.128034 10.6303 0.0654667C10.7709 0.00289978 10.9261 -0.0153452 11.0767 0.0129951C11.2272 0.0413353 11.3664 0.115014 11.477 0.22489L20.0708 8.75614C20.1472 8.832 20.208 8.92318 20.2495 9.02417C20.291 9.12515 20.3124 9.23385 20.3124 9.34368C20.3124 9.45351 20.291 9.56221 20.2495 9.66319C20.208 9.76417 20.1472 9.85536 20.0708 9.93122L11.477 18.4625C11.3664 18.5723 11.2272 18.646 11.0767 18.6744C10.9261 18.7027 10.7709 18.6845 10.6303 18.6219C10.4896 18.5593 10.3697 18.4552 10.2855 18.3224C10.2012 18.1896 10.1563 18.034 10.1562 17.8749V13.8241C7.95898 13.8932 6.29883 14.2634 4.97705 14.9738C3.54883 15.7416 2.51318 16.8888 1.39697 18.3761C1.29684 18.5095 1.15917 18.607 1.00319 18.6551C0.8472 18.7031 0.680678 18.6994 0.526855 18.6443V18.6433Z" fill="#4B4B4B"/>
</svg>
