<svg width="12" height="15" viewBox="0 0 12 15" fill="none" xmlns="http://www.w3.org/2000/svg">
<path d="M5.80147 5.6525H6.85689L6.60047 6.77592H5.52664L5.80147 5.6525ZM0.150391 1.77083C0.150391 1.30118 0.33696 0.850761 0.669056 0.518665C1.00115 0.186569 1.45157 0 1.92122 0H10.0671C10.2996 0 10.5299 0.045804 10.7447 0.134797C10.9596 0.223789 11.1548 0.354228 11.3192 0.518665C11.4837 0.683102 11.6141 0.878317 11.7031 1.09316C11.7921 1.30801 11.8379 1.53828 11.8379 1.77083V11.8646C11.8379 12.0055 11.7819 12.1406 11.6823 12.2402C11.5827 12.3399 11.4475 12.3958 11.3066 12.3958H1.21289C1.21289 12.5837 1.28752 12.7639 1.42036 12.8967C1.5532 13.0295 1.73336 13.1042 1.92122 13.1042H11.3066C11.4475 13.1042 11.5827 13.1601 11.6823 13.2598C11.7819 13.3594 11.8379 13.4945 11.8379 13.6354C11.8379 13.7763 11.7819 13.9114 11.6823 14.0111C11.5827 14.1107 11.4475 14.1667 11.3066 14.1667H1.92122C1.45157 14.1667 1.00115 13.9801 0.669056 13.648C0.33696 13.3159 0.150391 12.8655 0.150391 12.3958V1.77083ZM5.12572 3.94542L4.96777 4.59H4.20914L4.13689 4.59496C4.00971 4.61242 3.89315 4.67534 3.80877 4.77209C3.72439 4.86884 3.6779 4.99287 3.67789 5.12125L3.68285 5.1935C3.70031 5.32068 3.76323 5.43724 3.85998 5.52162C3.95673 5.606 4.08076 5.65249 4.20914 5.6525H4.7071L4.43227 6.77592L3.86843 6.77663L3.79618 6.78158C3.669 6.79904 3.55244 6.86197 3.46806 6.95872C3.38368 7.05547 3.33719 7.1795 3.33718 7.30788L3.34214 7.38012C3.3596 7.50731 3.42252 7.62387 3.51927 7.70825C3.61602 7.79263 3.74006 7.83912 3.86843 7.83913H4.17231L4.08518 8.19754L4.07243 8.26838C4.059 8.3962 4.09236 8.52457 4.16634 8.62968C4.24032 8.73479 4.3499 8.80951 4.47477 8.84L4.5456 8.85275C4.67343 8.86619 4.8018 8.83282 4.9069 8.75884C5.01201 8.68486 5.08674 8.57528 5.11722 8.45042L5.26597 7.83842H6.3561L6.27252 8.20533L6.26118 8.27617C6.24955 8.40425 6.28478 8.5322 6.36034 8.63628C6.43589 8.74036 6.54663 8.8135 6.67202 8.84212L6.74285 8.85346C6.87093 8.86509 6.99889 8.82986 7.10296 8.7543C7.20704 8.67875 7.28018 8.56801 7.30881 8.44262L7.44622 7.83842L8.11206 7.83913L8.18431 7.83417C8.31162 7.81686 8.42835 7.75401 8.51287 7.65724C8.5974 7.56048 8.64399 7.43636 8.64402 7.30788L8.63906 7.23562C8.6216 7.10844 8.55867 6.99188 8.46192 6.9075C8.36517 6.82312 8.24114 6.77663 8.11277 6.77663H7.68989L7.94702 5.6525H8.45702L8.52927 5.64754C8.65645 5.63008 8.77301 5.56716 8.85739 5.47041C8.94177 5.37366 8.98826 5.24963 8.98826 5.12125L8.98331 5.04971C8.966 4.9224 8.90315 4.80567 8.80638 4.72114C8.70962 4.63662 8.5855 4.59003 8.45702 4.59H8.19068L8.28277 4.1905L8.2941 4.11967C8.30555 3.9917 8.27023 3.86392 8.1947 3.75999C8.11916 3.65606 8.00852 3.58303 7.88327 3.55442L7.81243 3.54308C7.68446 3.53163 7.55668 3.56695 7.45275 3.64249C7.34883 3.71802 7.27579 3.82866 7.24718 3.95392L7.10056 4.59H6.06072L6.15706 4.19829L6.16981 4.12746C6.18452 3.99313 6.1475 3.85824 6.06627 3.75025C5.98504 3.64226 5.8657 3.56928 5.73256 3.54617C5.59942 3.52307 5.46248 3.55156 5.34961 3.62587C5.23674 3.70017 5.15642 3.81469 5.12502 3.94612" fill="#5E5E5E"/>
</svg>
