<svg width="19" height="17" viewBox="0 0 19 17" fill="none" xmlns="http://www.w3.org/2000/svg">
<path d="M15.5215 5.72655C15.5215 5.9006 15.4523 6.06751 15.3293 6.19058C15.2062 6.31365 15.0393 6.38279 14.8652 6.38279C14.6912 6.38279 14.5243 6.31365 14.4012 6.19058C14.2781 6.06751 14.209 5.9006 14.209 5.72655C14.209 5.55251 14.2781 5.38559 14.4012 5.26252C14.5243 5.13945 14.6912 5.07031 14.8652 5.07031C15.0393 5.07031 15.2062 5.13945 15.3293 5.26252C15.4523 5.38559 15.5215 5.55251 15.5215 5.72655Z" fill="black"/>
<path d="M15.5215 5.7265C15.5215 5.90054 15.4523 6.06746 15.3293 6.19053C15.2062 6.31359 15.0393 6.38273 14.8652 6.38273C14.6912 6.38273 14.5243 6.31359 14.4012 6.19053C14.2781 6.06746 14.209 5.90054 14.209 5.7265C14.209 5.55245 14.2781 5.38553 14.4012 5.26247C14.5243 5.1394 14.6912 5.07026 14.8652 5.07026C15.0393 5.07026 15.2062 5.1394 15.3293 5.26247C15.4523 5.38553 15.5215 5.55245 15.5215 5.7265ZM15.5215 5.7265V2.4453C15.5215 2.32927 15.5676 2.218 15.6496 2.13595C15.7316 2.05391 15.8429 2.00781 15.959 2.00781H17.1256" stroke="black" stroke-width="2" stroke-linecap="round"/>
<path d="M12.0208 12.2135C11.634 12.2135 11.2631 12.0598 10.9896 11.7864C10.7161 11.5129 10.5625 11.1419 10.5625 10.7552C10.5625 10.3684 10.7161 9.99749 10.9896 9.724C11.2631 9.45052 11.634 9.29687 12.0208 9.29688C12.4076 9.29687 12.7785 9.45052 13.052 9.724C13.3255 9.99749 13.4791 10.3684 13.4791 10.7552C13.4791 11.1419 13.3255 11.5129 13.052 11.7864C12.7785 12.0598 12.4076 12.2135 12.0208 12.2135Z" stroke="black" stroke-width="2" stroke-linecap="round" stroke-linejoin="round"/>
<path d="M16.3591 9.30195C15.9938 12.9864 12.8847 15.8643 9.10404 15.8643C5.07692 15.8643 1.8125 12.5999 1.8125 8.57279C1.8125 4.54568 5.07692 1.28126 9.10404 1.28126C10.1077 1.27997 11.1007 1.48653 12.0206 1.88791" stroke="black" stroke-width="2" stroke-linecap="round" stroke-linejoin="round"/>
<path d="M6.55403 6.3854C6.45734 6.3854 6.36461 6.34699 6.29623 6.27862C6.22786 6.21025 6.18945 6.11752 6.18945 6.02083C6.18945 5.92413 6.22786 5.8314 6.29623 5.76303C6.36461 5.69466 6.45734 5.65625 6.55403 5.65625C6.65072 5.65625 6.74345 5.69466 6.81182 5.76303C6.8802 5.8314 6.91861 5.92413 6.91861 6.02083C6.91861 6.11752 6.8802 6.21025 6.81182 6.27862C6.74345 6.34699 6.65072 6.3854 6.55403 6.3854ZM11.6581 6.3854C11.5614 6.3854 11.4687 6.34699 11.4003 6.27862C11.3319 6.21025 11.2935 6.11752 11.2935 6.02083C11.2935 5.92413 11.3319 5.8314 11.4003 5.76303C11.4687 5.69466 11.5614 5.65625 11.6581 5.65625C11.7548 5.65625 11.8475 5.69466 11.9159 5.76303C11.9843 5.8314 12.0227 5.92413 12.0227 6.02083C12.0227 6.11752 11.9843 6.21025 11.9159 6.27862C11.8475 6.34699 11.7548 6.3854 11.6581 6.3854Z" fill="black" stroke="black" stroke-width="2" stroke-linecap="round" stroke-linejoin="round"/>
</svg>
