<svg width="18" height="17" viewBox="0 0 18 17" fill="none" xmlns="http://www.w3.org/2000/svg">
<path d="M15.1699 5.72655C15.1699 5.9006 15.1008 6.06751 14.9777 6.19058C14.8546 6.31365 14.6877 6.38279 14.5137 6.38279C14.3396 6.38279 14.1727 6.31365 14.0496 6.19058C13.9266 6.06751 13.8574 5.9006 13.8574 5.72655C13.8574 5.55251 13.9266 5.38559 14.0496 5.26252C14.1727 5.13945 14.3396 5.07031 14.5137 5.07031C14.6877 5.07031 14.8546 5.13945 14.9777 5.26252C15.1008 5.38559 15.1699 5.55251 15.1699 5.72655Z" fill="black"/>
<path d="M15.1699 5.7265C15.1699 5.90054 15.1008 6.06746 14.9777 6.19053C14.8546 6.31359 14.6877 6.38273 14.5137 6.38273C14.3396 6.38273 14.1727 6.31359 14.0496 6.19053C13.9266 6.06746 13.8574 5.90054 13.8574 5.7265C13.8574 5.55245 13.9266 5.38553 14.0496 5.26247C14.1727 5.1394 14.3396 5.07026 14.5137 5.07026C14.6877 5.07026 14.8546 5.1394 14.9777 5.26247C15.1008 5.38553 15.1699 5.55245 15.1699 5.7265ZM15.1699 5.7265V2.4453C15.1699 2.32927 15.216 2.218 15.298 2.13595C15.3801 2.05391 15.4914 2.00781 15.6074 2.00781H16.774" stroke="black" stroke-width="2" stroke-linecap="round"/>
<path d="M11.6692 12.2135C11.2825 12.2135 10.9116 12.0598 10.6381 11.7864C10.3646 11.5129 10.2109 11.1419 10.2109 10.7552C10.2109 10.3684 10.3646 9.99749 10.6381 9.724C10.9116 9.45052 11.2825 9.29687 11.6692 9.29688C12.056 9.29687 12.4269 9.45052 12.7004 9.724C12.9739 9.99749 13.1276 10.3684 13.1276 10.7552C13.1276 11.1419 12.9739 11.5129 12.7004 11.7864C12.4269 12.0598 12.056 12.2135 11.6692 12.2135Z" stroke="black" stroke-width="2" stroke-linecap="round" stroke-linejoin="round"/>
<path d="M16.0076 9.30195C15.6422 12.9864 12.5331 15.8643 8.75247 15.8643C4.72536 15.8643 1.46094 12.5999 1.46094 8.57279C1.46094 4.54568 4.72536 1.28126 8.75247 1.28126C9.75613 1.27997 10.7492 1.48653 11.6691 1.88791" stroke="black" stroke-width="2" stroke-linecap="round" stroke-linejoin="round"/>
<path d="M6.20247 6.3854C6.10578 6.3854 6.01304 6.34699 5.94467 6.27862C5.8763 6.21025 5.83789 6.11752 5.83789 6.02083C5.83789 5.92413 5.8763 5.8314 5.94467 5.76303C6.01304 5.69466 6.10578 5.65625 6.20247 5.65625C6.29916 5.65625 6.39189 5.69466 6.46026 5.76303C6.52863 5.8314 6.56704 5.92413 6.56704 6.02083C6.56704 6.11752 6.52863 6.21025 6.46026 6.27862C6.39189 6.34699 6.29916 6.3854 6.20247 6.3854ZM11.3065 6.3854C11.2099 6.3854 11.1171 6.34699 11.0487 6.27862C10.9804 6.21025 10.942 6.11752 10.942 6.02083C10.942 5.92413 10.9804 5.8314 11.0487 5.76303C11.1171 5.69466 11.2099 5.65625 11.3065 5.65625C11.4032 5.65625 11.496 5.69466 11.5643 5.76303C11.6327 5.8314 11.6711 5.92413 11.6711 6.02083C11.6711 6.11752 11.6327 6.21025 11.5643 6.27862C11.496 6.34699 11.4032 6.3854 11.3065 6.3854Z" fill="black" stroke="black" stroke-width="2" stroke-linecap="round" stroke-linejoin="round"/>
</svg>
