<svg width="18" height="17" viewBox="0 0 18 17" fill="none" xmlns="http://www.w3.org/2000/svg">
<path d="M14.914 5.72655C14.914 5.9006 14.8449 6.06751 14.7218 6.19058C14.5988 6.31365 14.4318 6.38279 14.2578 6.38279C14.0838 6.38279 13.9168 6.31365 13.7938 6.19058C13.6707 6.06751 13.6016 5.9006 13.6016 5.72655C13.6016 5.55251 13.6707 5.38559 13.7938 5.26252C13.9168 5.13945 14.0838 5.07031 14.2578 5.07031C14.4318 5.07031 14.5988 5.13945 14.7218 5.26252C14.8449 5.38559 14.914 5.55251 14.914 5.72655Z" fill="black"/>
<path d="M14.914 5.7265C14.914 5.90054 14.8449 6.06746 14.7218 6.19053C14.5988 6.31359 14.4318 6.38273 14.2578 6.38273C14.0838 6.38273 13.9168 6.31359 13.7938 6.19053C13.6707 6.06746 13.6016 5.90054 13.6016 5.7265C13.6016 5.55245 13.6707 5.38553 13.7938 5.26247C13.9168 5.1394 14.0838 5.07026 14.2578 5.07026C14.4318 5.07026 14.5988 5.1394 14.7218 5.26247C14.8449 5.38553 14.914 5.55245 14.914 5.7265ZM14.914 5.7265V2.4453C14.914 2.32927 14.9601 2.218 15.0422 2.13595C15.1242 2.05391 15.2355 2.00781 15.3515 2.00781H16.5182" stroke="black" stroke-width="2" stroke-linecap="round"/>
<path d="M11.4134 12.2135C11.0266 12.2135 10.6557 12.0598 10.3822 11.7864C10.1087 11.5129 9.95508 11.1419 9.95508 10.7552C9.95508 10.3684 10.1087 9.99749 10.3822 9.724C10.6557 9.45052 11.0266 9.29687 11.4134 9.29688C11.8002 9.29687 12.1711 9.45052 12.4446 9.724C12.718 9.99749 12.8717 10.3684 12.8717 10.7552C12.8717 11.1419 12.718 11.5129 12.4446 11.7864C12.1711 12.0598 11.8002 12.2135 11.4134 12.2135Z" stroke="black" stroke-width="2" stroke-linecap="round" stroke-linejoin="round"/>
<path d="M15.7517 9.30195C15.3864 12.9864 12.2773 15.8643 8.49661 15.8643C4.4695 15.8643 1.20508 12.5999 1.20508 8.57279C1.20508 4.54568 4.4695 1.28126 8.49661 1.28126C9.50027 1.27997 10.4933 1.48653 11.4132 1.88791" stroke="black" stroke-width="2" stroke-linecap="round" stroke-linejoin="round"/>
<path d="M5.94661 6.3854C5.84992 6.3854 5.75718 6.34699 5.68881 6.27862C5.62044 6.21025 5.58203 6.11752 5.58203 6.02083C5.58203 5.92413 5.62044 5.8314 5.68881 5.76303C5.75718 5.69466 5.84992 5.65625 5.94661 5.65625C6.0433 5.65625 6.13603 5.69466 6.2044 5.76303C6.27277 5.8314 6.31118 5.92413 6.31118 6.02083C6.31118 6.11752 6.27277 6.21025 6.2044 6.27862C6.13603 6.34699 6.0433 6.3854 5.94661 6.3854ZM11.0507 6.3854C10.954 6.3854 10.8613 6.34699 10.7929 6.27862C10.7245 6.21025 10.6861 6.11752 10.6861 6.02083C10.6861 5.92413 10.7245 5.8314 10.7929 5.76303C10.8613 5.69466 10.954 5.65625 11.0507 5.65625C11.1474 5.65625 11.2401 5.69466 11.3085 5.76303C11.3768 5.8314 11.4153 5.92413 11.4153 6.02083C11.4153 6.11752 11.3768 6.21025 11.3085 6.27862C11.2401 6.34699 11.1474 6.3854 11.0507 6.3854Z" fill="black" stroke="black" stroke-width="2" stroke-linecap="round" stroke-linejoin="round"/>
</svg>
