<svg width="18" height="18" viewBox="0 0 18 18" fill="none" xmlns="http://www.w3.org/2000/svg">
<path d="M14.916 5.92968C14.916 6.10372 14.8469 6.27064 14.7238 6.39371C14.6007 6.51677 14.4338 6.58591 14.2598 6.58591C14.0857 6.58591 13.9188 6.51677 13.7957 6.39371C13.6727 6.27064 13.6035 6.10372 13.6035 5.92968C13.6035 5.75563 13.6727 5.58871 13.7957 5.46565C13.9188 5.34258 14.0857 5.27344 14.2598 5.27344C14.4338 5.27344 14.6007 5.34258 14.7238 5.46565C14.8469 5.58871 14.916 5.75563 14.916 5.92968Z" fill="black"/>
<path d="M14.916 5.92962C14.916 6.10367 14.8469 6.27058 14.7238 6.39365C14.6007 6.51672 14.4338 6.58586 14.2598 6.58586C14.0857 6.58586 13.9188 6.51672 13.7957 6.39365C13.6727 6.27058 13.6035 6.10367 13.6035 5.92962C13.6035 5.75558 13.6727 5.58866 13.7957 5.46559C13.9188 5.34252 14.0857 5.27338 14.2598 5.27338C14.4338 5.27338 14.6007 5.34252 14.7238 5.46559C14.8469 5.58866 14.916 5.75558 14.916 5.92962ZM14.916 5.92962V2.64843C14.916 2.5324 14.9621 2.42112 15.0441 2.33908C15.1262 2.25703 15.2375 2.21094 15.3535 2.21094H16.5201" stroke="black" stroke-width="2" stroke-linecap="round"/>
<path d="M11.4153 12.4166C11.0286 12.4166 10.6576 12.263 10.3842 11.9895C10.1107 11.716 9.95703 11.3451 9.95703 10.9583C9.95703 10.5715 10.1107 10.2006 10.3842 9.92713C10.6576 9.65364 11.0286 9.5 11.4153 9.5C11.8021 9.5 12.173 9.65364 12.4465 9.92713C12.72 10.2006 12.8736 10.5715 12.8736 10.9583C12.8736 11.3451 12.72 11.716 12.4465 11.9895C12.173 12.263 11.8021 12.4166 11.4153 12.4166Z" stroke="black" stroke-width="2" stroke-linecap="round" stroke-linejoin="round"/>
<path d="M15.7536 9.50507C15.3883 13.1895 12.2792 16.0675 8.49857 16.0675C4.47145 16.0675 1.20703 12.803 1.20703 8.77592C1.20703 4.7488 4.47145 1.48438 8.49857 1.48438C9.50223 1.4831 10.4953 1.68965 11.4152 2.09104" stroke="black" stroke-width="2" stroke-linecap="round" stroke-linejoin="round"/>
<path d="M5.94856 6.58853C5.85187 6.58853 5.75914 6.55012 5.69077 6.48175C5.62239 6.41338 5.58398 6.32064 5.58398 6.22395C5.58398 6.12726 5.62239 6.03453 5.69077 5.96616C5.75914 5.89779 5.85187 5.85938 5.94856 5.85938C6.04525 5.85938 6.13798 5.89779 6.20636 5.96616C6.27473 6.03453 6.31314 6.12726 6.31314 6.22395C6.31314 6.32064 6.27473 6.41338 6.20636 6.48175C6.13798 6.55012 6.04525 6.58853 5.94856 6.58853ZM11.0526 6.58853C10.9559 6.58853 10.8632 6.55012 10.7948 6.48175C10.7265 6.41338 10.6881 6.32064 10.6881 6.22395C10.6881 6.12726 10.7265 6.03453 10.7948 5.96616C10.8632 5.89779 10.9559 5.85938 11.0526 5.85938C11.1493 5.85938 11.2421 5.89779 11.3104 5.96616C11.3788 6.03453 11.4172 6.12726 11.4172 6.22395C11.4172 6.32064 11.3788 6.41338 11.3104 6.48175C11.2421 6.55012 11.1493 6.58853 11.0526 6.58853Z" fill="black" stroke="black" stroke-width="2" stroke-linecap="round" stroke-linejoin="round"/>
</svg>
