<svg width="18" height="17" viewBox="0 0 18 17" fill="none" xmlns="http://www.w3.org/2000/svg">
<path d="M15.2011 5.72655C15.2011 5.9006 15.132 6.06751 15.0089 6.19058C14.8859 6.31365 14.719 6.38279 14.5449 6.38279C14.3709 6.38279 14.2039 6.31365 14.0809 6.19058C13.9578 6.06751 13.8887 5.9006 13.8887 5.72655C13.8887 5.55251 13.9578 5.38559 14.0809 5.26252C14.2039 5.13945 14.3709 5.07031 14.5449 5.07031C14.719 5.07031 14.8859 5.13945 15.0089 5.26252C15.132 5.38559 15.2011 5.55251 15.2011 5.72655Z" fill="black"/>
<path d="M15.2011 5.7265C15.2011 5.90054 15.132 6.06746 15.0089 6.19053C14.8859 6.31359 14.719 6.38273 14.5449 6.38273C14.3709 6.38273 14.2039 6.31359 14.0809 6.19053C13.9578 6.06746 13.8887 5.90054 13.8887 5.7265C13.8887 5.55245 13.9578 5.38553 14.0809 5.26247C14.2039 5.1394 14.3709 5.07026 14.5449 5.07026C14.719 5.07026 14.8859 5.1394 15.0089 5.26247C15.132 5.38553 15.2011 5.55245 15.2011 5.7265ZM15.2011 5.7265V2.4453C15.2011 2.32927 15.2472 2.218 15.3293 2.13595C15.4113 2.05391 15.5226 2.00781 15.6386 2.00781H16.8053" stroke="black" stroke-width="2" stroke-linecap="round"/>
<path d="M11.7005 12.2135C11.3137 12.2135 10.9428 12.0598 10.6693 11.7864C10.3958 11.5129 10.2422 11.1419 10.2422 10.7552C10.2422 10.3684 10.3958 9.99749 10.6693 9.724C10.9428 9.45052 11.3137 9.29687 11.7005 9.29688C12.0873 9.29687 12.4582 9.45052 12.7317 9.724C13.0052 9.99749 13.1588 10.3684 13.1588 10.7552C13.1588 11.1419 13.0052 11.5129 12.7317 11.7864C12.4582 12.0598 12.0873 12.2135 11.7005 12.2135Z" stroke="black" stroke-width="2" stroke-linecap="round" stroke-linejoin="round"/>
<path d="M16.0388 9.30195C15.6735 12.9864 12.5644 15.8643 8.78372 15.8643C4.75661 15.8643 1.49219 12.5999 1.49219 8.57279C1.49219 4.54568 4.75661 1.28126 8.78372 1.28126C9.78738 1.27997 10.7804 1.48653 11.7003 1.88791" stroke="black" stroke-width="2" stroke-linecap="round" stroke-linejoin="round"/>
<path d="M6.23372 6.3854C6.13703 6.3854 6.04429 6.34699 5.97592 6.27862C5.90755 6.21025 5.86914 6.11752 5.86914 6.02083C5.86914 5.92413 5.90755 5.8314 5.97592 5.76303C6.04429 5.69466 6.13703 5.65625 6.23372 5.65625C6.33041 5.65625 6.42314 5.69466 6.49151 5.76303C6.55988 5.8314 6.59829 5.92413 6.59829 6.02083C6.59829 6.11752 6.55988 6.21025 6.49151 6.27862C6.42314 6.34699 6.33041 6.3854 6.23372 6.3854ZM11.3378 6.3854C11.2411 6.3854 11.1484 6.34699 11.08 6.27862C11.0116 6.21025 10.9732 6.11752 10.9732 6.02083C10.9732 5.92413 11.0116 5.8314 11.08 5.76303C11.1484 5.69466 11.2411 5.65625 11.3378 5.65625C11.4345 5.65625 11.5272 5.69466 11.5956 5.76303C11.664 5.8314 11.7024 5.92413 11.7024 6.02083C11.7024 6.11752 11.664 6.21025 11.5956 6.27862C11.5272 6.34699 11.4345 6.3854 11.3378 6.3854Z" fill="black" stroke="black" stroke-width="2" stroke-linecap="round" stroke-linejoin="round"/>
</svg>
