<svg width="18" height="17" viewBox="0 0 18 17" fill="none" xmlns="http://www.w3.org/2000/svg">
<path d="M15.0156 5.72655C15.0156 5.9006 14.9465 6.06751 14.8234 6.19058C14.7003 6.31365 14.5334 6.38279 14.3594 6.38279C14.1853 6.38279 14.0184 6.31365 13.8953 6.19058C13.7723 6.06751 13.7031 5.9006 13.7031 5.72655C13.7031 5.55251 13.7723 5.38559 13.8953 5.26252C14.0184 5.13945 14.1853 5.07031 14.3594 5.07031C14.5334 5.07031 14.7003 5.13945 14.8234 5.26252C14.9465 5.38559 15.0156 5.55251 15.0156 5.72655Z" fill="black"/>
<path d="M15.0156 5.7265C15.0156 5.90054 14.9465 6.06746 14.8234 6.19053C14.7003 6.31359 14.5334 6.38273 14.3594 6.38273C14.1853 6.38273 14.0184 6.31359 13.8953 6.19053C13.7723 6.06746 13.7031 5.90054 13.7031 5.7265C13.7031 5.55245 13.7723 5.38553 13.8953 5.26247C14.0184 5.1394 14.1853 5.07026 14.3594 5.07026C14.5334 5.07026 14.7003 5.1394 14.8234 5.26247C14.9465 5.38553 15.0156 5.55245 15.0156 5.7265ZM15.0156 5.7265V2.4453C15.0156 2.32927 15.0617 2.218 15.1437 2.13595C15.2258 2.05391 15.3371 2.00781 15.4531 2.00781H16.6197" stroke="black" stroke-width="2" stroke-linecap="round"/>
<path d="M11.5149 12.2135C11.1282 12.2135 10.7573 12.0598 10.4838 11.7864C10.2103 11.5129 10.0566 11.1419 10.0566 10.7552C10.0566 10.3684 10.2103 9.99749 10.4838 9.724C10.7573 9.45052 11.1282 9.29687 11.5149 9.29688C11.9017 9.29687 12.2726 9.45052 12.5461 9.724C12.8196 9.99749 12.9733 10.3684 12.9733 10.7552C12.9733 11.1419 12.8196 11.5129 12.5461 11.7864C12.2726 12.0598 11.9017 12.2135 11.5149 12.2135Z" stroke="black" stroke-width="2" stroke-linecap="round" stroke-linejoin="round"/>
<path d="M15.8533 9.30195C15.4879 12.9864 12.3788 15.8643 8.59818 15.8643C4.57106 15.8643 1.30664 12.5999 1.30664 8.57279C1.30664 4.54568 4.57106 1.28126 8.59818 1.28126C9.60183 1.27997 10.5949 1.48653 11.5148 1.88791" stroke="black" stroke-width="2" stroke-linecap="round" stroke-linejoin="round"/>
<path d="M6.04817 6.3854C5.95148 6.3854 5.85875 6.34699 5.79038 6.27862C5.722 6.21025 5.68359 6.11752 5.68359 6.02083C5.68359 5.92413 5.722 5.8314 5.79038 5.76303C5.85875 5.69466 5.95148 5.65625 6.04817 5.65625C6.14486 5.65625 6.23759 5.69466 6.30597 5.76303C6.37434 5.8314 6.41275 5.92413 6.41275 6.02083C6.41275 6.11752 6.37434 6.21025 6.30597 6.27862C6.23759 6.34699 6.14486 6.3854 6.04817 6.3854ZM11.1522 6.3854C11.0556 6.3854 10.9628 6.34699 10.8945 6.27862C10.8261 6.21025 10.7877 6.11752 10.7877 6.02083C10.7877 5.92413 10.8261 5.8314 10.8945 5.76303C10.9628 5.69466 11.0556 5.65625 11.1522 5.65625C11.2489 5.65625 11.3417 5.69466 11.41 5.76303C11.4784 5.8314 11.5168 5.92413 11.5168 6.02083C11.5168 6.11752 11.4784 6.21025 11.41 6.27862C11.3417 6.34699 11.2489 6.3854 11.1522 6.3854Z" fill="black" stroke="black" stroke-width="2" stroke-linecap="round" stroke-linejoin="round"/>
</svg>
