<svg width="17" height="13" viewBox="0 0 17 13" fill="none" xmlns="http://www.w3.org/2000/svg">
<path d="M2.29121 0.609375L3.83047 3.68789H6.13935L4.6001 0.609375H6.13935L7.67861 3.68789H9.9875L8.44824 0.609375H9.9875L11.5268 3.68789H13.8356L12.2964 0.609375H14.6053C15.0286 0.609375 15.3911 0.760222 15.6928 1.06192C15.9945 1.36361 16.145 1.72585 16.1445 2.14863V11.3842C16.1445 11.8075 15.9939 12.17 15.6928 12.4717C15.3916 12.7734 15.0291 12.9239 14.6053 12.9234H2.29121C1.86791 12.9234 1.50568 12.7728 1.20449 12.4717C0.903313 12.1705 0.752466 11.808 0.751953 11.3842V2.14863C0.751953 1.72534 0.9028 1.3631 1.20449 1.06192C1.50619 0.760735 1.86843 0.609888 2.29121 0.609375Z" fill="black"/>
</svg>
