<svg width="17" height="16" viewBox="0 0 17 16" fill="none" xmlns="http://www.w3.org/2000/svg">
<path d="M13.5043 0.293355C13.8649 0.101932 14.3188 0.224562 14.5178 0.571516L14.667 0.831732C15.267 1.8696 15.2826 3.09591 14.7727 4.12181C15.6028 4.97724 16.1064 6.12278 16.1064 7.38199C16.1064 7.93532 16.01 8.46771 15.8297 8.96123C15.6401 9.47867 14.9437 9.44876 14.6857 8.95824L14.3219 8.25834C14.1945 8.01607 13.9365 7.86054 13.6536 7.86054H11.381C10.9676 7.86054 10.6349 7.54051 10.6349 7.14271V4.74992C10.6349 4.35212 10.3023 4.03208 9.88883 4.03208H9.35723C8.69506 4.03208 8.4246 3.31724 9.02148 3.04805C9.66189 2.75793 10.3769 2.59641 11.1323 2.59641C12.0121 2.59641 12.8359 2.81475 13.551 3.20059C13.7219 2.65623 13.666 2.05205 13.3644 1.53162L13.2152 1.27141C13.0163 0.924452 13.1437 0.487768 13.5043 0.296345V0.293355ZM5.51167 10.5375L8.39662 4.9892H9.64013V7.38199C9.64013 8.1746 10.3085 8.81766 11.1323 8.81766H13.5012L14.2442 10.2473C11.7634 13.4806 7.78419 15.5175 3.39771 15.5175H1.56975C0.808099 15.5175 0.189453 14.9223 0.189453 14.1895C0.189453 13.5673 0.640225 13.029 1.27131 12.8944L2.81948 12.5624C3.98837 12.3111 4.98007 11.5694 5.51478 10.5375H5.51167Z" fill="black"/>
</svg>
