<svg width="16" height="13" viewBox="0 0 16 13" fill="none" xmlns="http://www.w3.org/2000/svg">
<path d="M1.99043 0.609375L3.52969 3.68789H5.83857L4.29932 0.609375H5.83857L7.37783 3.68789H9.68672L8.14746 0.609375H9.68672L11.226 3.68789H13.5349L11.9956 0.609375H14.3045C14.7278 0.609375 15.0903 0.760222 15.392 1.06192C15.6937 1.36361 15.8443 1.72585 15.8437 2.14863V11.3842C15.8437 11.8075 15.6932 12.17 15.392 12.4717C15.0908 12.7734 14.7283 12.9239 14.3045 12.9234H1.99043C1.56713 12.9234 1.2049 12.7728 0.903714 12.4717C0.602532 12.1705 0.451685 11.808 0.451172 11.3842V2.14863C0.451172 1.72534 0.602019 1.3631 0.903714 1.06192C1.20541 0.760735 1.56765 0.609888 1.99043 0.609375Z" fill="black"/>
</svg>
