<svg width="13" height="15" viewBox="0 0 13 15" fill="none" xmlns="http://www.w3.org/2000/svg">
<path d="M6.31124 6.29312H7.36666L7.11024 7.41654H6.03641L6.31124 6.29312ZM0.660156 2.41146C0.660156 1.9418 0.846726 1.49139 1.17882 1.15929C1.51092 0.827194 1.96134 0.640625 2.43099 0.640625H10.5768C10.8094 0.640625 11.0396 0.686429 11.2545 0.775422C11.4693 0.864414 11.6646 0.994853 11.829 1.15929C11.9934 1.32373 12.1239 1.51894 12.2129 1.73379C12.3019 1.94864 12.3477 2.17891 12.3477 2.41146V12.5052C12.3477 12.6461 12.2917 12.7812 12.1921 12.8809C12.0924 12.9805 11.9573 13.0365 11.8164 13.0365H1.72266C1.72266 13.2243 1.79728 13.4045 1.93012 13.5373C2.06296 13.6702 2.24313 13.7448 2.43099 13.7448H11.8164C11.9573 13.7448 12.0924 13.8008 12.1921 13.9004C12.2917 14 12.3477 14.1351 12.3477 14.276C12.3477 14.4169 12.2917 14.5521 12.1921 14.6517C12.0924 14.7513 11.9573 14.8073 11.8164 14.8073H2.43099C1.96134 14.8073 1.51092 14.6207 1.17882 14.2886C0.846726 13.9565 0.660156 13.5061 0.660156 13.0365V2.41146ZM5.63549 4.58604L5.47753 5.23062H4.71891L4.64666 5.23558C4.51947 5.25304 4.40291 5.31597 4.31853 5.41272C4.23415 5.50947 4.18766 5.6335 4.18766 5.76187L4.19261 5.83412C4.21007 5.96131 4.273 6.07787 4.36975 6.16225C4.4665 6.24663 4.59053 6.29312 4.71891 6.29312H5.21686L4.94203 7.41654L4.3782 7.41725L4.30595 7.42221C4.17876 7.43967 4.0622 7.50259 3.97782 7.59934C3.89344 7.69609 3.84695 7.82012 3.84695 7.9485L3.85191 8.02075C3.86937 8.14793 3.93229 8.26449 4.02904 8.34887C4.12579 8.43325 4.24982 8.47974 4.3782 8.47975H4.68207L4.59495 8.83817L4.5822 8.909C4.56876 9.03683 4.60213 9.1652 4.67611 9.27031C4.75009 9.37541 4.85966 9.45014 4.98453 9.48062L5.05536 9.49337C5.18319 9.50681 5.31156 9.47345 5.41667 9.39947C5.52178 9.32549 5.5965 9.21591 5.62699 9.09104L5.77574 8.47904H6.86586L6.78228 8.84596L6.77095 8.91679C6.75932 9.04487 6.79455 9.17283 6.8701 9.27691C6.94565 9.38099 7.0564 9.45412 7.18178 9.48275L7.25261 9.49408C7.3807 9.50571 7.50865 9.47048 7.61273 9.39493C7.71681 9.31938 7.78995 9.20863 7.81857 9.08325L7.95599 8.47904L8.62182 8.47975L8.69407 8.47479C8.82139 8.45749 8.93811 8.39463 9.02264 8.29787C9.10716 8.2011 9.15375 8.07698 9.15378 7.9485L9.14882 7.87625C9.13136 7.74907 9.06844 7.63251 8.97169 7.54813C8.87494 7.46375 8.75091 7.41726 8.62253 7.41725H8.19966L8.45678 6.29312H8.96678L9.03903 6.28817C9.16622 6.27071 9.28277 6.20778 9.36715 6.11103C9.45153 6.01428 9.49803 5.89025 9.49803 5.76187L9.49307 5.69033C9.47577 5.56302 9.41292 5.44629 9.31615 5.36177C9.21938 5.27724 9.09526 5.23065 8.96678 5.23062H8.70045L8.79253 4.83112L8.80386 4.76029C8.81531 4.63232 8.78 4.50454 8.70446 4.40061C8.62893 4.29669 8.51828 4.22365 8.39303 4.19504L8.3222 4.18371C8.19423 4.17226 8.06645 4.20757 7.96252 4.28311C7.85859 4.35865 7.78556 4.46929 7.75695 4.59454L7.61032 5.23062H6.57049L6.66682 4.83892L6.67957 4.76808C6.69429 4.63375 6.65726 4.49887 6.57603 4.39088C6.4948 4.28288 6.37547 4.20991 6.24233 4.1868C6.10919 4.16369 5.97224 4.19219 5.85937 4.26649C5.7465 4.34079 5.66619 4.45532 5.63478 4.58675" fill="#5E5E5E"/>
</svg>
