<svg width="16" height="17" viewBox="0 0 16 17" fill="none" xmlns="http://www.w3.org/2000/svg">
<path d="M4.11708 0.914062V1.44558H4.80863V0.914062H4.11708ZM11.0325 0.914062V1.44558H11.7241V0.914062H11.0325ZM3.96341 2.04346V4.10314H11.8777V2.04346H3.96341ZM3.81395 4.70103C2.79327 4.87759 1.77259 5.05402 0.751953 5.23062L0.887611 5.81687L1.42774 5.72346V8.3884H2.11929V5.60387L4.11708 5.25839V6.76071H4.80863V4.70103H3.81395ZM11.0325 4.70103V6.76071H11.7241V5.25839L13.7219 5.60387V8.3884H14.4134V5.72346L14.9535 5.81687L15.0892 5.23062C14.0685 5.05405 13.0479 4.87756 12.0272 4.70103H11.0325ZM4.3476 7.3586L2.81068 8.35525H13.0305L11.4935 7.3586H4.3476ZM1.66456 8.95314L6.21196 11.7055C4.77635 12.6159 3.34052 13.5261 1.90499 14.4366L2.31384 14.9187L3.03393 14.4621L2.72627 15.1539L1.29201 16.0219L1.68857 16.5117L7.92057 12.7396C9.99789 13.997 12.0753 15.2543 14.1525 16.5117L14.5491 16.0219L13.1149 15.1539L12.8072 14.4621L13.5273 14.9187L13.9362 14.4366C12.5006 13.5262 11.0648 12.6159 9.62918 11.7055L14.1766 8.95314H12.9709L9.04033 11.3322L8.50527 10.9929L11.722 8.95317H10.5527L7.92057 10.6221L5.28848 8.95314H4.11912L7.33587 10.9928L6.80081 11.3322L2.87027 8.9531L1.66456 8.95314ZM7.92057 11.3636L8.44207 11.6943L7.92057 12.0099L7.39907 11.6943L7.92057 11.3636ZM6.81026 12.0676L7.31774 12.3748L3.73996 14.5403L4.06575 13.8079L6.81026 12.0676ZM9.03088 12.0676L11.7754 13.8079L12.1012 14.5403L8.52341 12.3748L9.03088 12.0676Z" fill="black"/>
</svg>
