<svg width="15" height="16" viewBox="0 0 15 16" fill="none" xmlns="http://www.w3.org/2000/svg">
<path d="M3.54872 0.109375V0.640888H4.24027V0.109375H3.54872ZM10.4642 0.109375V0.640888H11.1557V0.109375H10.4642ZM3.39505 1.23877V3.29845H11.3094V1.23877H3.39505ZM3.2456 3.89634C2.22492 4.0729 1.20424 4.24933 0.183594 4.42593L0.319252 5.01219L0.859385 4.91877V7.58371H1.55093V4.79918L3.54872 4.4537V5.95602H4.24027V3.89634H3.2456ZM10.4642 3.89634V5.95602H11.1557V4.4537L13.1535 4.79918V7.58371H13.845V4.91877L14.3852 5.01219L14.5208 4.42593C13.5002 4.24937 12.4795 4.07287 11.4589 3.89634H10.4642ZM3.77924 6.55391L2.24232 7.55056H12.4621L10.9252 6.55391H3.77924ZM1.0962 8.14845L5.6436 10.9008C4.20799 11.8112 2.77216 12.7214 1.33663 13.6319L1.74548 14.1141L2.46557 13.6575L2.15791 14.3492L0.723651 15.2172L1.12021 15.707L7.35221 11.9349C9.42953 13.1923 11.5069 14.4496 13.5842 15.707L13.9808 15.2172L12.5465 14.3492L12.2389 13.6575L12.9589 14.1141L13.3678 13.6319C11.9322 12.7215 10.4965 11.8112 9.06082 10.9008L13.6082 8.14845H12.4025L8.47198 10.5275L7.93691 10.1882L11.1537 8.14848H9.9843L7.35221 9.8174L4.72012 8.14845H3.55076L6.76751 10.1881L6.23245 10.5275L2.30191 8.14841L1.0962 8.14845ZM7.35221 10.5589L7.87371 10.8896L7.35221 11.2052L6.83071 10.8896L7.35221 10.5589ZM6.2419 11.2629L6.74938 11.5701L3.1716 13.7356L3.49739 13.0032L6.2419 11.2629ZM8.46252 11.2629L11.207 13.0032L11.5328 13.7356L7.95505 11.5701L8.46252 11.2629Z" fill="black"/>
</svg>
