<svg width="16" height="15" viewBox="0 0 16 15" fill="none" xmlns="http://www.w3.org/2000/svg">
<path d="M3.0286 6.4718L7.52387 0.171875L12.0191 6.4718H3.0286ZM12.0191 14.1717C10.9975 14.1717 10.1292 13.8656 9.41433 13.2533C8.69945 12.6411 8.34173 11.8972 8.34119 11.0217C8.34119 10.1468 8.6989 9.40313 9.41433 8.79087C10.1298 8.17861 10.998 7.87225 12.0191 7.87178C13.0408 7.87178 13.9093 8.17815 14.6248 8.79087C15.3402 9.4036 15.6976 10.1472 15.6971 11.0217C15.6971 11.8967 15.3396 12.6406 14.6248 13.2533C13.9099 13.866 13.0413 14.1722 12.0191 14.1717ZM0.167969 13.8217V8.22178H6.70655V13.8217H0.167969ZM12.0191 12.7717C12.5913 12.7717 13.0748 12.6026 13.4699 12.2642C13.8649 11.9259 14.0624 11.5117 14.0624 11.0217C14.0624 10.5318 13.8649 10.1176 13.4699 9.77926C13.0748 9.44093 12.5913 9.27177 12.0191 9.27177C11.447 9.27177 10.9634 9.44093 10.5684 9.77926C10.1734 10.1176 9.97583 10.5318 9.97583 11.0217C9.97583 11.5117 10.1734 11.9259 10.5684 12.2642C10.9634 12.6026 11.447 12.7717 12.0191 12.7717ZM1.80261 12.4217H5.0719V9.62176H1.80261V12.4217ZM5.93009 5.07182H9.11765L7.52387 2.86684L5.93009 5.07182Z" fill="black"/>
</svg>
