<svg width="17" height="16" viewBox="0 0 17 16" fill="none" xmlns="http://www.w3.org/2000/svg">
<path d="M14.1645 0.293355C14.5251 0.101932 14.979 0.224562 15.1779 0.571516L15.3272 0.831732C15.9272 1.8696 15.9427 3.09591 15.4329 4.12181C16.2629 4.97724 16.7665 6.12278 16.7665 7.38199C16.7665 7.93532 16.6702 8.46771 16.4899 8.96123C16.3002 9.47867 15.6039 9.44876 15.3458 8.95824L14.9821 8.25834C14.8546 8.01607 14.5966 7.86054 14.3137 7.86054H12.0412C11.6277 7.86054 11.2951 7.54051 11.2951 7.14271V4.74992C11.2951 4.35212 10.9625 4.03208 10.549 4.03208H10.0174C9.35521 4.03208 9.08475 3.31724 9.68164 3.04805C10.322 2.75793 11.0371 2.59641 11.7925 2.59641C12.6723 2.59641 13.4961 2.81475 14.2111 3.20059C14.3821 2.65623 14.3261 2.05205 14.0246 1.53162L13.8754 1.27141C13.6764 0.924452 13.8039 0.487768 14.1645 0.296345V0.293355ZM6.17183 10.5375L9.05677 4.9892H10.3003V7.38199C10.3003 8.1746 10.9687 8.81766 11.7925 8.81766H14.1614L14.9044 10.2473C12.4236 13.4806 8.44434 15.5175 4.05786 15.5175H2.22991C1.46826 15.5175 0.849609 14.9223 0.849609 14.1895C0.849609 13.5673 1.30038 13.029 1.93146 12.8944L3.47963 12.5624C4.64853 12.3111 5.64023 11.5694 6.17494 10.5375H6.17183Z" fill="black"/>
</svg>
