<svg width="13" height="15" viewBox="0 0 13 15" fill="none" xmlns="http://www.w3.org/2000/svg">
<path d="M6.54171 6.29312H7.59713L7.34071 7.41654H6.26687L6.54171 6.29312ZM0.890625 2.41146C0.890625 1.9418 1.07719 1.49139 1.40929 1.15929C1.74139 0.827194 2.1918 0.640625 2.66146 0.640625H10.8073C11.0398 0.640625 11.2701 0.686429 11.485 0.775422C11.6998 0.864414 11.895 0.994853 12.0595 1.15929C12.2239 1.32373 12.3543 1.51894 12.4433 1.73379C12.5323 1.94864 12.5781 2.17891 12.5781 2.41146V12.5052C12.5781 12.6461 12.5222 12.7812 12.4225 12.8809C12.3229 12.9805 12.1878 13.0365 12.0469 13.0365H1.95312C1.95312 13.2243 2.02775 13.4045 2.16059 13.5373C2.29343 13.6702 2.4736 13.7448 2.66146 13.7448H12.0469C12.1878 13.7448 12.3229 13.8008 12.4225 13.9004C12.5222 14 12.5781 14.1351 12.5781 14.276C12.5781 14.4169 12.5222 14.5521 12.4225 14.6517C12.3229 14.7513 12.1878 14.8073 12.0469 14.8073H2.66146C2.1918 14.8073 1.74139 14.6207 1.40929 14.2886C1.07719 13.9565 0.890625 13.5061 0.890625 13.0365V2.41146ZM5.86596 4.58604L5.708 5.23062H4.94937L4.87713 5.23558C4.74994 5.25304 4.63338 5.31597 4.549 5.41272C4.46462 5.50947 4.41813 5.6335 4.41812 5.76187L4.42308 5.83412C4.44054 5.96131 4.50347 6.07787 4.60022 6.16225C4.69697 6.24663 4.821 6.29312 4.94937 6.29312H5.44733L5.1725 7.41654L4.60867 7.41725L4.53642 7.42221C4.40923 7.43967 4.29267 7.50259 4.20829 7.59934C4.12391 7.69609 4.07742 7.82012 4.07742 7.9485L4.08237 8.02075C4.09983 8.14793 4.16276 8.26449 4.25951 8.34887C4.35626 8.43325 4.48029 8.47974 4.60867 8.47975H4.91254L4.82542 8.83817L4.81267 8.909C4.79923 9.03683 4.83259 9.1652 4.90657 9.27031C4.98055 9.37541 5.09013 9.45014 5.215 9.48062L5.28583 9.49337C5.41366 9.50681 5.54203 9.47345 5.64714 9.39947C5.75225 9.32549 5.82697 9.21591 5.85746 9.09104L6.00621 8.47904H7.09633L7.01275 8.84596L7.00142 8.91679C6.98979 9.04487 7.02502 9.17283 7.10057 9.27691C7.17612 9.38099 7.28687 9.45412 7.41225 9.48275L7.48308 9.49408C7.61117 9.50571 7.73912 9.47048 7.8432 9.39493C7.94728 9.31938 8.02042 9.20863 8.04904 9.08325L8.18646 8.47904L8.85229 8.47975L8.92454 8.47479C9.05185 8.45749 9.16858 8.39463 9.25311 8.29787C9.33763 8.2011 9.38422 8.07698 9.38425 7.9485L9.37929 7.87625C9.36183 7.74907 9.29891 7.63251 9.20216 7.54813C9.10541 7.46375 8.98138 7.41726 8.853 7.41725H8.43012L8.68725 6.29312H9.19725L9.2695 6.28817C9.39668 6.27071 9.51324 6.20778 9.59762 6.11103C9.682 6.01428 9.72849 5.89025 9.7285 5.76187L9.72354 5.69033C9.70624 5.56302 9.64338 5.44629 9.54662 5.36177C9.44985 5.27724 9.32573 5.23065 9.19725 5.23062H8.93092L9.023 4.83112L9.03433 4.76029C9.04578 4.63232 9.01047 4.50454 8.93493 4.40061C8.85939 4.29669 8.74875 4.22365 8.6235 4.19504L8.55267 4.18371C8.4247 4.17226 8.29692 4.20757 8.19299 4.28311C8.08906 4.35865 8.01603 4.46929 7.98742 4.59454L7.84079 5.23062H6.80096L6.89729 4.83892L6.91004 4.76808C6.92476 4.63375 6.88773 4.49887 6.8065 4.39088C6.72527 4.28288 6.60594 4.20991 6.4728 4.1868C6.33966 4.16369 6.20271 4.19219 6.08984 4.26649C5.97697 4.34079 5.89666 4.45532 5.86525 4.58675" fill="#5E5E5E"/>
</svg>
