<svg width="17" height="15" viewBox="0 0 17 15" fill="none" xmlns="http://www.w3.org/2000/svg">
<path d="M3.79031 6.69836L8.28559 0.398438L12.7809 6.69836H3.79031ZM12.7809 14.3983C11.7592 14.3983 10.8909 14.0921 10.1761 13.4799C9.46117 12.8676 9.10345 12.1238 9.10291 11.2483C9.10291 10.3733 9.46062 9.6297 10.1761 9.01744C10.8915 8.40518 11.7597 8.09881 12.7809 8.09835C13.8025 8.09835 14.6711 8.40471 15.3865 9.01744C16.1019 9.63016 16.4594 10.3738 16.4588 11.2483C16.4588 12.1233 16.1014 12.8672 15.3865 13.4799C14.6716 14.0926 13.8031 14.3987 12.7809 14.3983ZM0.929688 14.0483V8.44834H7.46826V14.0483H0.929688ZM12.7809 12.9983C13.353 12.9983 13.8366 12.8291 14.2316 12.4908C14.6266 12.1525 14.8242 11.7383 14.8242 11.2483C14.8242 10.7583 14.6266 10.3442 14.2316 10.0058C13.8366 9.6675 13.353 9.49833 12.7809 9.49833C12.2087 9.49833 11.7252 9.6675 11.3301 10.0058C10.9351 10.3442 10.7376 10.7583 10.7376 11.2483C10.7376 11.7383 10.9351 12.1525 11.3301 12.4908C11.7252 12.8291 12.2087 12.9983 12.7809 12.9983ZM2.56433 12.6483H5.83362V9.84833H2.56433V12.6483ZM6.69181 5.29838H9.87936L8.28559 3.09341L6.69181 5.29838Z" fill="black"/>
</svg>
