<svg width="16" height="15" viewBox="0 0 16 15" fill="none" xmlns="http://www.w3.org/2000/svg">
<path d="M14.4078 0.914062C14.6624 0.914088 14.9081 0.984183 15.0983 1.11105C15.2886 1.23793 15.4101 1.41275 15.4399 1.60236L15.4472 1.69356V14.1656C15.4469 14.3643 15.3454 14.5554 15.1636 14.6998C14.9817 14.8443 14.7332 14.9312 14.4687 14.9429C14.2043 14.9545 13.9439 14.89 13.7408 14.7625C13.5376 14.6349 13.4071 14.4541 13.3758 14.2568L13.3685 14.1656V10.2681H12.3292C12.0746 10.268 11.8289 10.198 11.6387 10.0711C11.4484 9.94421 11.3269 9.76939 11.2971 9.57977L11.2898 9.48857V4.81157C11.2898 3.08887 12.8488 0.914062 14.4078 0.914062ZM8.17183 0.914062C8.42639 0.914088 8.6721 0.984183 8.86233 1.11105C9.05257 1.23793 9.1741 1.41275 9.20389 1.60236L9.21116 1.69356V5.59107C9.21104 6.28238 8.90474 6.95409 8.34038 7.50067C7.77601 8.04726 6.98555 8.43777 6.09316 8.61085V14.1656C6.09286 14.3643 5.99143 14.5554 5.80958 14.6998C5.62773 14.8443 5.37918 14.9312 5.11473 14.9429C4.85028 14.9545 4.58989 14.89 4.38674 14.7625C4.1836 14.6349 4.05305 14.4541 4.02176 14.2568L4.01449 14.1656V8.61085C3.15751 8.44469 2.39355 8.07783 1.83372 7.56361C1.27389 7.04938 0.947381 6.41462 0.901681 5.75164L0.896484 5.59107V1.69356C0.896778 1.49488 0.998213 1.30379 1.18006 1.15932C1.36192 1.01485 1.61046 0.92791 1.87491 0.916267C2.13936 0.904623 2.39976 0.969153 2.6029 1.09667C2.80604 1.22419 2.93659 1.40507 2.96788 1.60236L2.97515 1.69356V5.59107C2.97516 5.86472 3.07121 6.13356 3.25366 6.37055C3.4361 6.60754 3.6985 6.80434 4.01449 6.94116V1.69356C4.01478 1.49488 4.11622 1.30379 4.29807 1.15932C4.47992 1.01485 4.72846 0.92791 4.99291 0.916267C5.25736 0.904623 5.51776 0.969153 5.7209 1.09667C5.92404 1.22419 6.05459 1.40507 6.08588 1.60236L6.09316 1.69356L6.0942 6.94116C6.38424 6.81542 6.62946 6.63897 6.80897 6.42684C6.98849 6.2147 7.09699 5.97316 7.12522 5.7228L7.13249 5.59107V1.69356C7.13249 1.48683 7.24199 1.28856 7.43691 1.14237C7.63182 0.996188 7.89618 0.914063 8.17183 0.914062Z" fill="black"/>
</svg>
