<svg width="16" height="15" viewBox="0 0 16 15" fill="none" xmlns="http://www.w3.org/2000/svg">
<path d="M3.3118 6.69055L7.80707 0.390625L12.3023 6.69055H3.3118ZM12.3023 14.3905C11.2807 14.3905 10.4124 14.0843 9.69754 13.4721C8.98265 12.8598 8.62494 12.116 8.62439 11.2405C8.62439 10.3655 8.98211 9.62188 9.69754 9.00962C10.413 8.39736 11.2812 8.091 12.3023 8.09053C13.324 8.09053 14.1925 8.3969 14.908 9.00962C15.6234 9.62235 15.9808 10.366 15.9803 11.2405C15.9803 12.1155 15.6228 12.8593 14.908 13.4721C14.1931 14.0848 13.3245 14.3909 12.3023 14.3905ZM0.451172 14.0405V8.44053H6.98975V14.0405H0.451172ZM12.3023 12.9905C12.8745 12.9905 13.358 12.8213 13.7531 12.483C14.1481 12.1447 14.3456 11.7305 14.3456 11.2405C14.3456 10.7505 14.1481 10.3363 13.7531 9.99801C13.358 9.65968 12.8745 9.49052 12.3023 9.49052C11.7302 9.49052 11.2466 9.65968 10.8516 9.99801C10.4566 10.3363 10.259 10.7505 10.259 11.2405C10.259 11.7305 10.4566 12.1447 10.8516 12.483C11.2466 12.8213 11.7302 12.9905 12.3023 12.9905ZM2.08582 12.6405H5.3551V9.84051H2.08582V12.6405ZM6.21329 5.29057H9.40085L7.80707 3.08559L6.21329 5.29057Z" fill="black"/>
</svg>
