<svg width="15" height="17" viewBox="0 0 15 17" fill="none" xmlns="http://www.w3.org/2000/svg">
<path d="M3.662 0.914062V1.44558H4.35355V0.914062H3.662ZM10.5774 0.914062V1.44558H11.269V0.914062H10.5774ZM3.50833 2.04346V4.10314H11.4227V2.04346H3.50833ZM3.35888 4.70103C2.3382 4.87759 1.31752 5.05402 0.296875 5.23062L0.432533 5.81687L0.972667 5.72346V8.3884H1.66421V5.60387L3.662 5.25839V6.76071H4.35355V4.70103H3.35888ZM10.5774 4.70103V6.76071H11.269V5.25839L13.2668 5.60387V8.3884H13.9583V5.72346L14.4985 5.81687L14.6341 5.23062C13.6135 5.05405 12.5928 4.87756 11.5721 4.70103H10.5774ZM3.89252 7.3586L2.3556 8.35525H12.5754L11.0385 7.3586H3.89252ZM1.20948 8.95314L5.75688 11.7055C4.32127 12.6159 2.88544 13.5261 1.44991 14.4366L1.85876 14.9187L2.57885 14.4621L2.27119 15.1539L0.836932 16.0219L1.23349 16.5117L7.46549 12.7396C9.54281 13.997 11.6202 15.2543 13.6975 16.5117L14.0941 16.0219L12.6598 15.1539L12.3521 14.4621L13.0722 14.9187L13.4811 14.4366C12.0455 13.5262 10.6098 12.6159 9.17411 11.7055L13.7215 8.95314H12.5158L8.58526 11.3322L8.05019 10.9929L11.2669 8.95317H10.0976L7.46549 10.6221L4.8334 8.95314H3.66404L6.88079 10.9928L6.34573 11.3322L2.41519 8.9531L1.20948 8.95314ZM7.46549 11.3636L7.98699 11.6943L7.46549 12.0099L6.94399 11.6943L7.46549 11.3636ZM6.35518 12.0676L6.86266 12.3748L3.28488 14.5403L3.61068 13.8079L6.35518 12.0676ZM8.57581 12.0676L11.3203 13.8079L11.6461 14.5403L8.06833 12.3748L8.57581 12.0676Z" fill="black"/>
</svg>
