<svg width="17" height="15" viewBox="0 0 17 15" fill="none" xmlns="http://www.w3.org/2000/svg">
<path d="M3.81766 6.69055L8.31293 0.390625L12.8082 6.69055H3.81766ZM12.8082 14.3905C11.7865 14.3905 10.9183 14.0843 10.2034 13.4721C9.48851 12.8598 9.1308 12.116 9.13025 11.2405C9.13025 10.3655 9.48797 9.62188 10.2034 9.00962C10.9188 8.39736 11.7871 8.091 12.8082 8.09053C13.8299 8.09053 14.6984 8.3969 15.4138 9.00962C16.1293 9.62235 16.4867 10.366 16.4862 11.2405C16.4862 12.1155 16.1287 12.8593 15.4138 13.4721C14.6989 14.0848 13.8304 14.3909 12.8082 14.3905ZM0.957031 14.0405V8.44053H7.49561V14.0405H0.957031ZM12.8082 12.9905C13.3803 12.9905 13.8639 12.8213 14.2589 12.483C14.654 12.1447 14.8515 11.7305 14.8515 11.2405C14.8515 10.7505 14.654 10.3363 14.2589 9.99801C13.8639 9.65968 13.3803 9.49052 12.8082 9.49052C12.2361 9.49052 11.7525 9.65968 11.3575 9.99801C10.9624 10.3363 10.7649 10.7505 10.7649 11.2405C10.7649 11.7305 10.9624 12.1447 11.3575 12.483C11.7525 12.8213 12.2361 12.9905 12.8082 12.9905ZM2.59168 12.6405H5.86096V9.84051H2.59168V12.6405ZM6.71915 5.29057H9.90671L8.31293 3.08559L6.71915 5.29057Z" fill="black"/>
</svg>
