<svg width="16" height="14" viewBox="0 0 16 14" fill="none" xmlns="http://www.w3.org/2000/svg">
<path d="M1.72285 0.8125L3.26211 3.89102H5.571L4.03174 0.8125H5.571L7.11025 3.89102H9.41914L7.87988 0.8125H9.41914L10.9584 3.89102H13.2673L11.728 0.8125H14.0369C14.4602 0.8125 14.8227 0.963347 15.1244 1.26504C15.4261 1.56674 15.5767 1.92897 15.5762 2.35176V11.5873C15.5762 12.0106 15.4256 12.3731 15.1244 12.6748C14.8232 12.9765 14.4607 13.1271 14.0369 13.1266H1.72285C1.29956 13.1266 0.937317 12.976 0.636136 12.6748C0.334954 12.3736 0.184107 12.0111 0.183594 11.5873V2.35176C0.183594 1.92846 0.334441 1.56622 0.636136 1.26504C0.93783 0.96386 1.30007 0.813013 1.72285 0.8125Z" fill="black"/>
</svg>
