<svg width="15" height="17" viewBox="0 0 15 17" fill="none" xmlns="http://www.w3.org/2000/svg">
<path d="M3.71669 0.914062V1.44558H4.40823V0.914062H3.71669ZM10.6321 0.914062V1.44558H11.3237V0.914062H10.6321ZM3.56301 2.04346V4.10314H11.4773V2.04346H3.56301ZM3.41356 4.70103C2.39288 4.87759 1.3722 5.05402 0.351562 5.23062L0.48722 5.81687L1.02735 5.72346V8.3884H1.7189V5.60387L3.71669 5.25839V6.76071H4.40823V4.70103H3.41356ZM10.6321 4.70103V6.76071H11.3237V5.25839L13.3215 5.60387V8.3884H14.013V5.72346L14.5531 5.81687L14.6888 5.23062C13.6682 5.05405 12.6475 4.87756 11.6268 4.70103H10.6321ZM3.94721 7.3586L2.41029 8.35525H12.6301L11.0932 7.3586H3.94721ZM1.26417 8.95314L5.81157 11.7055C4.37596 12.6159 2.94013 13.5261 1.5046 14.4366L1.91345 14.9187L2.63354 14.4621L2.32588 15.1539L0.89162 16.0219L1.28818 16.5117L7.52018 12.7396C9.5975 13.997 11.6749 15.2543 13.7521 16.5117L14.1487 16.0219L12.7145 15.1539L12.4068 14.4621L13.1269 14.9187L13.5358 14.4366C12.1002 13.5262 10.6644 12.6159 9.22879 11.7055L13.7762 8.95314H12.5705L8.63994 11.3322L8.10488 10.9929L11.3216 8.95317H10.1523L7.52018 10.6221L4.88809 8.95314H3.71873L6.93548 10.9928L6.40042 11.3322L2.46988 8.9531L1.26417 8.95314ZM7.52018 11.3636L8.04168 11.6943L7.52018 12.0099L6.99868 11.6943L7.52018 11.3636ZM6.40987 12.0676L6.91735 12.3748L3.33957 14.5403L3.66536 13.8079L6.40987 12.0676ZM8.63049 12.0676L11.375 13.8079L11.7008 14.5403L8.12302 12.3748L8.63049 12.0676Z" fill="black"/>
</svg>
