<svg width="12" height="15" viewBox="0 0 12 15" fill="none" xmlns="http://www.w3.org/2000/svg">
<path d="M5.71163 6.29312H6.76705L6.51063 7.41654H5.4368L5.71163 6.29312ZM0.0605469 2.41146C0.0605469 1.9418 0.247116 1.49139 0.579212 1.15929C0.911308 0.827194 1.36173 0.640625 1.83138 0.640625H9.97721C10.2098 0.640625 10.44 0.686429 10.6549 0.775422C10.8697 0.864414 11.0649 0.994853 11.2294 1.15929C11.3938 1.32373 11.5243 1.51894 11.6132 1.73379C11.7022 1.94864 11.748 2.17891 11.748 2.41146V12.5052C11.748 12.6461 11.6921 12.7812 11.5924 12.8809C11.4928 12.9805 11.3577 13.0365 11.2168 13.0365H1.12305C1.12305 13.2243 1.19767 13.4045 1.33051 13.5373C1.46335 13.6702 1.64352 13.7448 1.83138 13.7448H11.2168C11.3577 13.7448 11.4928 13.8008 11.5924 13.9004C11.6921 14 11.748 14.1351 11.748 14.276C11.748 14.4169 11.6921 14.5521 11.5924 14.6517C11.4928 14.7513 11.3577 14.8073 11.2168 14.8073H1.83138C1.36173 14.8073 0.911308 14.6207 0.579212 14.2886C0.247116 13.9565 0.0605469 13.5061 0.0605469 13.0365V2.41146ZM5.03588 4.58604L4.87792 5.23062H4.1193L4.04705 5.23558C3.91986 5.25304 3.8033 5.31597 3.71892 5.41272C3.63454 5.50947 3.58805 5.6335 3.58805 5.76187L3.59301 5.83412C3.61046 5.96131 3.67339 6.07787 3.77014 6.16225C3.86689 6.24663 3.99092 6.29312 4.1193 6.29312H4.61725L4.34242 7.41654L3.77859 7.41725L3.70634 7.42221C3.57915 7.43967 3.4626 7.50259 3.37822 7.59934C3.29384 7.69609 3.24734 7.82012 3.24734 7.9485L3.2523 8.02075C3.26976 8.14793 3.33268 8.26449 3.42943 8.34887C3.52618 8.43325 3.65021 8.47974 3.77859 8.47975H4.08246L3.99534 8.83817L3.98259 8.909C3.96915 9.03683 4.00252 9.1652 4.0765 9.27031C4.15048 9.37541 4.26006 9.45014 4.38492 9.48062L4.45576 9.49337C4.58358 9.50681 4.71195 9.47345 4.81706 9.39947C4.92217 9.32549 4.99689 9.21591 5.02738 9.09104L5.17613 8.47904H6.26625L6.18267 8.84596L6.17134 8.91679C6.15971 9.04487 6.19494 9.17283 6.27049 9.27691C6.34604 9.38099 6.45679 9.45412 6.58217 9.48275L6.65301 9.49408C6.78109 9.50571 6.90904 9.47048 7.01312 9.39493C7.1172 9.31938 7.19034 9.20863 7.21896 9.08325L7.35638 8.47904L8.02221 8.47975L8.09446 8.47479C8.22178 8.45749 8.3385 8.39463 8.42303 8.29787C8.50755 8.2011 8.55414 8.07698 8.55417 7.9485L8.54921 7.87625C8.53175 7.74907 8.46883 7.63251 8.37208 7.54813C8.27533 7.46375 8.1513 7.41726 8.02292 7.41725H7.60005L7.85717 6.29312H8.36717L8.43942 6.28817C8.56661 6.27071 8.68316 6.20778 8.76754 6.11103C8.85192 6.01428 8.89842 5.89025 8.89842 5.76187L8.89346 5.69033C8.87616 5.56302 8.81331 5.44629 8.71654 5.36177C8.61977 5.27724 8.49565 5.23065 8.36717 5.23062H8.10084L8.19292 4.83112L8.20425 4.76029C8.2157 4.63232 8.18039 4.50454 8.10485 4.40061C8.02932 4.29669 7.91867 4.22365 7.79342 4.19504L7.72259 4.18371C7.59462 4.17226 7.46684 4.20757 7.36291 4.28311C7.25898 4.35865 7.18595 4.46929 7.15734 4.59454L7.01071 5.23062H5.97088L6.06721 4.83892L6.07996 4.76808C6.09468 4.63375 6.05766 4.49887 5.97642 4.39088C5.89519 4.28288 5.77586 4.20991 5.64272 4.1868C5.50958 4.16369 5.37263 4.19219 5.25976 4.26649C5.14689 4.34079 5.06658 4.45532 5.03517 4.58675" fill="#5E5E5E"/>
</svg>
