<svg width="15" height="15" viewBox="0 0 15 15" fill="none" xmlns="http://www.w3.org/2000/svg">
<path d="M13.9137 0.914062C14.1683 0.914088 14.414 0.984183 14.6042 1.11105C14.7944 1.23793 14.916 1.41275 14.9458 1.60236L14.953 1.69356V14.1656C14.9527 14.3643 14.8513 14.5554 14.6694 14.6998C14.4876 14.8443 14.2391 14.9312 13.9746 14.9429C13.7102 14.9545 13.4498 14.89 13.2466 14.7625C13.0435 14.6349 12.9129 14.4541 12.8816 14.2568L12.8744 14.1656V10.2681H11.835C11.5805 10.268 11.3348 10.198 11.1445 10.0711C10.9543 9.94421 10.8327 9.76939 10.803 9.57977L10.7957 9.48857V4.81157C10.7957 3.08887 12.3547 0.914062 13.9137 0.914062ZM7.67769 0.914062C7.93225 0.914088 8.17796 0.984183 8.36819 1.11105C8.55843 1.23793 8.67996 1.41275 8.70974 1.60236L8.71702 1.69356V5.59107C8.7169 6.28238 8.4106 6.95409 7.84623 7.50067C7.28187 8.04726 6.49141 8.43777 5.59902 8.61085V14.1656C5.59872 14.3643 5.49729 14.5554 5.31544 14.6998C5.13358 14.8443 4.88504 14.9312 4.62059 14.9429C4.35614 14.9545 4.09574 14.89 3.8926 14.7625C3.68946 14.6349 3.55891 14.4541 3.52762 14.2568L3.52035 14.1656V8.61085C2.66337 8.44469 1.89941 8.07783 1.33958 7.56361C0.779748 7.04938 0.45324 6.41462 0.407541 5.75164L0.402344 5.59107V1.69356C0.402638 1.49488 0.504073 1.30379 0.685924 1.15932C0.867776 1.01485 1.11632 0.92791 1.38077 0.916267C1.64522 0.904623 1.90562 0.969153 2.10876 1.09667C2.3119 1.22419 2.44245 1.40507 2.47374 1.60236L2.48101 1.69356V5.59107C2.48102 5.86472 2.57707 6.13356 2.75951 6.37055C2.94196 6.60754 3.20436 6.80434 3.52035 6.94116V1.69356C3.52064 1.49488 3.62208 1.30379 3.80393 1.15932C3.98578 1.01485 4.23432 0.92791 4.49877 0.916267C4.76322 0.904623 5.02362 0.969153 5.22676 1.09667C5.4299 1.22419 5.56045 1.40507 5.59174 1.60236L5.59902 1.69356L5.60006 6.94116C5.89009 6.81542 6.13532 6.63897 6.31483 6.42684C6.49435 6.2147 6.60284 5.97316 6.63108 5.7228L6.63835 5.59107V1.69356C6.63835 1.48683 6.74785 1.28856 6.94277 1.14237C7.13768 0.996188 7.40204 0.914063 7.67769 0.914062Z" fill="black"/>
</svg>
