<svg width="17" height="16" viewBox="0 0 17 16" fill="none" xmlns="http://www.w3.org/2000/svg">
<path fill-rule="evenodd" clip-rule="evenodd" d="M14.6795 0.022072C14.9317 -0.0166298 15.1901 -0.00432738 15.4366 0.0581238C15.6832 0.120575 15.912 0.231677 16.1072 0.383706C16.3023 0.535735 16.4592 0.725043 16.5668 0.938472C16.6744 1.1519 16.7302 1.38433 16.7303 1.6196V11.195C16.7301 11.9083 16.4741 12.6016 16.002 13.1674C15.5299 13.7332 14.868 14.1399 14.1191 14.3244C13.3702 14.5089 12.576 14.4609 11.8597 14.1879C11.1435 13.9148 10.5452 13.432 10.1576 12.8142C9.76999 12.1964 9.61479 11.4783 9.71606 10.7711C9.81732 10.0639 10.1694 9.40719 10.7177 8.90285C11.2659 8.3985 11.9797 8.07467 12.7484 7.98159C13.5171 7.88851 14.2977 8.03137 14.9692 8.38801V4.86001L6.1637 6.21045V12.0051C6.1637 12.0537 6.15929 12.0999 6.15049 12.1461C6.21371 12.769 6.05118 13.3937 5.68824 13.9228C5.3253 14.4519 4.78233 14.8558 4.14392 15.0714C3.5055 15.287 2.8075 15.3022 2.15867 15.1148C1.50984 14.9274 0.94661 14.5478 0.556737 14.0351C0.166864 13.5225 -0.0277573 12.9056 0.00319527 12.2806C0.0341478 11.6556 0.288936 11.0575 0.727863 10.5797C1.16679 10.1018 1.76521 9.77084 2.42988 9.63847C3.09455 9.5061 3.78814 9.57971 4.4026 9.84782V2.97004C4.40255 2.58651 4.55039 2.21539 4.81982 1.92272C5.08925 1.63005 5.46279 1.4348 5.874 1.3717L14.6795 0.022072ZM6.1637 4.56837L14.9692 3.21793V1.6196L6.1637 2.97004V4.56837Z" fill="black"/>
</svg>
