<svg width="17" height="13" viewBox="0 0 17 13" fill="none" xmlns="http://www.w3.org/2000/svg">
<path d="M2.49629 0.609375L4.03555 3.68789H6.34443L4.80518 0.609375H6.34443L7.88369 3.68789H10.1926L8.65332 0.609375H10.1926L11.7318 3.68789H14.0407L12.5015 0.609375H14.8104C15.2336 0.609375 15.5961 0.760222 15.8978 1.06192C16.1995 1.36361 16.3501 1.72585 16.3496 2.14863V11.3842C16.3496 11.8075 16.199 12.17 15.8978 12.4717C15.5967 12.7734 15.2342 12.9239 14.8104 12.9234H2.49629C2.07299 12.9234 1.71075 12.7728 1.40957 12.4717C1.10839 12.1705 0.957544 11.808 0.957031 11.3842V2.14863C0.957031 1.72534 1.10788 1.3631 1.40957 1.06192C1.71127 0.760735 2.07351 0.609888 2.49629 0.609375Z" fill="black"/>
</svg>
