<svg width="16" height="15" viewBox="0 0 16 15" fill="none" xmlns="http://www.w3.org/2000/svg">
<path d="M3.04422 6.88586L7.53949 0.585938L12.0348 6.88586H3.04422ZM12.0348 14.5858C11.0131 14.5858 10.1448 14.2796 9.42996 13.6674C8.71507 13.0551 8.35736 12.3113 8.35681 11.4358C8.35681 10.5608 8.71453 9.8172 9.42996 9.20494C10.1454 8.59268 11.0137 8.28631 12.0348 8.28585C13.0564 8.28585 13.925 8.59221 14.6404 9.20494C15.3558 9.81766 15.7133 10.5613 15.7127 11.4358C15.7127 12.3108 15.3553 13.0547 14.6404 13.6674C13.9255 14.2801 13.057 14.5862 12.0348 14.5858ZM0.183594 14.2358V8.63584H6.72217V14.2358H0.183594ZM12.0348 13.1858C12.6069 13.1858 13.0905 13.0166 13.4855 12.6783C13.8805 12.34 14.0781 11.9258 14.0781 11.4358C14.0781 10.9458 13.8805 10.5317 13.4855 10.1933C13.0905 9.855 12.6069 9.68583 12.0348 9.68583C11.4626 9.68583 10.9791 9.855 10.584 10.1933C10.189 10.5317 9.99146 10.9458 9.99146 11.4358C9.99146 11.9258 10.189 12.34 10.584 12.6783C10.9791 13.0166 11.4626 13.1858 12.0348 13.1858ZM1.81824 12.8358H5.08753V10.0358H1.81824V12.8358ZM5.94571 5.48588H9.13327L7.53949 3.28091L5.94571 5.48588Z" fill="black"/>
</svg>
