<svg width="16" height="16" viewBox="0 0 16 16" fill="none" xmlns="http://www.w3.org/2000/svg">
<path d="M13.393 0.488667C13.7536 0.297244 14.2075 0.419874 14.4065 0.766829L14.5557 1.02704C15.1557 2.06492 15.1712 3.29122 14.6614 4.31713C15.4914 5.17255 15.995 6.31809 15.995 7.5773C15.995 8.13063 15.8987 8.66303 15.7184 9.15654C15.5287 9.67398 14.8324 9.64407 14.5743 9.15355L14.2106 8.45366C14.0832 8.21139 13.8251 8.05586 13.5422 8.05586H11.2697C10.8562 8.05586 10.5236 7.73582 10.5236 7.33802V4.94523C10.5236 4.54743 10.191 4.2274 9.7775 4.2274H9.2459C8.58373 4.2274 8.31327 3.51255 8.91015 3.24336C9.55056 2.95324 10.2656 2.79172 11.021 2.79172C11.9008 2.79172 12.7246 3.01007 13.4396 3.3959C13.6106 2.85154 13.5547 2.24737 13.2531 1.72693L13.1039 1.46672C12.9049 1.11976 13.0324 0.683081 13.393 0.491658V0.488667ZM5.40035 10.7328L8.28529 5.18451H9.5288V7.5773C9.5288 8.36991 10.1972 9.01297 11.021 9.01297H13.3899L14.1329 10.4427C11.6521 13.6759 7.67286 15.7128 3.28638 15.7128H1.45842C0.696771 15.7128 0.078125 15.1176 0.078125 14.3848C0.078125 13.7627 0.528897 13.2243 1.15998 13.0897L2.70815 12.7577C3.87705 12.5064 4.86875 11.7647 5.40345 10.7328H5.40035Z" fill="black"/>
</svg>
