<svg width="17" height="15" viewBox="0 0 17 15" fill="none" xmlns="http://www.w3.org/2000/svg">
<path d="M3.56375 6.50305L8.05902 0.203125L12.5543 6.50305H3.56375ZM12.5543 14.203C11.5326 14.203 10.6644 13.8968 9.94949 13.2846C9.23461 12.6723 8.87689 11.9285 8.87635 11.053C8.87635 10.178 9.23406 9.43438 9.94949 8.82212C10.6649 8.20986 11.5332 7.9035 12.5543 7.90303C13.5759 7.90303 14.4445 8.2094 15.1599 8.82212C15.8753 9.43485 16.2328 10.1785 16.2322 11.053C16.2322 11.928 15.8748 12.6718 15.1599 13.2846C14.445 13.8973 13.5765 14.2034 12.5543 14.203ZM0.703125 13.853V8.25303H7.2417V13.853H0.703125ZM12.5543 12.803C13.1264 12.803 13.61 12.6338 14.005 12.2955C14.4001 11.9572 14.5976 11.543 14.5976 11.053C14.5976 10.563 14.4001 10.1488 14.005 9.81051C13.61 9.47218 13.1264 9.30302 12.5543 9.30302C11.9822 9.30302 11.4986 9.47218 11.1035 9.81051C10.7085 10.1488 10.511 10.563 10.511 11.053C10.511 11.543 10.7085 11.9572 11.1035 12.2955C11.4986 12.6338 11.9822 12.803 12.5543 12.803ZM2.33777 12.453H5.60706V9.65301H2.33777V12.453ZM6.46525 5.10307H9.6528L8.05902 2.89809L6.46525 5.10307Z" fill="black"/>
</svg>
