<svg width="17" height="15" viewBox="0 0 17 15" fill="none" xmlns="http://www.w3.org/2000/svg">
<path d="M3.80008 7.27649L8.29535 0.976562L12.7906 7.27649H3.80008ZM12.7906 14.9764C11.769 14.9764 10.9007 14.6703 10.1858 14.058C9.47093 13.4457 9.11322 12.7019 9.11267 11.8264C9.11267 10.9514 9.47039 10.2078 10.1858 9.59556C10.9012 8.9833 11.7695 8.67694 12.7906 8.67647C13.8123 8.67647 14.6808 8.98283 15.3962 9.59556C16.1117 10.2083 16.4691 10.9519 16.4686 11.8264C16.4686 12.7014 16.1111 13.4453 15.3962 14.058C14.6814 14.6707 13.8128 14.9769 12.7906 14.9764ZM0.939453 14.6264V9.02647H7.47803V14.6264H0.939453ZM12.7906 13.5764C13.3627 13.5764 13.8463 13.4072 14.2414 13.0689C14.6364 12.7306 14.8339 12.3164 14.8339 11.8264C14.8339 11.3364 14.6364 10.9223 14.2414 10.5839C13.8463 10.2456 13.3627 10.0765 12.7906 10.0765C12.2185 10.0765 11.7349 10.2456 11.3399 10.5839C10.9448 10.9223 10.7473 11.3364 10.7473 11.8264C10.7473 12.3164 10.9448 12.7306 11.3399 13.0689C11.7349 13.4072 12.2185 13.5764 12.7906 13.5764ZM2.5741 13.2264H5.84339V10.4265H2.5741V13.2264ZM6.70157 5.8765H9.88913L8.29535 3.67153L6.70157 5.8765Z" fill="black"/>
</svg>
