<svg width="16" height="15" viewBox="0 0 16 15" fill="none" xmlns="http://www.w3.org/2000/svg">
<path d="M2.95828 6.50305L7.45355 0.203125L11.9488 6.50305H2.95828ZM11.9488 14.203C10.9272 14.203 10.0589 13.8968 9.34402 13.2846C8.62914 12.6723 8.27142 11.9285 8.27088 11.053C8.27088 10.178 8.62859 9.43438 9.34402 8.82212C10.0594 8.20986 10.9277 7.9035 11.9488 7.90303C12.9705 7.90303 13.839 8.2094 14.5544 8.82212C15.2699 9.43485 15.6273 10.1785 15.6268 11.053C15.6268 11.928 15.2693 12.6718 14.5544 13.2846C13.8396 13.8973 12.971 14.2034 11.9488 14.203ZM0.0976562 13.853V8.25303H6.63623V13.853H0.0976562ZM11.9488 12.803C12.521 12.803 13.0045 12.6338 13.3996 12.2955C13.7946 11.9572 13.9921 11.543 13.9921 11.053C13.9921 10.563 13.7946 10.1488 13.3996 9.81051C13.0045 9.47218 12.521 9.30302 11.9488 9.30302C11.3767 9.30302 10.8931 9.47218 10.4981 9.81051C10.103 10.1488 9.90552 10.563 9.90552 11.053C9.90552 11.543 10.103 11.9572 10.4981 12.2955C10.8931 12.6338 11.3767 12.803 11.9488 12.803ZM1.7323 12.453H5.00159V9.65301H1.7323V12.453ZM5.85978 5.10307H9.04733L7.45355 2.89809L5.85978 5.10307Z" fill="black"/>
</svg>
