<svg width="16" height="15" viewBox="0 0 16 15" fill="none" xmlns="http://www.w3.org/2000/svg">
<path d="M3.29422 7.27649L7.78949 0.976562L12.2848 7.27649H3.29422ZM12.2848 14.9764C11.2631 14.9764 10.3948 14.6703 9.67996 14.058C8.96507 13.4457 8.60736 12.7019 8.60681 11.8264C8.60681 10.9514 8.96453 10.2078 9.67996 9.59556C10.3954 8.9833 11.2637 8.67694 12.2848 8.67647C13.3064 8.67647 14.175 8.98283 14.8904 9.59556C15.6058 10.2083 15.9633 10.9519 15.9627 11.8264C15.9627 12.7014 15.6053 13.4453 14.8904 14.058C14.1755 14.6707 13.307 14.9769 12.2848 14.9764ZM0.433594 14.6264V9.02647H6.97217V14.6264H0.433594ZM12.2848 13.5764C12.8569 13.5764 13.3405 13.4072 13.7355 13.0689C14.1305 12.7306 14.3281 12.3164 14.3281 11.8264C14.3281 11.3364 14.1305 10.9223 13.7355 10.5839C13.3405 10.2456 12.8569 10.0765 12.2848 10.0765C11.7126 10.0765 11.2291 10.2456 10.834 10.5839C10.439 10.9223 10.2415 11.3364 10.2415 11.8264C10.2415 12.3164 10.439 12.7306 10.834 13.0689C11.2291 13.4072 11.7126 13.5764 12.2848 13.5764ZM2.06824 13.2264H5.33753V10.4265H2.06824V13.2264ZM6.19571 5.8765H9.38327L7.78949 3.67153L6.19571 5.8765Z" fill="black"/>
</svg>
