<svg width="16" height="15" viewBox="0 0 16 15" fill="none" xmlns="http://www.w3.org/2000/svg">
<path d="M14.1403 0.109375C14.3948 0.1094 14.6405 0.179496 14.8308 0.306367C15.021 0.433238 15.1425 0.60806 15.1723 0.797674L15.1796 0.888876V13.3609C15.1793 13.5596 15.0779 13.7507 14.896 13.8951C14.7142 14.0396 14.4656 14.1265 14.2012 14.1382C13.9367 14.1498 13.6763 14.0853 13.4732 13.9578C13.27 13.8303 13.1395 13.6494 13.1082 13.4521L13.1009 13.3609V9.46339H12.0616C11.807 9.46336 11.5613 9.39326 11.3711 9.26639C11.1808 9.13952 11.0593 8.9647 11.0295 8.77509L11.0223 8.68388V4.00688C11.0223 2.28418 12.5813 0.109375 14.1403 0.109375ZM7.90425 0.109375C8.15882 0.1094 8.40452 0.179496 8.59475 0.306367C8.78499 0.433238 8.90652 0.60806 8.93631 0.797674L8.94358 0.888876V4.78638C8.94346 5.4777 8.63716 6.1494 8.0728 6.69599C7.50843 7.24257 6.71797 7.63308 5.82558 7.80617V13.3609C5.82529 13.5596 5.72385 13.7507 5.542 13.8951C5.36015 14.0396 5.1116 14.1265 4.84715 14.1382C4.5827 14.1498 4.32231 14.0853 4.11917 13.9578C3.91602 13.8303 3.78547 13.6494 3.75419 13.4521L3.74691 13.3609V7.80617C2.88993 7.64001 2.12597 7.27314 1.56614 6.75892C1.00631 6.2447 0.679803 5.60994 0.634103 4.94696L0.628906 4.78638V0.888876C0.6292 0.690197 0.730635 0.4991 0.912487 0.354631C1.09434 0.210161 1.34288 0.123223 1.60733 0.111579C1.87178 0.0999358 2.13218 0.164466 2.33532 0.291985C2.53846 0.419503 2.66901 0.600386 2.7003 0.797674L2.70758 0.888876V4.78638C2.70758 5.06004 2.80364 5.32887 2.98608 5.56586C3.16852 5.80285 3.43092 5.99965 3.74691 6.13648V0.888876C3.7472 0.690197 3.84864 0.4991 4.03049 0.354631C4.21234 0.210161 4.46088 0.123223 4.72533 0.111579C4.98978 0.0999358 5.25018 0.164466 5.45332 0.291985C5.65646 0.419503 5.78702 0.600386 5.8183 0.797674L5.82558 0.888876L5.82662 6.13648C6.11666 6.01074 6.36188 5.83428 6.5414 5.62215C6.72091 5.41001 6.82941 5.16848 6.85764 4.91812L6.86491 4.78638V0.888876C6.86491 0.682139 6.97441 0.48387 7.16933 0.337685C7.36424 0.191501 7.6286 0.109375 7.90425 0.109375Z" fill="black"/>
</svg>
