<svg width="16" height="16" viewBox="0 0 16 16" fill="none" xmlns="http://www.w3.org/2000/svg">
<path fill-rule="evenodd" clip-rule="evenodd" d="M14.0383 0.725197C14.2704 0.686495 14.5081 0.698798 14.7349 0.761249C14.9617 0.8237 15.1723 0.934802 15.3518 1.08683C15.5314 1.23886 15.6756 1.42817 15.7746 1.6416C15.8736 1.85503 15.925 2.08745 15.925 2.32272V11.8981C15.9249 12.6114 15.6894 13.3048 15.255 13.8706C14.8207 14.4364 14.2118 14.8431 13.5228 15.0276C12.8338 15.2121 12.1031 15.1641 11.4442 14.891C10.7852 14.6179 10.2347 14.1351 9.87817 13.5173C9.52159 12.8995 9.37881 12.1814 9.47198 11.4742C9.56514 10.767 9.88904 10.1103 10.3934 9.60597C10.8978 9.10162 11.5546 8.7778 12.2618 8.68472C12.969 8.59163 13.6871 8.73449 14.3048 9.09114V5.56314L6.2038 6.91358V12.7083C6.2038 12.7569 6.19975 12.803 6.19165 12.8492C6.24981 13.4722 6.10029 14.0969 5.76639 14.626C5.43248 15.1551 4.93295 15.5589 4.34561 15.7745C3.75827 15.9901 3.11611 16.0054 2.51918 15.8179C1.92226 15.6305 1.40408 15.2509 1.0454 14.7383C0.686718 14.2256 0.507666 13.6087 0.536143 12.9837C0.564619 12.3587 0.799024 11.7607 1.20284 11.2828C1.60665 10.8049 2.15719 10.474 2.76869 10.3416C3.38019 10.2092 4.0183 10.2828 4.5836 10.5509V3.67316C4.58355 3.28963 4.71956 2.91852 4.96744 2.62584C5.21531 2.33317 5.55897 2.13792 5.93728 2.07483L14.0383 0.725197ZM6.2038 5.2715L14.3048 3.92106V2.32272L6.2038 3.67316V5.2715Z" fill="black"/>
</svg>
