<svg width="13" height="15" viewBox="0 0 13 15" fill="none" xmlns="http://www.w3.org/2000/svg">
<path d="M6.11202 6.29312H7.16744L6.91102 7.41654H5.83719L6.11202 6.29312ZM0.460938 2.41146C0.460938 1.9418 0.647507 1.49139 0.979603 1.15929C1.3117 0.827194 1.76212 0.640625 2.23177 0.640625H10.3776C10.6102 0.640625 10.8404 0.686429 11.0553 0.775422C11.2701 0.864414 11.4653 0.994853 11.6298 1.15929C11.7942 1.32373 11.9246 1.51894 12.0136 1.73379C12.1026 1.94864 12.1484 2.17891 12.1484 2.41146V12.5052C12.1484 12.6461 12.0925 12.7812 11.9928 12.8809C11.8932 12.9805 11.7581 13.0365 11.6172 13.0365H1.52344C1.52344 13.2243 1.59807 13.4045 1.7309 13.5373C1.86374 13.6702 2.04391 13.7448 2.23177 13.7448H11.6172C11.7581 13.7448 11.8932 13.8008 11.9928 13.9004C12.0925 14 12.1484 14.1351 12.1484 14.276C12.1484 14.4169 12.0925 14.5521 11.9928 14.6517C11.8932 14.7513 11.7581 14.8073 11.6172 14.8073H2.23177C1.76212 14.8073 1.3117 14.6207 0.979603 14.2886C0.647507 13.9565 0.460938 13.5061 0.460938 13.0365V2.41146ZM5.43627 4.58604L5.27831 5.23062H4.51969L4.44744 5.23558C4.32025 5.25304 4.20369 5.31597 4.11931 5.41272C4.03493 5.50947 3.98844 5.6335 3.98844 5.76187L3.9934 5.83412C4.01086 5.96131 4.07378 6.07787 4.17053 6.16225C4.26728 6.24663 4.39131 6.29312 4.51969 6.29312H5.01765L4.74281 7.41654L4.17898 7.41725L4.10673 7.42221C3.97955 7.43967 3.86299 7.50259 3.77861 7.59934C3.69423 7.69609 3.64773 7.82012 3.64773 7.9485L3.65269 8.02075C3.67015 8.14793 3.73307 8.26449 3.82982 8.34887C3.92657 8.43325 4.0506 8.47974 4.17898 8.47975H4.48285L4.39573 8.83817L4.38298 8.909C4.36954 9.03683 4.40291 9.1652 4.47689 9.27031C4.55087 9.37541 4.66045 9.45014 4.78531 9.48062L4.85615 9.49337C4.98398 9.50681 5.11234 9.47345 5.21745 9.39947C5.32256 9.32549 5.39728 9.21591 5.42777 9.09104L5.57652 8.47904H6.66665L6.58306 8.84596L6.57173 8.91679C6.5601 9.04487 6.59533 9.17283 6.67088 9.27691C6.74643 9.38099 6.85718 9.45412 6.98256 9.48275L7.0534 9.49408C7.18148 9.50571 7.30943 9.47048 7.41351 9.39493C7.51759 9.31938 7.59073 9.20863 7.61935 9.08325L7.75677 8.47904L8.4226 8.47975L8.49485 8.47479C8.62217 8.45749 8.73889 8.39463 8.82342 8.29787C8.90794 8.2011 8.95453 8.07698 8.95456 7.9485L8.9496 7.87625C8.93214 7.74907 8.86922 7.63251 8.77247 7.54813C8.67572 7.46375 8.55169 7.41726 8.42331 7.41725H8.00044L8.25756 6.29312H8.76756L8.83981 6.28817C8.967 6.27071 9.08356 6.20778 9.16794 6.11103C9.25232 6.01428 9.29881 5.89025 9.29881 5.76187L9.29385 5.69033C9.27655 5.56302 9.2137 5.44629 9.11693 5.36177C9.02016 5.27724 8.89605 5.23065 8.76756 5.23062H8.50123L8.59331 4.83112L8.60465 4.76029C8.61609 4.63232 8.58078 4.50454 8.50524 4.40061C8.42971 4.29669 8.31907 4.22365 8.19381 4.19504L8.12298 4.18371C7.99501 4.17226 7.86723 4.20757 7.7633 4.28311C7.65937 4.35865 7.58634 4.46929 7.55773 4.59454L7.4111 5.23062H6.37127L6.4676 4.83892L6.48035 4.76808C6.49507 4.63375 6.45805 4.49887 6.37681 4.39088C6.29558 4.28288 6.17625 4.20991 6.04311 4.1868C5.90997 4.16369 5.77302 4.19219 5.66015 4.26649C5.54728 4.34079 5.46697 4.45532 5.43556 4.58675" fill="#5E5E5E"/>
</svg>
