<svg width="16" height="16" viewBox="0 0 16 16" fill="none" xmlns="http://www.w3.org/2000/svg">
<path fill-rule="evenodd" clip-rule="evenodd" d="M13.8332 0.725197C14.0653 0.686495 14.303 0.698798 14.5298 0.761249C14.7567 0.8237 14.9672 0.934802 15.1467 1.08683C15.3263 1.23886 15.4706 1.42817 15.5696 1.6416C15.6686 1.85503 15.7199 2.08745 15.72 2.32272V11.8981C15.7198 12.6114 15.4843 13.3048 15.05 13.8706C14.6156 14.4364 14.0067 14.8431 13.3177 15.0276C12.6287 15.2121 11.898 15.1641 11.2391 14.891C10.5801 14.6179 10.0297 14.1351 9.67309 13.5173C9.31651 12.8995 9.17374 12.1814 9.2669 11.4742C9.36006 10.767 9.68396 10.1103 10.1884 9.60597C10.6928 9.10162 11.3495 8.7778 12.0567 8.68472C12.7639 8.59163 13.482 8.73449 14.0998 9.09114V5.56314L5.99873 6.91358V12.7083C5.99873 12.7569 5.99468 12.803 5.98657 12.8492C6.04473 13.4722 5.89521 14.0969 5.56131 14.626C5.22741 15.1551 4.72787 15.5589 4.14053 15.7745C3.55319 15.9901 2.91103 16.0054 2.3141 15.8179C1.71718 15.6305 1.19901 15.2509 0.840323 14.7383C0.48164 14.2256 0.302588 13.6087 0.331065 12.9837C0.359541 12.3587 0.593946 11.7607 0.997759 11.2828C1.40157 10.8049 1.95212 10.474 2.56361 10.3416C3.17511 10.2092 3.81322 10.2828 4.37852 10.5509V3.67316C4.37847 3.28963 4.51448 2.91852 4.76236 2.62584C5.01023 2.33317 5.35389 2.13792 5.7322 2.07483L13.8332 0.725197ZM5.99873 5.2715L14.0998 3.92106V2.32272L5.99873 3.67316V5.2715Z" fill="black"/>
</svg>
