<svg width="17" height="16" viewBox="0 0 17 16" fill="none" xmlns="http://www.w3.org/2000/svg">
<path fill-rule="evenodd" clip-rule="evenodd" d="M14.3782 0.725197C14.6102 0.686495 14.8479 0.698798 15.0748 0.761249C15.3016 0.8237 15.5121 0.934802 15.6916 1.08683C15.8712 1.23886 16.0155 1.42817 16.1145 1.6416C16.2135 1.85503 16.2648 2.08745 16.2649 2.32272V11.8981C16.2647 12.6114 16.0292 13.3048 15.5949 13.8706C15.1605 14.4364 14.5517 14.8431 13.8626 15.0276C13.1736 15.2121 12.443 15.1641 11.784 14.891C11.125 14.6179 10.5746 14.1351 10.218 13.5173C9.86144 12.8995 9.71866 12.1814 9.81182 11.4742C9.90498 10.767 10.2289 10.1103 10.7333 9.60597C11.2377 9.10162 11.8944 8.7778 12.6016 8.68472C13.3088 8.59163 14.027 8.73449 14.6447 9.09114V5.56314L6.54365 6.91358V12.7083C6.54365 12.7569 6.5396 12.803 6.5315 12.8492C6.58966 13.4722 6.44014 14.0969 6.10623 14.626C5.77233 15.1551 5.27279 15.5589 4.68545 15.7745C4.09811 15.9901 3.45595 16.0054 2.85903 15.8179C2.2621 15.6305 1.74393 15.2509 1.38525 14.7383C1.02656 14.2256 0.84751 13.6087 0.875987 12.9837C0.904463 12.3587 1.13887 11.7607 1.54268 11.2828C1.94649 10.8049 2.49704 10.474 3.10853 10.3416C3.72003 10.2092 4.35814 10.2828 4.92344 10.5509V3.67316C4.92339 3.28963 5.05941 2.91852 5.30728 2.62584C5.55515 2.33317 5.89881 2.13792 6.27712 2.07483L14.3782 0.725197ZM6.54365 5.2715L14.6447 3.92106V2.32272L6.54365 3.67316V5.2715Z" fill="black"/>
</svg>
