<svg width="15" height="15" viewBox="0 0 15 15" fill="none" xmlns="http://www.w3.org/2000/svg">
<path d="M13.7086 0.914062C13.9632 0.914088 14.2089 0.984183 14.3991 1.11105C14.5894 1.23793 14.7109 1.41275 14.7407 1.60236L14.7479 1.69356V14.1656C14.7477 14.3643 14.6462 14.5554 14.4644 14.6998C14.2825 14.8443 14.034 14.9312 13.7695 14.9429C13.5051 14.9545 13.2447 14.89 13.0415 14.7625C12.8384 14.6349 12.7078 14.4541 12.6766 14.2568L12.6693 14.1656V10.2681H11.6299C11.3754 10.268 11.1297 10.198 10.9394 10.0711C10.7492 9.94421 10.6277 9.76939 10.5979 9.57977L10.5906 9.48857V4.81157C10.5906 3.08887 12.1496 0.914062 13.7086 0.914062ZM7.47261 0.914062C7.72718 0.914088 7.97288 0.984183 8.16311 1.11105C8.35335 1.23793 8.47488 1.41275 8.50467 1.60236L8.51194 1.69356V5.59107C8.51182 6.28238 8.20552 6.95409 7.64116 7.50067C7.07679 8.04726 6.28633 8.43777 5.39394 8.61085V14.1656C5.39364 14.3643 5.29221 14.5554 5.11036 14.6998C4.92851 14.8443 4.67996 14.9312 4.41551 14.9429C4.15106 14.9545 3.89067 14.89 3.68753 14.7625C3.48438 14.6349 3.35383 14.4541 3.32254 14.2568L3.31527 14.1656V8.61085C2.45829 8.44469 1.69433 8.07783 1.1345 7.56361C0.57467 7.04938 0.248162 6.41462 0.202462 5.75164L0.197266 5.59107V1.69356C0.197559 1.49488 0.298995 1.30379 0.480846 1.15932C0.662698 1.01485 0.91124 0.92791 1.17569 0.916267C1.44014 0.904623 1.70054 0.969153 1.90368 1.09667C2.10682 1.22419 2.23737 1.40507 2.26866 1.60236L2.27593 1.69356V5.59107C2.27594 5.86472 2.372 6.13356 2.55444 6.37055C2.73688 6.60754 2.99928 6.80434 3.31527 6.94116V1.69356C3.31556 1.49488 3.417 1.30379 3.59885 1.15932C3.7807 1.01485 4.02924 0.92791 4.29369 0.916267C4.55814 0.904623 4.81854 0.969153 5.02168 1.09667C5.22482 1.22419 5.35538 1.40507 5.38666 1.60236L5.39394 1.69356L5.39498 6.94116C5.68502 6.81542 5.93024 6.63897 6.10975 6.42684C6.28927 6.2147 6.39777 5.97316 6.426 5.7228L6.43327 5.59107V1.69356C6.43327 1.48683 6.54277 1.28856 6.73769 1.14237C6.9326 0.996188 7.19696 0.914063 7.47261 0.914062Z" fill="black"/>
</svg>
