<svg width="17" height="15" viewBox="0 0 17 15" fill="none" xmlns="http://www.w3.org/2000/svg">
<path d="M3.61258 6.69055L8.10785 0.390625L12.6031 6.69055H3.61258ZM12.6031 14.3905C11.5815 14.3905 10.7132 14.0843 9.99832 13.4721C9.28343 12.8598 8.92572 12.116 8.92517 11.2405C8.92517 10.3655 9.28289 9.62188 9.99832 9.00962C10.7137 8.39736 11.582 8.091 12.6031 8.09053C13.6248 8.09053 14.4933 8.3969 15.2087 9.00962C15.9242 9.62235 16.2816 10.366 16.2811 11.2405C16.2811 12.1155 15.9236 12.8593 15.2087 13.4721C14.4939 14.0848 13.6253 14.3909 12.6031 14.3905ZM0.751953 14.0405V8.44053H7.29053V14.0405H0.751953ZM12.6031 12.9905C13.1752 12.9905 13.6588 12.8213 14.0539 12.483C14.4489 12.1447 14.6464 11.7305 14.6464 11.2405C14.6464 10.7505 14.4489 10.3363 14.0539 9.99801C13.6588 9.65968 13.1752 9.49052 12.6031 9.49052C12.031 9.49052 11.5474 9.65968 11.1524 9.99801C10.7573 10.3363 10.5598 10.7505 10.5598 11.2405C10.5598 11.7305 10.7573 12.1447 11.1524 12.483C11.5474 12.8213 12.031 12.9905 12.6031 12.9905ZM2.3866 12.6405H5.65589V9.84051H2.3866V12.6405ZM6.51407 5.29057H9.70163L8.10785 3.08559L6.51407 5.29057Z" fill="black"/>
</svg>
