<svg width="16" height="15" viewBox="0 0 16 15" fill="none" xmlns="http://www.w3.org/2000/svg">
<path d="M3.19266 7.27649L7.68793 0.976562L12.1832 7.27649H3.19266ZM12.1832 14.9764C11.1615 14.9764 10.2933 14.6703 9.5784 14.058C8.86351 13.4457 8.5058 12.7019 8.50525 11.8264C8.50525 10.9514 8.86297 10.2078 9.5784 9.59556C10.2938 8.9833 11.1621 8.67694 12.1832 8.67647C13.2049 8.67647 14.0734 8.98283 14.7888 9.59556C15.5043 10.2083 15.8617 10.9519 15.8612 11.8264C15.8612 12.7014 15.5037 13.4453 14.7888 14.058C14.0739 14.6707 13.2054 14.9769 12.1832 14.9764ZM0.332031 14.6264V9.02647H6.87061V14.6264H0.332031ZM12.1832 13.5764C12.7553 13.5764 13.2389 13.4072 13.6339 13.0689C14.029 12.7306 14.2265 12.3164 14.2265 11.8264C14.2265 11.3364 14.029 10.9223 13.6339 10.5839C13.2389 10.2456 12.7553 10.0765 12.1832 10.0765C11.6111 10.0765 11.1275 10.2456 10.7325 10.5839C10.3374 10.9223 10.1399 11.3364 10.1399 11.8264C10.1399 12.3164 10.3374 12.7306 10.7325 13.0689C11.1275 13.4072 11.6111 13.5764 12.1832 13.5764ZM1.96668 13.2264H5.23596V10.4265H1.96668V13.2264ZM6.09415 5.8765H9.28171L7.68793 3.67153L6.09415 5.8765Z" fill="black"/>
</svg>
