<svg width="17" height="15" viewBox="0 0 17 15" fill="none" xmlns="http://www.w3.org/2000/svg">
<path d="M3.35867 6.50305L7.85395 0.203125L12.3492 6.50305H3.35867ZM12.3492 14.203C11.3276 14.203 10.4593 13.8968 9.74441 13.2846C9.02953 12.6723 8.67181 11.9285 8.67127 11.053C8.67127 10.178 9.02898 9.43438 9.74441 8.82212C10.4598 8.20986 11.3281 7.9035 12.3492 7.90303C13.3709 7.90303 14.2394 8.2094 14.9548 8.82212C15.6703 9.43485 16.0277 10.1785 16.0272 11.053C16.0272 11.928 15.6697 12.6718 14.9548 13.2846C14.24 13.8973 13.3714 14.2034 12.3492 14.203ZM0.498047 13.853V8.25303H7.03662V13.853H0.498047ZM12.3492 12.803C12.9213 12.803 13.4049 12.6338 13.8 12.2955C14.195 11.9572 14.3925 11.543 14.3925 11.053C14.3925 10.563 14.195 10.1488 13.8 9.81051C13.4049 9.47218 12.9213 9.30302 12.3492 9.30302C11.7771 9.30302 11.2935 9.47218 10.8985 9.81051C10.5034 10.1488 10.3059 10.563 10.3059 11.053C10.3059 11.543 10.5034 11.9572 10.8985 12.2955C11.2935 12.6338 11.7771 12.803 12.3492 12.803ZM2.13269 12.453H5.40198V9.65301H2.13269V12.453ZM6.26017 5.10307H9.44772L7.85395 2.89809L6.26017 5.10307Z" fill="black"/>
</svg>
