<svg width="17" height="16" viewBox="0 0 17 16" fill="none" xmlns="http://www.w3.org/2000/svg">
<path d="M13.5571 0.293355C13.9177 0.101932 14.3716 0.224562 14.5705 0.571516L14.7197 0.831732C15.3197 1.8696 15.3353 3.09591 14.8254 4.12181C15.6555 4.97724 16.1591 6.12278 16.1591 7.38199C16.1591 7.93532 16.0627 8.46771 15.8824 8.96123C15.6928 9.47867 14.9964 9.44876 14.7384 8.95824L14.3747 8.25834C14.2472 8.01607 13.9892 7.86054 13.7063 7.86054H11.4338C11.0203 7.86054 10.6877 7.54051 10.6877 7.14271V4.74992C10.6877 4.35212 10.355 4.03208 9.94156 4.03208H9.40996C8.74779 4.03208 8.47733 3.31724 9.07421 3.04805C9.71462 2.75793 10.4296 2.59641 11.1851 2.59641C12.0649 2.59641 12.8887 2.81475 13.6037 3.20059C13.7747 2.65623 13.7187 2.05205 13.4172 1.53162L13.268 1.27141C13.069 0.924452 13.1964 0.487768 13.5571 0.296345V0.293355ZM5.56441 10.5375L8.44935 4.9892H9.69286V7.38199C9.69286 8.1746 10.3612 8.81766 11.1851 8.81766H13.554L14.297 10.2473C11.8162 13.4806 7.83692 15.5175 3.45044 15.5175H1.62248C0.860834 15.5175 0.242188 14.9223 0.242188 14.1895C0.242188 13.5673 0.69296 13.029 1.32404 12.8944L2.87221 12.5624C4.04111 12.3111 5.03281 11.5694 5.56752 10.5375H5.56441Z" fill="black"/>
</svg>
