<svg width="16" height="15" viewBox="0 0 16 15" fill="none" xmlns="http://www.w3.org/2000/svg">
<path d="M3.21219 6.69055L7.70746 0.390625L12.2027 6.69055H3.21219ZM12.2027 14.3905C11.1811 14.3905 10.3128 14.0843 9.59793 13.4721C8.88304 12.8598 8.52533 12.116 8.52478 11.2405C8.52478 10.3655 8.8825 9.62188 9.59793 9.00962C10.3134 8.39736 11.1816 8.091 12.2027 8.09053C13.2244 8.09053 14.0929 8.3969 14.8084 9.00962C15.5238 9.62235 15.8812 10.366 15.8807 11.2405C15.8807 12.1155 15.5232 12.8593 14.8084 13.4721C14.0935 14.0848 13.2249 14.3909 12.2027 14.3905ZM0.351562 14.0405V8.44053H6.89014V14.0405H0.351562ZM12.2027 12.9905C12.7749 12.9905 13.2584 12.8213 13.6535 12.483C14.0485 12.1447 14.246 11.7305 14.246 11.2405C14.246 10.7505 14.0485 10.3363 13.6535 9.99801C13.2584 9.65968 12.7749 9.49052 12.2027 9.49052C11.6306 9.49052 11.147 9.65968 10.752 9.99801C10.3569 10.3363 10.1594 10.7505 10.1594 11.2405C10.1594 11.7305 10.3569 12.1447 10.752 12.483C11.147 12.8213 11.6306 12.9905 12.2027 12.9905ZM1.98621 12.6405H5.25549V9.84051H1.98621V12.6405ZM6.11368 5.29057H9.30124L7.70746 3.08559L6.11368 5.29057Z" fill="black"/>
</svg>
