<svg width="16" height="17" viewBox="0 0 16 17" fill="none" xmlns="http://www.w3.org/2000/svg">
<path d="M4.32216 0.914062V1.44558H5.0137V0.914062H4.32216ZM11.2376 0.914062V1.44558H11.9291V0.914062H11.2376ZM4.16848 2.04346V4.10314H12.0828V2.04346H4.16848ZM4.01903 4.70103C2.99835 4.87759 1.97767 5.05402 0.957031 5.23062L1.09269 5.81687L1.63282 5.72346V8.3884H2.32437V5.60387L4.32216 5.25839V6.76071H5.0137V4.70103H4.01903ZM11.2376 4.70103V6.76071H11.9291V5.25839L13.9269 5.60387V8.3884H14.6185V5.72346L15.1586 5.81687L15.2942 5.23062C14.2736 5.05405 13.2529 4.87756 12.2323 4.70103H11.2376ZM4.55267 7.3586L3.01576 8.35525H13.2355L11.6986 7.3586H4.55267ZM1.86964 8.95314L6.41704 11.7055C4.98143 12.6159 3.54559 13.5261 2.11006 14.4366L2.51892 14.9187L3.23901 14.4621L2.93135 15.1539L1.49709 16.0219L1.89365 16.5117L8.12565 12.7396C10.203 13.997 12.2804 15.2543 14.3576 16.5117L14.7542 16.0219L13.3199 15.1539L13.0123 14.4621L13.7324 14.9187L14.1412 14.4366C12.7056 13.5262 11.2699 12.6159 9.83426 11.7055L14.3817 8.95314H13.176L9.24541 11.3322L8.71035 10.9929L11.9271 8.95317H10.7577L8.12565 10.6221L5.49356 8.95314H4.3242L7.54095 10.9928L7.00589 11.3322L3.07534 8.9531L1.86964 8.95314ZM8.12565 11.3636L8.64715 11.6943L8.12565 12.0099L7.60415 11.6943L8.12565 11.3636ZM7.01534 12.0676L7.52282 12.3748L3.94504 14.5403L4.27083 13.8079L7.01534 12.0676ZM9.23596 12.0676L11.9805 13.8079L12.3063 14.5403L8.72848 12.3748L9.23596 12.0676Z" fill="black"/>
</svg>
