<svg width="16" height="13" viewBox="0 0 16 13" fill="none" xmlns="http://www.w3.org/2000/svg">
<path d="M1.89082 0.609375L3.43008 3.68789H5.73896L4.19971 0.609375H5.73896L7.27822 3.68789H9.58711L8.04785 0.609375H9.58711L11.1264 3.68789H13.4353L11.896 0.609375H14.2049C14.6282 0.609375 14.9907 0.760222 15.2924 1.06192C15.5941 1.36361 15.7447 1.72585 15.7441 2.14863V11.3842C15.7441 11.8075 15.5935 12.17 15.2924 12.4717C14.9912 12.7734 14.6287 12.9239 14.2049 12.9234H1.89082C1.46752 12.9234 1.10529 12.7728 0.804104 12.4717C0.502923 12.1705 0.352076 11.808 0.351562 11.3842V2.14863C0.351562 1.72534 0.50241 1.3631 0.804104 1.06192C1.1058 0.760735 1.46804 0.609888 1.89082 0.609375Z" fill="black"/>
</svg>
