<svg width="17" height="15" viewBox="0 0 17 15" fill="none" xmlns="http://www.w3.org/2000/svg">
<path d="M3.595 7.27649L8.09027 0.976562L12.5855 7.27649H3.595ZM12.5855 14.9764C11.5639 14.9764 10.6956 14.6703 9.98074 14.058C9.26586 13.4457 8.90814 12.7019 8.9076 11.8264C8.9076 10.9514 9.26531 10.2078 9.98074 9.59556C10.6962 8.9833 11.5644 8.67694 12.5855 8.67647C13.6072 8.67647 14.4757 8.98283 15.1912 9.59556C15.9066 10.2083 16.264 10.9519 16.2635 11.8264C16.2635 12.7014 15.9061 13.4453 15.1912 14.058C14.4763 14.6707 13.6077 14.9769 12.5855 14.9764ZM0.734375 14.6264V9.02647H7.27295V14.6264H0.734375ZM12.5855 13.5764C13.1577 13.5764 13.6413 13.4072 14.0363 13.0689C14.4313 12.7306 14.6289 12.3164 14.6289 11.8264C14.6289 11.3364 14.4313 10.9223 14.0363 10.5839C13.6413 10.2456 13.1577 10.0765 12.5855 10.0765C12.0134 10.0765 11.5298 10.2456 11.1348 10.5839C10.7398 10.9223 10.5422 11.3364 10.5422 11.8264C10.5422 12.3164 10.7398 12.7306 11.1348 13.0689C11.5298 13.4072 12.0134 13.5764 12.5855 13.5764ZM2.36902 13.2264H5.63831V10.4265H2.36902V13.2264ZM6.4965 5.8765H9.68405L8.09027 3.67153L6.4965 5.8765Z" fill="black"/>
</svg>
