<svg width="16" height="15" viewBox="0 0 16 15" fill="none" xmlns="http://www.w3.org/2000/svg">
<path d="M14.3082 0.914062C14.5628 0.914088 14.8085 0.984183 14.9987 1.11105C15.189 1.23793 15.3105 1.41275 15.3403 1.60236L15.3476 1.69356V14.1656C15.3473 14.3643 15.2458 14.5554 15.064 14.6998C14.8821 14.8443 14.6336 14.9312 14.3691 14.9429C14.1047 14.9545 13.8443 14.89 13.6411 14.7625C13.438 14.6349 13.3075 14.4541 13.2762 14.2568L13.2689 14.1656V10.2681H12.2296C11.975 10.268 11.7293 10.198 11.539 10.0711C11.3488 9.94421 11.2273 9.76939 11.1975 9.57977L11.1902 9.48857V4.81157C11.1902 3.08887 12.7492 0.914062 14.3082 0.914062ZM8.07222 0.914062C8.32678 0.914088 8.57249 0.984183 8.76272 1.11105C8.95296 1.23793 9.07449 1.41275 9.10428 1.60236L9.11155 1.69356V5.59107C9.11143 6.28238 8.80513 6.95409 8.24077 7.50067C7.6764 8.04726 6.88594 8.43777 5.99355 8.61085V14.1656C5.99325 14.3643 5.89182 14.5554 5.70997 14.6998C5.52812 14.8443 5.27957 14.9312 5.01512 14.9429C4.75067 14.9545 4.49028 14.89 4.28713 14.7625C4.08399 14.6349 3.95344 14.4541 3.92215 14.2568L3.91488 14.1656V8.61085C3.0579 8.44469 2.29394 8.07783 1.73411 7.56361C1.17428 7.04938 0.847771 6.41462 0.802072 5.75164L0.796875 5.59107V1.69356C0.797169 1.49488 0.898604 1.30379 1.08046 1.15932C1.26231 1.01485 1.51085 0.92791 1.7753 0.916267C2.03975 0.904623 2.30015 0.969153 2.50329 1.09667C2.70643 1.22419 2.83698 1.40507 2.86827 1.60236L2.87554 1.69356V5.59107C2.87555 5.86472 2.97161 6.13356 3.15405 6.37055C3.33649 6.60754 3.59889 6.80434 3.91488 6.94116V1.69356C3.91517 1.49488 4.01661 1.30379 4.19846 1.15932C4.38031 1.01485 4.62885 0.92791 4.8933 0.916267C5.15775 0.904623 5.41815 0.969153 5.62129 1.09667C5.82443 1.22419 5.95498 1.40507 5.98627 1.60236L5.99355 1.69356L5.99459 6.94116C6.28463 6.81542 6.52985 6.63897 6.70936 6.42684C6.88888 6.2147 6.99738 5.97316 7.02561 5.7228L7.03288 5.59107V1.69356C7.03288 1.48683 7.14238 1.28856 7.3373 1.14237C7.53221 0.996188 7.79657 0.914063 8.07222 0.914062Z" fill="black"/>
</svg>
