<svg width="16" height="15" viewBox="0 0 16 15" fill="none" xmlns="http://www.w3.org/2000/svg">
<path d="M2.9036 6.50305L7.39887 0.203125L11.8941 6.50305H2.9036ZM11.8941 14.203C10.8725 14.203 10.0042 13.8968 9.28933 13.2846C8.57445 12.6723 8.21673 11.9285 8.21619 11.053C8.21619 10.178 8.5739 9.43438 9.28933 8.82212C10.0048 8.20986 10.873 7.9035 11.8941 7.90303C12.9158 7.90303 13.7843 8.2094 14.4998 8.82212C15.2152 9.43485 15.5726 10.1785 15.5721 11.053C15.5721 11.928 15.2146 12.6718 14.4998 13.2846C13.7849 13.8973 12.9163 14.2034 11.8941 14.203ZM0.0429688 13.853V8.25303H6.58155V13.853H0.0429688ZM11.8941 12.803C12.4663 12.803 12.9498 12.6338 13.3449 12.2955C13.7399 11.9572 13.9374 11.543 13.9374 11.053C13.9374 10.563 13.7399 10.1488 13.3449 9.81051C12.9498 9.47218 12.4663 9.30302 11.8941 9.30302C11.322 9.30302 10.8384 9.47218 10.4434 9.81051C10.0484 10.1488 9.85083 10.563 9.85083 11.053C9.85083 11.543 10.0484 11.9572 10.4434 12.2955C10.8384 12.6338 11.322 12.803 11.8941 12.803ZM1.67761 12.453H4.9469V9.65301H1.67761V12.453ZM5.80509 5.10307H8.99265L7.39887 2.89809L5.80509 5.10307Z" fill="black"/>
</svg>
