<svg width="17" height="16" viewBox="0 0 17 16" fill="none" xmlns="http://www.w3.org/2000/svg">
<path fill-rule="evenodd" clip-rule="evenodd" d="M14.4309 0.725197C14.663 0.686495 14.9007 0.698798 15.1275 0.761249C15.3543 0.8237 15.5648 0.934802 15.7444 1.08683C15.9239 1.23886 16.0682 1.42817 16.1672 1.6416C16.2662 1.85503 16.3175 2.08745 16.3176 2.32272V11.8981C16.3175 12.6114 16.082 13.3048 15.6476 13.8706C15.2133 14.4364 14.6044 14.8431 13.9154 15.0276C13.2263 15.2121 12.4957 15.1641 11.8367 14.891C11.1778 14.6179 10.6273 14.1351 10.2707 13.5173C9.91417 12.8995 9.77139 12.1814 9.86456 11.4742C9.95772 10.767 10.2816 10.1103 10.786 9.60597C11.2904 9.10162 11.9471 8.7778 12.6543 8.68472C13.3615 8.59163 14.0797 8.73449 14.6974 9.09114V5.56314L6.59638 6.91358V12.7083C6.59638 12.7569 6.59233 12.803 6.58423 12.8492C6.64239 13.4722 6.49287 14.0969 6.15897 14.626C5.82506 15.1551 5.32552 15.5589 4.73818 15.7745C4.15084 15.9901 3.50869 16.0054 2.91176 15.8179C2.31483 15.6305 1.79666 15.2509 1.43798 14.7383C1.0793 14.2256 0.900245 13.6087 0.928721 12.9837C0.957197 12.3587 1.1916 11.7607 1.59542 11.2828C1.99923 10.8049 2.54977 10.474 3.16127 10.3416C3.77277 10.2092 4.41087 10.2828 4.97618 10.5509V3.67316C4.97613 3.28963 5.11214 2.91852 5.36001 2.62584C5.60789 2.33317 5.95155 2.13792 6.32986 2.07483L14.4309 0.725197ZM6.59638 5.2715L14.6974 3.92106V2.32272L6.59638 3.67316V5.2715Z" fill="black"/>
</svg>
