<svg width="17" height="16" viewBox="0 0 17 16" fill="none" xmlns="http://www.w3.org/2000/svg">
<path d="M13.9594 0.293355C14.32 0.101932 14.7739 0.224562 14.9729 0.571516L15.1221 0.831732C15.7221 1.8696 15.7376 3.09591 15.2278 4.12181C16.0578 4.97724 16.5615 6.12278 16.5615 7.38199C16.5615 7.93532 16.4651 8.46771 16.2848 8.96123C16.0951 9.47867 15.3988 9.44876 15.1407 8.95824L14.777 8.25834C14.6496 8.01607 14.3915 7.86054 14.1086 7.86054H11.8361C11.4227 7.86054 11.09 7.54051 11.09 7.14271V4.74992C11.09 4.35212 10.7574 4.03208 10.3439 4.03208H9.81231C9.15014 4.03208 8.87967 3.31724 9.47656 3.04805C10.117 2.75793 10.832 2.59641 11.5874 2.59641C12.4672 2.59641 13.291 2.81475 14.006 3.20059C14.177 2.65623 14.1211 2.05205 13.8195 1.53162L13.6703 1.27141C13.4713 0.924452 13.5988 0.487768 13.9594 0.296345V0.293355ZM5.96675 10.5375L8.85169 4.9892H10.0952V7.38199C10.0952 8.1746 10.7636 8.81766 11.5874 8.81766H13.9563L14.6993 10.2473C12.2185 13.4806 8.23927 15.5175 3.85279 15.5175H2.02483C1.26318 15.5175 0.644531 14.9223 0.644531 14.1895C0.644531 13.5673 1.0953 13.029 1.72638 12.8944L3.27455 12.5624C4.44345 12.3111 5.43515 11.5694 5.96986 10.5375H5.96675Z" fill="black"/>
</svg>
