<svg width="22" height="21" viewBox="0 0 22 21" fill="none" xmlns="http://www.w3.org/2000/svg">
<path d="M21.7407 8.07172H20.8638V8.03006H11.0661V12.0451H17.2185C16.3209 14.3823 13.909 16.0601 11.0661 16.0601C7.45886 16.0601 4.53423 13.3635 4.53423 10.0376C4.53423 6.71163 7.45886 4.01503 11.0661 4.01503C12.7311 4.01503 14.246 4.5942 15.3994 5.54024L18.4786 2.70111C16.5343 1.03036 13.9335 0 11.0661 0C5.05406 0 0.179688 4.49433 0.179688 10.0376C0.179688 15.5808 5.05406 20.0752 11.0661 20.0752C17.078 20.0752 21.9524 15.5808 21.9524 10.0376C21.9524 9.36456 21.8773 8.7076 21.7407 8.07172Z" fill="#FFC107"/>
<path d="M1.43359 5.36559L5.01031 7.78414C5.97811 5.57487 8.32194 4.01503 11.0648 4.01503C12.7298 4.01503 14.2447 4.5942 15.3981 5.54024L18.4773 2.70111C16.533 1.03036 13.9322 0 11.0648 0C6.88331 0 3.25706 2.17665 1.43359 5.36559Z" fill="#FF3D00"/>
<path d="M11.0666 20.0733C13.8785 20.0733 16.4336 19.0811 18.3654 17.4675L14.996 14.8387C13.8663 15.6308 12.4859 16.0593 11.0666 16.0582C8.23504 16.0582 5.83079 14.3935 4.92504 12.0703L1.375 14.5923C3.17669 17.8429 6.8356 20.0733 11.0666 20.0733Z" fill="#4CAF50"/>
<path d="M21.741 8.07291H20.8641V8.03125H11.0664V12.0463H17.2188C16.7895 13.1587 16.0161 14.1307 14.9942 14.8422L14.9958 14.8412L18.3652 17.4701C18.1268 17.6698 21.9528 15.0576 21.9528 10.0388C21.9528 9.36575 21.8777 8.70879 21.741 8.07291Z" fill="#1976D2"/>
</svg>
