<svg width="22" height="21" viewBox="0 0 22 21" fill="none" xmlns="http://www.w3.org/2000/svg">
<path d="M21.561 8.07172H20.6841V8.03006H10.8864V12.0451H17.0388C16.1412 14.3823 13.7293 16.0601 10.8864 16.0601C7.27917 16.0601 4.35455 13.3635 4.35455 10.0376C4.35455 6.71163 7.27917 4.01503 10.8864 4.01503C12.5514 4.01503 14.0663 4.5942 15.2197 5.54024L18.2989 2.70111C16.3546 1.03036 13.7538 0 10.8864 0C4.87437 0 0 4.49433 0 10.0376C0 15.5808 4.87437 20.0752 10.8864 20.0752C16.8984 20.0752 21.7727 15.5808 21.7727 10.0376C21.7727 9.36456 21.6976 8.7076 21.561 8.07172Z" fill="#FFC107"/>
<path d="M1.25537 5.36559L4.83209 7.78414C5.79988 5.57487 8.14372 4.01503 10.8865 4.01503C12.5516 4.01503 14.0664 4.5942 15.2199 5.54024L18.2991 2.70111C16.3548 1.03036 13.754 0 10.8865 0C6.70509 0 3.07884 2.17665 1.25537 5.36559Z" fill="#FF3D00"/>
<path d="M10.8864 20.0733C13.6984 20.0733 16.2534 19.0811 18.1852 17.4675L14.8158 14.8387C13.6861 15.6308 12.3057 16.0593 10.8864 16.0582C8.05487 16.0582 5.65061 14.3935 4.74487 12.0703L1.19482 14.5923C2.99652 17.8429 6.65543 20.0733 10.8864 20.0733Z" fill="#4CAF50"/>
<path d="M21.5606 8.07291H20.6837V8.03125H10.886V12.0463H17.0384C16.6091 13.1587 15.8357 14.1307 14.8138 14.8422L14.8154 14.8412L18.1848 17.4701C17.9463 17.6698 21.7724 15.0576 21.7724 10.0388C21.7724 9.36575 21.6972 8.70879 21.5606 8.07291Z" fill="#1976D2"/>
</svg>
