<svg width="25" height="28" viewBox="0 0 25 28" fill="none" xmlns="http://www.w3.org/2000/svg">
<path d="M15.0031 9.775L10.1093 1.73125C9.79059 1.1875 9.21871 0.859375 8.59059 0.859375H2.41246C1.05309 0.859375 0.199962 2.32188 0.865587 3.50313C2.10275 5.69193 3.84885 7.55058 5.95621 8.92188C6.66871 9.475 7.54996 9.775 8.45934 9.775H15.0031Z" fill="#0074BA"/>
<path d="M22.3992 0.859375H16.2211C15.593 0.859375 15.0211 1.1875 14.7023 1.73125L9.80859 9.775H16.3617C17.2711 9.775 18.143 9.475 18.8648 8.92188C20.9742 7.55313 22.718 5.69688 23.9555 3.50313C24.6117 2.32188 23.7586 0.859375 22.3992 0.859375Z" fill="#00A6ED"/>
<path d="M12.3715 27.1141C17.5699 27.1141 21.784 22.795 21.784 17.4672C21.784 12.1394 17.5699 7.82031 12.3715 7.82031C7.17305 7.82031 2.95898 12.1394 2.95898 17.4672C2.95898 22.795 7.17305 27.1141 12.3715 27.1141Z" fill="#BEBEBE"/>
<path d="M12.37 25.9504C10.1575 25.9504 8.07626 25.0692 6.52001 23.4661C4.95373 21.8628 4.08148 19.7074 4.09189 17.4661C4.09189 15.1973 4.95439 13.0692 6.52001 11.4661C7.27966 10.681 8.18944 10.0568 9.19523 9.63041C10.201 9.20408 11.2823 8.98438 12.3747 8.98438C13.4671 8.98438 14.5484 9.20408 15.5542 9.63041C16.56 10.0568 17.4697 10.681 18.2294 11.4661C21.4544 14.7754 21.4544 20.1567 18.2294 23.4661C16.6544 25.0692 14.5731 25.9504 12.37 25.9504ZM12.3606 10.1348C10.5325 10.1348 8.69501 10.8473 7.30751 12.2817C5.95779 13.6688 5.20699 15.5307 5.21689 17.4661C5.21689 19.4255 5.95751 21.2629 7.30751 22.6504C7.96194 23.33 8.74682 23.8704 9.61511 24.2393C10.4834 24.6082 11.4172 24.798 12.3606 24.7973C14.2731 24.7973 16.0638 24.0379 17.4138 22.6504C20.1981 19.7911 20.1981 15.1411 17.4138 12.2817C16.7599 11.6015 15.9751 11.0606 15.1067 10.6917C14.2383 10.3227 13.3042 10.1333 12.3606 10.1348Z" fill="#E6E6E6"/>
<path d="M14.1314 21.4344H10.4095C10.2302 21.4348 10.0545 21.3838 9.90328 21.2875C9.75207 21.1911 9.63167 21.0534 9.55636 20.8906C9.47817 20.7294 9.44809 20.549 9.4697 20.3711C9.49131 20.1932 9.56371 20.0253 9.67824 19.8875L12.772 16.0906C13.0157 15.7906 12.9032 15.4719 12.8657 15.3781C12.8221 15.269 12.7473 15.1752 12.6505 15.1085C12.5538 15.0417 12.4395 15.0051 12.322 15.0031H12.2751C11.9751 15.0031 11.7032 15.1438 11.5251 15.3875C11.2251 15.8094 10.6345 15.9125 10.2032 15.6125C10.1015 15.5406 10.015 15.4493 9.94864 15.3439C9.88227 15.2385 9.83735 15.121 9.81644 14.9983C9.79554 14.8755 9.79907 14.7497 9.82684 14.6283C9.8546 14.5069 9.90605 14.3921 9.97823 14.2906C10.5032 13.55 11.3564 13.1094 12.2657 13.1094H12.3876C13.3439 13.1562 14.1782 13.7281 14.572 14.6C14.9751 15.5 14.8439 16.5219 14.2251 17.2813L12.397 19.5313H14.122C14.647 19.5313 15.0689 19.9531 15.0689 20.4781C15.0689 21.0031 14.6564 21.4344 14.1314 21.4344Z" fill="#636363"/>
</svg>
