<svg width="24" height="27" viewBox="0 0 24 27" fill="none" xmlns="http://www.w3.org/2000/svg">
<path d="M14.6418 9.22031L9.74801 1.17656C9.42926 0.632813 8.85739 0.304688 8.22926 0.304688H2.05113C0.691759 0.304688 -0.161366 1.76719 0.504259 2.94844C1.74142 5.13724 3.48753 6.99589 5.59488 8.36719C6.30738 8.92031 7.18864 9.22031 8.09801 9.22031H14.6418Z" fill="#0074BA"/>
<path d="M22.0379 0.304688H15.8598C15.2316 0.304688 14.6598 0.632813 14.341 1.17656L9.44727 9.22031H16.0004C16.9098 9.22031 17.7816 8.92031 18.5035 8.36719C20.6129 6.99844 22.3566 5.14219 23.5941 2.94844C24.2504 1.76719 23.3973 0.304688 22.0379 0.304688Z" fill="#00A6ED"/>
<path d="M12.0375 26.5516C17.2359 26.5516 21.45 22.2325 21.45 16.9047C21.45 11.5769 17.2359 7.25781 12.0375 7.25781C6.83906 7.25781 2.625 11.5769 2.625 16.9047C2.625 22.2325 6.83906 26.5516 12.0375 26.5516Z" fill="#FFB02E"/>
<path d="M10.2422 13.4688C10.2422 13.2201 10.341 12.9817 10.5168 12.8058C10.6926 12.63 10.931 12.5312 11.1797 12.5312H12.0459C12.2946 12.5312 12.533 12.63 12.7089 12.8058C12.8847 12.9817 12.9834 13.2201 12.9834 13.4688V19.9928C12.9834 20.2415 12.8847 20.4799 12.7089 20.6557C12.533 20.8315 12.2946 20.9303 12.0459 20.9303C11.7973 20.9303 11.5588 20.8315 11.383 20.6557C11.2072 20.4799 11.1084 20.2415 11.1084 19.9928V14.4034C10.8728 14.3855 10.6527 14.2792 10.4921 14.1059C10.3315 13.9326 10.2422 13.705 10.2422 13.4688Z" fill="#6D4534"/>
<path d="M12.0458 25.3958C9.8333 25.3958 7.75205 24.5145 6.1958 22.9114C4.62951 21.3081 3.75726 19.1527 3.76767 16.9114C3.76767 14.6426 4.63017 12.5145 6.1958 10.9114C6.95544 10.1263 7.86522 9.50207 8.87101 9.07573C9.8768 8.64939 10.9581 8.42969 12.0505 8.42969C13.1429 8.42969 14.2242 8.64939 15.23 9.07573C16.2357 9.50207 17.1455 10.1263 17.9052 10.9114C21.1302 14.2208 21.1302 19.602 17.9052 22.9114C16.3302 24.5145 14.2489 25.3958 12.0458 25.3958ZM12.0364 9.58014C10.2083 9.58014 8.3708 10.2926 6.9833 11.727C5.63366 13.1142 4.88288 14.976 4.89267 16.9114C4.89267 18.8708 5.6333 20.7083 6.9833 22.0958C7.63772 22.7753 8.4226 23.3157 9.29089 23.6846C10.1592 24.0535 11.093 24.2433 12.0364 24.2426C13.9489 24.2426 15.7395 23.4833 17.0895 22.0958C19.8739 19.2364 19.8739 14.5864 17.0895 11.727C16.4356 11.0468 15.6509 10.5059 14.7825 10.137C13.914 9.76804 12.98 9.57862 12.0364 9.58014Z" fill="#FCD53F"/>
</svg>
