<svg width="46" height="42" viewBox="0 0 46 42" fill="none" xmlns="http://www.w3.org/2000/svg">
<path opacity="0.25" d="M11.4993 40.2708H3.83268C3.32435 40.2708 2.83684 40.0909 2.47739 39.7705C2.11795 39.4501 1.91602 39.0156 1.91602 38.5625V24.8958C1.91602 24.4428 2.11795 24.0082 2.47739 23.6879C2.83684 23.3675 3.32435 23.1875 3.83268 23.1875H11.4993C12.0077 23.1875 12.4952 23.3675 12.8546 23.6879C13.2141 24.0082 13.416 24.4428 13.416 24.8958V38.5625C13.416 39.0156 13.2141 39.4501 12.8546 39.7705C12.4952 40.0909 12.0077 40.2708 11.4993 40.2708Z" fill="black"/>
<path d="M26.8333 40.2708H19.1667C18.6583 40.2708 18.1708 40.0909 17.8114 39.7705C17.4519 39.4501 17.25 39.0156 17.25 38.5625V4.39583C17.25 3.94276 17.4519 3.50823 17.8114 3.18786C18.1708 2.86748 18.6583 2.6875 19.1667 2.6875H26.8333C27.3417 2.6875 27.8292 2.86748 28.1886 3.18786C28.5481 3.50823 28.75 3.94276 28.75 4.39583V38.5625C28.75 39.0156 28.5481 39.4501 28.1886 39.7705C27.8292 40.0909 27.3417 40.2708 26.8333 40.2708Z" fill="black"/>
<path opacity="0.5" d="M42.1673 40.2682H34.5007C33.9923 40.2682 33.5048 40.0882 33.1454 39.7679C32.7859 39.4475 32.584 39.013 32.584 38.5599V18.0599C32.584 17.6068 32.7859 17.1723 33.1454 16.8519C33.5048 16.5315 33.9923 16.3516 34.5007 16.3516H42.1673C42.6756 16.3516 43.1632 16.5315 43.5226 16.8519C43.8821 17.1723 44.084 17.6068 44.084 18.0599V38.5599C44.084 39.013 43.8821 39.4475 43.5226 39.7679C43.1632 40.0882 42.6756 40.2682 42.1673 40.2682Z" fill="black"/>
</svg>
