<svg width="22" height="21" viewBox="0 0 22 21" fill="none" xmlns="http://www.w3.org/2000/svg">
<path d="M21.561 8.07172H20.6841V8.03006H10.8864V12.0451H17.0388C16.1412 14.3823 13.7293 16.0601 10.8864 16.0601C7.27917 16.0601 4.35455 13.3635 4.35455 10.0376C4.35455 6.71163 7.27917 4.01503 10.8864 4.01503C12.5514 4.01503 14.0663 4.5942 15.2197 5.54024L18.2989 2.70111C16.3546 1.03036 13.7538 0 10.8864 0C4.87437 0 0 4.49433 0 10.0376C0 15.5808 4.87437 20.0752 10.8864 20.0752C16.8984 20.0752 21.7727 15.5808 21.7727 10.0376C21.7727 9.36456 21.6976 8.7076 21.561 8.07172Z" fill="#FFC107"/>
<path d="M1.25586 5.36559L4.83257 7.78414C5.80037 5.57487 8.14421 4.01503 10.887 4.01503C12.5521 4.01503 14.0669 4.5942 15.2203 5.54024L18.2996 2.70111C16.3552 1.03036 13.7545 0 10.887 0C6.70557 0 3.07933 2.17665 1.25586 5.36559Z" fill="#FF3D00"/>
<path d="M10.8869 20.0733C13.6988 20.0733 16.2539 19.0811 18.1857 17.4675L14.8163 14.8387C13.6866 15.6308 12.3062 16.0593 10.8869 16.0582C8.05536 16.0582 5.6511 14.3935 4.74536 12.0703L1.19531 14.5923C2.99701 17.8429 6.65591 20.0733 10.8869 20.0733Z" fill="#4CAF50"/>
<path d="M21.5613 8.07291H20.6844V8.03125H10.8867V12.0463H17.0391C16.6098 13.1587 15.8364 14.1307 14.8145 14.8422L14.8162 14.8412L18.1855 17.4701C17.9471 17.6698 21.7731 15.0576 21.7731 10.0388C21.7731 9.36575 21.698 8.70879 21.5613 8.07291Z" fill="#1976D2"/>
</svg>
