<svg width="22" height="21" viewBox="0 0 22 21" fill="none" xmlns="http://www.w3.org/2000/svg">
<path d="M20.0692 0H1.70078C0.761043 0 0 0.7028 0 1.56875V18.5112C0 19.378 0.76195 20.08 1.70078 20.08H20.0692C21.009 20.08 21.77 19.3772 21.77 18.5112V1.56875C21.77 0.701963 21.008 0 20.0692 0ZM10.885 15.6875C10.348 15.6875 9.82432 15.654 9.31393 15.5871C8.80415 15.9184 5.85522 17.8285 5.57675 17.8645C5.57675 17.8645 5.46336 17.9055 5.3663 17.8528C5.26925 17.8001 5.28648 17.6612 5.28648 17.6612C5.31551 17.4771 6.05115 15.1361 6.18631 14.7053C3.69636 13.5674 2.04094 11.5519 2.04094 9.25604C2.04094 5.70356 6.00036 2.82375 10.885 2.82375C15.7696 2.82375 19.7291 5.70356 19.7291 9.25604C19.7291 12.8085 15.7696 15.6875 10.885 15.6875ZM7.30202 8.25539H6.5056V11.0515C6.5056 11.2992 6.27702 11.5008 5.99491 11.5008C5.71281 11.5008 5.48513 11.3 5.48513 11.0515V8.25539H4.68871C4.56265 8.2468 4.44477 8.19455 4.35874 8.10912C4.27271 8.02369 4.22489 7.9114 4.22489 7.7948C4.22489 7.67821 4.27271 7.56592 4.35874 7.48049C4.44477 7.39506 4.56265 7.34281 4.68871 7.33422H7.30111C7.42718 7.34281 7.54506 7.39506 7.63109 7.48049C7.71712 7.56592 7.76494 7.67821 7.76494 7.7948C7.76494 7.9114 7.71712 8.02369 7.63109 8.10912C7.54506 8.19455 7.42718 8.2468 7.30111 8.25539M17.2672 10.7294C17.3079 10.7787 17.3376 10.8348 17.3545 10.8947C17.3715 10.9546 17.3754 11.017 17.3661 11.0783C17.3567 11.1394 17.3344 11.1982 17.3003 11.2514C17.2662 11.3045 17.2211 11.3509 17.1675 11.3879C17.0793 11.4496 16.9716 11.4831 16.8609 11.4832C16.7817 11.4835 16.7036 11.4667 16.6327 11.4342C16.5618 11.4016 16.5002 11.3543 16.4527 11.2958L15.2562 9.83418L15.0794 9.99733V11.0239C15.0791 11.1486 15.0254 11.2682 14.9298 11.3565C14.8343 11.4447 14.7048 11.4945 14.5696 11.495C14.4341 11.495 14.3042 11.4453 14.2085 11.357C14.1127 11.2687 14.0589 11.1488 14.0589 11.0239V7.80443C14.0644 7.68304 14.1206 7.56833 14.2157 7.48425C14.3108 7.40017 14.4374 7.35323 14.5691 7.35323C14.7008 7.35323 14.8275 7.40017 14.9225 7.48425C15.0176 7.56833 15.0738 7.68304 15.0794 7.80443V8.81679L16.5035 7.50323C16.5787 7.43509 16.6801 7.3972 16.7856 7.39781C16.9126 7.39781 17.0414 7.44884 17.1375 7.53753C17.2247 7.61692 17.2779 7.7227 17.2872 7.83538C17.2918 7.88785 17.2841 7.94062 17.2647 7.99013C17.2453 8.03963 17.2146 8.08472 17.1747 8.12236L16.0118 9.19413L17.2672 10.7294ZM9.69309 7.79941C9.60692 7.57351 9.34568 7.34091 9.01278 7.33422C8.68079 7.34091 8.41955 7.57351 8.33337 7.79857L7.11335 10.7612C6.95824 11.2046 7.09339 11.3703 7.23399 11.4305C7.33602 11.4722 7.44624 11.4941 7.55782 11.495C7.77098 11.495 7.93335 11.4155 7.98233 11.2875L8.23541 10.6767H9.79106L10.0441 11.2875C10.0931 11.4155 10.2555 11.495 10.4686 11.495C10.5803 11.4939 10.6905 11.4717 10.7925 11.4297C10.9331 11.3703 11.0682 11.2055 10.9131 10.7604L9.69309 7.79941ZM8.50391 9.84338L9.01369 8.50806L9.52256 9.84338H8.50391ZM13.8602 11.0005C13.8569 11.1174 13.8037 11.2283 13.7121 11.3092C13.6205 11.39 13.4981 11.4342 13.3713 11.4322H11.7349C11.608 11.4345 11.4853 11.3903 11.3936 11.3095C11.3018 11.2286 11.2484 11.1175 11.2451 11.0005V7.80443C11.2451 7.54506 11.4791 7.33422 11.7667 7.33422C12.0542 7.33422 12.2874 7.54506 12.2874 7.80443V10.5696H13.3713C13.6407 10.5696 13.8611 10.7629 13.8611 11.0005" fill="#FEE500"/>
</svg>
