<svg width="37" height="35" viewBox="0 0 37 35" fill="none" xmlns="http://www.w3.org/2000/svg">
<path d="M18.6897 14.5589H20.9247L20.3817 16.8057H18.1077L18.6897 14.5589ZM6.72266 6.79557C6.72266 5.85626 7.11774 4.95543 7.82101 4.29124C8.52427 3.62705 9.47809 3.25391 10.4727 3.25391H27.7227C28.2151 3.25391 28.7027 3.34551 29.1577 3.5235C29.6127 3.70149 30.0261 3.96236 30.3743 4.29124C30.7225 4.62011 30.9987 5.01054 31.1872 5.44024C31.3757 5.86993 31.4727 6.33047 31.4727 6.79557V26.9831C31.4727 27.2649 31.3541 27.5351 31.1432 27.7344C30.9322 27.9336 30.646 28.0456 30.3477 28.0456H8.97266C8.97266 28.4213 9.13069 28.7816 9.412 29.0473C9.6933 29.313 10.0748 29.4622 10.4727 29.4622H30.3477C30.646 29.4622 30.9322 29.5742 31.1432 29.7734C31.3541 29.9727 31.4727 30.2429 31.4727 30.5247C31.4727 30.8065 31.3541 31.0768 31.1432 31.276C30.9322 31.4753 30.646 31.5872 30.3477 31.5872H10.4727C9.47809 31.5872 8.52427 31.2141 7.82101 30.5499C7.11774 29.8857 6.72266 28.9849 6.72266 28.0456V6.79557ZM17.2587 11.1447L16.9242 12.4339H15.3177L15.1647 12.4438C14.8953 12.4787 14.6485 12.6046 14.4698 12.7981C14.2911 12.9916 14.1927 13.2397 14.1927 13.4964L14.2032 13.6409C14.2401 13.8953 14.3734 14.1284 14.5783 14.2972C14.7831 14.4659 15.0458 14.5589 15.3177 14.5589H16.3722L15.7902 16.8057L14.5962 16.8072L14.4432 16.8171C14.1738 16.852 13.927 16.9778 13.7483 17.1713C13.5696 17.3648 13.4712 17.6129 13.4712 17.8697L13.4817 18.0142C13.5186 18.2685 13.6519 18.5016 13.8568 18.6704C14.0616 18.8392 14.3243 18.9321 14.5962 18.9322H15.2397L15.0552 19.649L15.0282 19.7907C14.9997 20.0463 15.0704 20.3031 15.227 20.5133C15.3837 20.7235 15.6157 20.8729 15.8802 20.9339L16.0302 20.9594C16.3009 20.9863 16.5727 20.9196 16.7953 20.7716C17.0179 20.6236 17.1761 20.4045 17.2407 20.1547L17.5557 18.9307H19.8642L19.6872 19.6646L19.6632 19.8062C19.6385 20.0624 19.7131 20.3183 19.8731 20.5265C20.0331 20.7346 20.2676 20.8809 20.5332 20.9382L20.6832 20.9608C20.9544 20.9841 21.2254 20.9136 21.4458 20.7625C21.6662 20.6114 21.821 20.3899 21.8817 20.1392L22.1727 18.9307L23.5827 18.9322L23.7357 18.9222C24.0053 18.8876 24.2524 18.7619 24.4314 18.5684C24.6104 18.3749 24.7091 18.1266 24.7092 17.8697L24.6987 17.7252C24.6617 17.4708 24.5284 17.2377 24.3236 17.0689C24.1187 16.9002 23.856 16.8072 23.5842 16.8072H22.6887L23.2332 14.5589H24.3132L24.4662 14.549C24.7355 14.5141 24.9823 14.3882 25.161 14.1947C25.3397 14.0012 25.4381 13.7532 25.4382 13.4964L25.4277 13.3533C25.391 13.0987 25.2579 12.8652 25.053 12.6962C24.8481 12.5271 24.5852 12.434 24.3132 12.4339H23.7492L23.9442 11.6349L23.9682 11.4932C23.9924 11.2373 23.9176 10.9817 23.7577 10.7739C23.5977 10.566 23.3634 10.42 23.0982 10.3627L22.9482 10.3401C22.6772 10.3172 22.4066 10.3878 22.1865 10.5389C21.9664 10.69 21.8117 10.9112 21.7512 11.1617L21.4407 12.4339H19.2387L19.4427 11.6505L19.4697 11.5088C19.5008 11.2402 19.4224 10.9704 19.2504 10.7544C19.0784 10.5384 18.8257 10.3925 18.5437 10.3463C18.2618 10.3 17.9718 10.357 17.7328 10.5056C17.4937 10.6542 17.3237 10.8833 17.2572 11.1462" fill="black"/>
</svg>
