<svg width="51" height="38" viewBox="0 0 51 38" fill="none" xmlns="http://www.w3.org/2000/svg">
<path d="M13.8555 4.48438H47.6055M13.8555 19.2452H47.6055M13.8555 34.006H47.6055" stroke="black" stroke-width="5.625" stroke-linecap="round" stroke-linejoin="round"/>
<path d="M4.48047 6.59238C5.516 6.59238 6.35547 5.64829 6.35547 4.48369C6.35547 3.31909 5.516 2.375 4.48047 2.375C3.44493 2.375 2.60547 3.31909 2.60547 4.48369C2.60547 5.64829 3.44493 6.59238 4.48047 6.59238Z" stroke="black" stroke-width="3.75" stroke-linecap="round" stroke-linejoin="round"/>
<path d="M4.48047 21.3502C5.516 21.3502 6.35547 20.4061 6.35547 19.2415C6.35547 18.0769 5.516 17.1328 4.48047 17.1328C3.44493 17.1328 2.60547 18.0769 2.60547 19.2415C2.60547 20.4061 3.44493 21.3502 4.48047 21.3502Z" stroke="black" stroke-width="3.75" stroke-linecap="round" stroke-linejoin="round"/>
<path d="M4.48047 36.1158C5.516 36.1158 6.35547 35.1717 6.35547 34.0071C6.35547 32.8425 5.516 31.8984 4.48047 31.8984C3.44493 31.8984 2.60547 32.8425 2.60547 34.0071C2.60547 35.1717 3.44493 36.1158 4.48047 36.1158Z" stroke="black" stroke-width="3.75" stroke-linecap="round" stroke-linejoin="round"/>
</svg>
