<svg width="25" height="27" viewBox="0 0 25 27" fill="none" xmlns="http://www.w3.org/2000/svg">
<path d="M6.51942 0.21875V1.10179H7.66833V0.21875H6.51942ZM18.0085 0.21875V1.10179H19.1574V0.21875H18.0085ZM6.26411 2.0951V5.51698H19.4127V2.0951H6.26411ZM6.01582 6.51029C4.32009 6.80362 2.62437 7.09674 0.928711 7.39012L1.15409 8.36412L2.05145 8.20892V12.6364H3.20036V8.01024L6.51942 7.43626V9.93217H7.66833V6.51029H6.01582ZM18.0085 6.51029V9.93217H19.1574V7.43626L22.4765 8.01024V12.6364H23.6254V8.20892L24.5227 8.36412L24.748 7.39012C23.0525 7.09679 21.3567 6.80357 19.6611 6.51029H18.0085ZM6.90239 10.9255L4.34901 12.5813H21.3278L18.7744 10.9255H6.90239ZM2.44489 13.5746L9.99978 18.1473C7.61471 19.6598 5.22926 21.172 2.84432 22.6846L3.52358 23.4856L4.71991 22.7271L4.20878 23.8763L1.82594 25.3184L2.48478 26.1322L12.8384 19.8654C16.2896 21.9543 19.7409 24.0431 23.192 26.1322L23.8509 25.3184L21.468 23.8763L20.9569 22.7271L22.1532 23.4856L22.8325 22.6846C20.4474 21.1721 18.0622 19.6597 15.677 18.1473L23.2319 13.5746H21.2288L14.6987 17.5271L13.8098 16.9633L19.154 13.5746H17.2113L12.8384 16.3473L8.46554 13.5746H6.5228L11.867 16.9633L10.9781 17.527L4.448 13.5745L2.44489 13.5746ZM12.8384 17.5792L13.7048 18.1286L12.8384 18.6531L11.972 18.1286L12.8384 17.5792ZM10.9938 18.7489L11.8369 19.2592L5.89288 22.8569L6.43415 21.6401L10.9938 18.7489ZM14.683 18.7489L19.2427 21.6401L19.7839 22.8569L13.8399 19.2593L14.683 18.7489Z" fill="black"/>
</svg>
