<svg width="16" height="15" viewBox="0 0 16 15" fill="none" xmlns="http://www.w3.org/2000/svg">
<path fill-rule="evenodd" clip-rule="evenodd" d="M0.685756 1.62444C0.776396 1.37252 0.9299 1.1572 1.12685 1.00572C1.3238 0.854243 1.55535 0.773407 1.79222 0.773438H9.77535C11.3633 0.773438 12.8862 1.49962 14.009 2.79223C15.1319 4.08484 15.7627 5.83799 15.7627 7.66602C15.7627 9.49404 15.1319 11.2472 14.009 12.5398C12.8862 13.8324 11.3633 14.5586 9.77535 14.5586H2.59053C2.27294 14.5586 1.96836 14.4134 1.74379 14.1548C1.51922 13.8963 1.39306 13.5457 1.39306 13.1801C1.39306 12.8145 1.51922 12.4638 1.74379 12.2053C1.96836 11.9468 2.27294 11.8016 2.59053 11.8016H9.77535C10.7281 11.8016 11.6419 11.3659 12.3156 10.5903C12.9893 9.81472 13.3678 8.76283 13.3678 7.66602C13.3678 6.5692 12.9893 5.51731 12.3156 4.74174C11.6419 3.96618 10.7281 3.53047 9.77535 3.53047H4.68291L5.43332 4.39434C5.65135 4.65445 5.77191 5.00273 5.76903 5.36417C5.76616 5.72561 5.64008 6.0713 5.41795 6.32677C5.19582 6.58223 4.89542 6.72705 4.58145 6.73002C4.26747 6.73299 3.96505 6.59387 3.7393 6.34264L0.945208 3.1261C0.777869 2.93335 0.663912 2.68783 0.617733 2.42055C0.571554 2.15327 0.595225 1.87624 0.685756 1.62444Z" fill="#9A9A9A"/>
</svg>
