<svg width="23" height="20" viewBox="0 0 23 20" fill="none" xmlns="http://www.w3.org/2000/svg">
<path d="M4.50397 8.78459L10.7192 0.0742188L16.9344 8.78459H4.50397ZM16.9344 19.4306C15.5219 19.4306 14.3214 19.0073 13.333 18.1608C12.3446 17.3143 11.85 16.2858 11.8492 15.0754C11.8492 13.8656 12.3438 12.8375 13.333 11.991C14.3222 11.1445 15.5226 10.7209 16.9344 10.7202C18.347 10.7202 19.5478 11.1438 20.537 11.991C21.5262 12.8381 22.0204 13.8663 22.0196 15.0754C22.0196 16.2852 21.5254 17.3137 20.537 18.1608C19.5486 19.008 18.3477 19.4312 16.9344 19.4306ZM0.548828 18.9467V11.2041H9.58916V18.9467H0.548828ZM16.9344 17.495C17.7255 17.495 18.3941 17.2611 18.9403 16.7933C19.4864 16.3255 19.7595 15.7529 19.7595 15.0754C19.7595 14.3979 19.4864 13.8253 18.9403 13.3575C18.3941 12.8898 17.7255 12.6559 16.9344 12.6559C16.1434 12.6559 15.4748 12.8898 14.9286 13.3575C14.3824 13.8253 14.1093 14.3979 14.1093 15.0754C14.1093 15.7529 14.3824 16.3255 14.9286 16.7933C15.4748 17.2611 16.1434 17.495 16.9344 17.495ZM2.80891 17.011H7.32908V13.1398H2.80891V17.011ZM8.51562 6.84895H12.9228L10.7192 3.80032L8.51562 6.84895Z" fill="black"/>
</svg>
