<svg width="51" height="41" viewBox="0 0 51 41" fill="none" xmlns="http://www.w3.org/2000/svg">
<path d="M13.7012 4.88672H47.4512M13.7012 20.4274H47.4512M13.7012 35.968H47.4512" stroke="black" stroke-width="5.625" stroke-linecap="round" stroke-linejoin="round"/>
<path d="M4.32617 7.10425C5.36171 7.10425 6.20117 6.11028 6.20117 4.88416C6.20117 3.65803 5.36171 2.66406 4.32617 2.66406C3.29064 2.66406 2.45117 3.65803 2.45117 4.88416C2.45117 6.11028 3.29064 7.10425 4.32617 7.10425Z" stroke="black" stroke-width="3.75" stroke-linecap="round" stroke-linejoin="round"/>
<path d="M4.32617 22.6433C5.36171 22.6433 6.20117 21.6493 6.20117 20.4232C6.20117 19.1971 5.36171 18.2031 4.32617 18.2031C3.29064 18.2031 2.45117 19.1971 2.45117 20.4232C2.45117 21.6493 3.29064 22.6433 4.32617 22.6433Z" stroke="black" stroke-width="3.75" stroke-linecap="round" stroke-linejoin="round"/>
<path d="M4.32617 38.1863C5.36171 38.1863 6.20117 37.1923 6.20117 35.9662C6.20117 34.7401 5.36171 33.7461 4.32617 33.7461C3.29064 33.7461 2.45117 34.7401 2.45117 35.9662C2.45117 37.1923 3.29064 38.1863 4.32617 38.1863Z" stroke="black" stroke-width="3.75" stroke-linecap="round" stroke-linejoin="round"/>
</svg>
