<svg width="62" height="54" viewBox="0 0 62 54" fill="none" xmlns="http://www.w3.org/2000/svg">
<path d="M44.398 0.398438C39.0716 0.398438 34.3444 2.50091 31.1416 6.1146C27.9389 2.50091 23.2116 0.398438 17.8852 0.398438C13.246 0.404051 8.79848 2.24944 5.5181 5.52982C2.23772 8.8102 0.392332 13.2577 0.386719 17.8969C0.386719 37.0763 28.4399 52.4007 29.633 53.045C30.0967 53.2947 30.615 53.4254 31.1416 53.4254C31.6682 53.4254 32.1866 53.2947 32.6502 53.045C33.8433 52.4007 61.8965 37.0763 61.8965 17.8969C61.8909 13.2577 60.0455 8.8102 56.7651 5.52982C53.4847 2.24944 49.0372 0.404051 44.398 0.398438ZM42.9425 38.1421C39.2499 41.2755 35.3027 44.0956 31.1416 46.5732C26.9806 44.0956 23.0333 41.2755 19.3407 38.1421C13.5954 33.2134 6.7498 25.697 6.7498 17.8969C6.7498 14.9436 7.92299 12.1113 10.0113 10.023C12.0996 7.93471 14.9319 6.76152 17.8852 6.76152C22.6045 6.76152 26.5549 9.25372 28.196 13.2678C28.4349 13.8529 28.8426 14.3537 29.3672 14.7062C29.8919 15.0587 30.5096 15.2469 31.1416 15.2469C31.7736 15.2469 32.3913 15.0587 32.916 14.7062C33.4406 14.3537 33.8483 13.8529 34.0872 13.2678C35.7283 9.25372 39.6787 6.76152 44.398 6.76152C47.3513 6.76152 50.1836 7.93471 52.2719 10.023C54.3602 12.1113 55.5334 14.9436 55.5334 17.8969C55.5334 25.697 48.6878 33.2134 42.9425 38.1421Z" fill="#FF6969"/>
</svg>
