<svg width="65" height="57" viewBox="0 0 65 57" fill="none" xmlns="http://www.w3.org/2000/svg">
<path d="M56.0461 23.9818C55.2725 23.9818 54.5307 24.2891 53.9837 24.836C53.4367 25.383 53.1294 26.1249 53.1294 26.8984V47.3151C53.1294 48.0887 52.8221 48.8305 52.2751 49.3775C51.7281 49.9245 50.9863 50.2318 50.2127 50.2318H9.3794C8.60585 50.2318 7.86398 49.9245 7.317 49.3775C6.77002 48.8305 6.46273 48.0887 6.46273 47.3151V23.9818C6.46273 23.2082 6.77002 22.4664 7.317 21.9194C7.86398 21.3724 8.60585 21.0651 9.3794 21.0651H15.2127C15.8488 21.0983 16.4782 20.9224 17.0048 20.5643C17.5315 20.2061 17.9265 19.6855 18.1294 19.0818L19.7044 14.2984C19.9001 13.7191 20.2728 13.216 20.7701 12.8601C21.2673 12.5042 21.8638 12.3135 22.4752 12.3151H38.5461C39.3196 12.3151 40.0615 12.0078 40.6085 11.4608C41.1554 10.9139 41.4627 10.172 41.4627 9.39844C41.4627 8.62489 41.1554 7.88302 40.6085 7.33604C40.0615 6.78906 39.3196 6.48177 38.5461 6.48177H22.3294C20.4964 6.4852 18.7108 7.06418 17.2245 8.13699C15.7383 9.20981 14.6265 10.7223 14.0461 12.4609L13.1127 15.3776H9.3794C7.05875 15.3776 4.83315 16.2995 3.19221 17.9404C1.55127 19.5814 0.629395 21.807 0.629395 24.1276V47.4609C0.629395 49.7816 1.55127 52.0072 3.19221 53.6481C4.83315 55.2891 7.05875 56.2109 9.3794 56.2109H50.2127C52.5334 56.2109 54.759 55.2891 56.3999 53.6481C58.0409 52.0072 58.9627 49.7816 58.9627 47.4609V27.0443C58.9825 26.6492 58.9217 26.2541 58.784 25.8833C58.6463 25.5124 58.4346 25.1734 58.1618 24.8869C57.889 24.6005 57.5607 24.3725 57.197 24.2169C56.8333 24.0613 56.4417 23.9813 56.0461 23.9818ZM29.7961 21.0651C27.4886 21.0651 25.233 21.7493 23.3144 23.0313C21.3958 24.3132 19.9005 26.1353 19.0175 28.2671C18.1344 30.3989 17.9034 32.7447 18.3536 35.0078C18.8037 37.2709 19.9149 39.3497 21.5465 40.9813C23.1781 42.613 25.2569 43.7241 27.52 44.1743C29.7831 44.6244 32.1289 44.3934 34.2607 43.5104C36.3925 42.6273 38.2146 41.132 39.4965 39.2134C40.7785 37.2948 41.4627 35.0392 41.4627 32.7318C41.4627 29.6376 40.2336 26.6701 38.0456 24.4822C35.8577 22.2943 32.8903 21.0651 29.7961 21.0651ZM29.7961 38.5651C28.6423 38.5651 27.5145 38.223 26.5552 37.582C25.596 36.941 24.8483 36.03 24.4068 34.9641C23.9653 33.8982 23.8497 32.7253 24.0748 31.5937C24.2999 30.4622 24.8555 29.4228 25.6713 28.607C26.4871 27.7912 27.5265 27.2356 28.658 27.0105C29.7896 26.7854 30.9625 26.901 32.0284 27.3425C33.0943 27.784 34.0053 28.5317 34.6463 29.4909C35.2873 30.4502 35.6294 31.578 35.6294 32.7318C35.6294 34.2789 35.0148 35.7626 33.9209 36.8566C32.8269 37.9505 31.3432 38.5651 29.7961 38.5651ZM61.8794 6.48177H58.9627V3.5651C58.9627 2.79156 58.6554 2.04969 58.1085 1.50271C57.5615 0.955728 56.8196 0.648438 56.0461 0.648438C55.2725 0.648438 54.5307 0.955728 53.9837 1.50271C53.4367 2.04969 53.1294 2.79156 53.1294 3.5651V6.48177H50.2127C49.4392 6.48177 48.6973 6.78906 48.1503 7.33604C47.6034 7.88302 47.2961 8.62489 47.2961 9.39844C47.2961 10.172 47.6034 10.9139 48.1503 11.4608C48.6973 12.0078 49.4392 12.3151 50.2127 12.3151H53.1294V15.2318C53.1294 16.0053 53.4367 16.7472 53.9837 17.2942C54.5307 17.8411 55.2725 18.1484 56.0461 18.1484C56.8196 18.1484 57.5615 17.8411 58.1085 17.2942C58.6554 16.7472 58.9627 16.0053 58.9627 15.2318V12.3151H61.8794C62.653 12.3151 63.3948 12.0078 63.9418 11.4608C64.4888 10.9139 64.7961 10.172 64.7961 9.39844C64.7961 8.62489 64.4888 7.88302 63.9418 7.33604C63.3948 6.78906 62.653 6.48177 61.8794 6.48177Z" fill="#767676"/>
</svg>
