<svg width="46" height="42" viewBox="0 0 46 42" fill="none" xmlns="http://www.w3.org/2000/svg">
<path opacity="0.25" d="M11.5013 40.2708H3.83464C3.3263 40.2708 2.83879 40.0909 2.47935 39.7705C2.1199 39.4501 1.91797 39.0156 1.91797 38.5625V24.8958C1.91797 24.4428 2.1199 24.0082 2.47935 23.6879C2.83879 23.3675 3.3263 23.1875 3.83464 23.1875H11.5013C12.0096 23.1875 12.4971 23.3675 12.8566 23.6879C13.216 24.0082 13.418 24.4428 13.418 24.8958V38.5625C13.418 39.0156 13.216 39.4501 12.8566 39.7705C12.4971 40.0909 12.0096 40.2708 11.5013 40.2708Z" fill="black"/>
<path d="M26.8333 40.2708H19.1667C18.6583 40.2708 18.1708 40.0909 17.8114 39.7705C17.4519 39.4501 17.25 39.0156 17.25 38.5625V4.39583C17.25 3.94276 17.4519 3.50823 17.8114 3.18786C18.1708 2.86748 18.6583 2.6875 19.1667 2.6875H26.8333C27.3417 2.6875 27.8292 2.86748 28.1886 3.18786C28.5481 3.50823 28.75 3.94276 28.75 4.39583V38.5625C28.75 39.0156 28.5481 39.4501 28.1886 39.7705C27.8292 40.0909 27.3417 40.2708 26.8333 40.2708Z" fill="black"/>
<path opacity="0.5" d="M42.1654 40.2682H34.4987C33.9904 40.2682 33.5029 40.0882 33.1434 39.7679C32.784 39.4475 32.582 39.013 32.582 38.5599V18.0599C32.582 17.6068 32.784 17.1723 33.1434 16.8519C33.5029 16.5315 33.9904 16.3516 34.4987 16.3516H42.1654C42.6737 16.3516 43.1612 16.5315 43.5207 16.8519C43.8801 17.1723 44.082 17.6068 44.082 18.0599V38.5599C44.082 39.013 43.8801 39.4475 43.5207 39.7679C43.1612 40.0882 42.6737 40.2682 42.1654 40.2682Z" fill="black"/>
</svg>
