<svg width="31" height="17" viewBox="0 0 31 17" fill="none" xmlns="http://www.w3.org/2000/svg">
<path d="M18.1199 13.4894L18.1148 13.4841L18.0762 13.4431L18.0708 13.4374L18.0656 13.4316L11.0516 5.51078C10.4658 4.93628 9.72402 4.54644 8.91837 4.38988C8.10743 4.23228 7.26799 4.31807 6.50569 4.63646C5.74339 4.95484 5.0923 5.49158 4.63435 6.17914C4.17639 6.86671 3.93204 7.67436 3.93204 8.50048C3.93204 9.32659 4.17639 10.1342 4.63435 10.8218C5.0923 11.5094 5.74339 12.0461 6.50569 12.3645C7.26799 12.6829 8.10743 12.7687 8.91837 12.6111C9.72403 12.4545 10.4658 12.0647 11.0516 11.4902L12.0384 10.3759C12.2911 10.0901 12.647 9.91637 13.0279 9.89296C13.4087 9.86955 13.7832 9.99837 14.069 10.2511C14.3548 10.5038 14.5286 10.8597 14.552 11.2405C14.5754 11.6213 14.4466 11.9958 14.1938 12.2817L14.1935 12.282L13.1752 13.4316L13.17 13.4374L13.1647 13.4431L13.126 13.4841L13.121 13.4895L13.1158 13.4947C12.128 14.4823 10.8696 15.1549 9.49963 15.4273C8.12966 15.6998 6.70966 15.5599 5.4192 15.0253C4.12874 14.4907 3.02577 13.5855 2.24977 12.4241C1.47376 11.2627 1.05957 9.89728 1.05957 8.50048C1.05957 7.10368 1.47376 5.73824 2.24977 4.57684C3.02577 3.41543 4.12874 2.51021 5.4192 1.97565C6.70966 1.44108 8.12966 1.30118 9.49963 1.57363C10.8696 1.84608 12.128 2.51864 13.1158 3.50628L13.121 3.51149L13.126 3.51685L13.1647 3.55786L13.17 3.56354L13.1752 3.56939L20.1893 11.4902C20.7751 12.0647 21.5168 12.4545 22.3225 12.6111C23.1334 12.7687 23.9729 12.6829 24.7352 12.3645C25.4975 12.0461 26.1485 11.5094 26.6065 10.8218C27.0645 10.1342 27.3088 9.32659 27.3088 8.50048C27.3088 7.67436 27.0645 6.86671 26.6065 6.17914C26.1485 5.49158 25.4975 4.95484 24.7352 4.63646C23.9729 4.31807 23.1334 4.23228 22.3225 4.38988C21.5168 4.54644 20.7751 4.93628 20.1893 5.51078L19.2024 6.62503L18.1199 13.4894ZM18.1199 13.4894L18.1251 13.4946M18.1199 13.4894L18.1251 13.4946M18.1251 13.4946C19.1128 14.4824 20.3712 15.1552 21.7413 15.4277C23.1113 15.7003 24.5315 15.5604 25.822 15.0258C27.1126 14.4912 28.2156 13.5859 28.9917 12.4244C29.7677 11.2629 30.1818 9.89739 30.1818 8.50051L18.1251 13.4946ZM17.503 6.37528L17.1718 6.74986C16.886 6.49715 16.7123 6.14124 16.6889 5.76043C16.6655 5.37962 16.7943 5.00511 17.047 4.71928L17.0473 4.71893L18.0657 3.56932L18.0708 3.56352L18.0762 3.55787L18.1148 3.51686L18.1199 3.51151L18.1251 3.50632C19.1128 2.5185 20.3712 1.84578 21.7413 1.57323C23.1113 1.30068 24.5315 1.44055 25.822 1.97513C27.1126 2.50972 28.2156 3.41502 28.9917 4.57653C29.7677 5.73803 30.1818 7.10356 30.1818 8.50044L17.503 6.37528ZM17.503 6.37528L17.1719 6.74986C17.4577 7.00258 17.8322 7.1314 18.213 7.10799C18.5937 7.08459 18.9495 6.91098 19.2022 6.62534L17.503 6.37528Z" fill="#5E5E5E" stroke="#5E5E5E"/>
</svg>
