<svg width="22" height="14" viewBox="0 0 22 14" fill="none" xmlns="http://www.w3.org/2000/svg">
<path fill-rule="evenodd" clip-rule="evenodd" d="M1.86525 0.609375C1.52027 0.609451 1.18305 0.715617 0.896236 0.914451C0.609419 1.11329 0.385876 1.39586 0.253868 1.72645C0.12186 2.05705 0.0873125 2.42081 0.154595 2.77177C0.221877 3.12272 0.387968 3.44511 0.631869 3.69817L9.3545 12.7456C9.68164 13.0848 10.1253 13.2754 10.5879 13.2754C11.0505 13.2754 11.4941 13.0848 11.8213 12.7456L20.5439 3.69817C20.7878 3.44511 20.9539 3.12272 21.0212 2.77177C21.0884 2.42081 21.0539 2.05705 20.9219 1.72645C20.7899 1.39586 20.5663 1.11329 20.2795 0.914451C19.9927 0.715617 19.6555 0.609451 19.3105 0.609375H1.86525Z" fill="black"/>
</svg>
