<svg width="43" height="34" viewBox="0 0 43 34" fill="none" xmlns="http://www.w3.org/2000/svg">
<path d="M4.35193 0.394531L8.55932 8.72786H14.8704L10.663 0.394531H14.8704L19.0778 8.72786H25.3889L21.1815 0.394531H25.3889L29.5963 8.72786H35.9074L31.7 0.394531H38.0111C39.1681 0.394531 40.159 0.802864 40.9836 1.61953C41.8083 2.4362 42.2199 3.41675 42.2185 4.5612V29.5612C42.2185 30.707 41.8069 31.6883 40.9836 32.5049C40.1604 33.3216 39.1695 33.7293 38.0111 33.7279H4.35193C3.19489 33.7279 2.20475 33.3202 1.38151 32.5049C0.558259 31.6897 0.145934 30.7084 0.144531 29.5612V4.5612C0.144531 3.41536 0.556856 2.43481 1.38151 1.61953C2.20616 0.804253 3.1963 0.39592 4.35193 0.394531Z" fill="#767676"/>
</svg>
