<svg width="26" height="24" viewBox="0 0 26 24" fill="none" xmlns="http://www.w3.org/2000/svg">
<path d="M22.0683 7.78442C22.0683 8.04012 21.9668 8.28534 21.786 8.46614C21.6052 8.64695 21.3599 8.74852 21.1042 8.74852C20.8485 8.74852 20.6033 8.64695 20.4225 8.46614C20.2417 8.28534 20.1401 8.04012 20.1401 7.78442C20.1401 7.52872 20.2417 7.2835 20.4225 7.10269C20.6033 6.92189 20.8485 6.82031 21.1042 6.82031C21.3599 6.82031 21.6052 6.92189 21.786 7.10269C21.9668 7.2835 22.0683 7.52872 22.0683 7.78442Z" fill="black"/>
<path d="M22.0683 7.78358C22.0683 8.03928 21.9668 8.2845 21.786 8.46531C21.6052 8.64611 21.3599 8.74769 21.1042 8.74769C20.8485 8.74769 20.6033 8.64611 20.4225 8.46531C20.2417 8.2845 20.1401 8.03928 20.1401 7.78358C20.1401 7.52788 20.2417 7.28266 20.4225 7.10185C20.6033 6.92105 20.8485 6.81947 21.1042 6.81947C21.3599 6.81947 21.6052 6.92105 21.786 7.10185C21.9668 7.28266 22.0683 7.52788 22.0683 7.78358ZM22.0683 7.78358V2.96305C22.0683 2.79259 22.1361 2.6291 22.2566 2.50857C22.3771 2.38803 22.5406 2.32031 22.7111 2.32031H24.4251" stroke="black" stroke-width="2" stroke-linecap="round"/>
<path d="M16.9266 17.3162C16.3584 17.3162 15.8135 17.0904 15.4117 16.6887C15.0099 16.2869 14.7842 15.7419 14.7842 15.1737C14.7842 14.6055 15.0099 14.0606 15.4117 13.6588C15.8135 13.257 16.3584 13.0312 16.9266 13.0312C17.4949 13.0312 18.0398 13.257 18.4416 13.6588C18.8434 14.0606 19.0691 14.6055 19.0691 15.1737C19.0691 15.7419 18.8434 16.2869 18.4416 16.6887C18.0398 17.0904 17.4949 17.3162 16.9266 17.3162Z" stroke="black" stroke-width="2" stroke-linecap="round" stroke-linejoin="round"/>
<path d="M23.2997 13.0335C22.763 18.4464 18.1953 22.6746 12.641 22.6746C6.7246 22.6746 1.92871 17.8787 1.92871 11.9623C1.92871 6.0459 6.7246 1.25001 12.641 1.25001C14.1155 1.24812 15.5744 1.55158 16.9259 2.14127" stroke="black" stroke-width="2" stroke-linecap="round" stroke-linejoin="round"/>
<path d="M8.89108 8.74701C8.74903 8.74701 8.61279 8.69058 8.51235 8.59013C8.4119 8.48969 8.35547 8.35345 8.35547 8.2114C8.35547 8.06934 8.4119 7.93311 8.51235 7.83266C8.61279 7.73221 8.74903 7.67578 8.89108 7.67578C9.03314 7.67578 9.16937 7.73221 9.26982 7.83266C9.37027 7.93311 9.4267 8.06934 9.4267 8.2114C9.4267 8.35345 9.37027 8.48969 9.26982 8.59013C9.16937 8.69058 9.03314 8.74701 8.89108 8.74701ZM16.3897 8.74701C16.2476 8.74701 16.1114 8.69058 16.0109 8.59013C15.9105 8.48969 15.8541 8.35345 15.8541 8.2114C15.8541 8.06934 15.9105 7.93311 16.0109 7.83266C16.1114 7.73221 16.2476 7.67578 16.3897 7.67578C16.5317 7.67578 16.668 7.73221 16.7684 7.83266C16.8689 7.93311 16.9253 8.06934 16.9253 8.2114C16.9253 8.35345 16.8689 8.48969 16.7684 8.59013C16.668 8.69058 16.5317 8.74701 16.3897 8.74701Z" fill="black" stroke="black" stroke-width="2" stroke-linecap="round" stroke-linejoin="round"/>
</svg>
