<svg width="25" height="25" viewBox="0 0 25 25" fill="none" xmlns="http://www.w3.org/2000/svg">
<path d="M11.5459 21.1758L8.3709 18.3258C7.1709 17.2424 6.14157 16.2758 5.2829 15.4258C4.42423 14.5758 3.7159 13.7758 3.1579 13.0258C2.5999 12.2758 2.19157 11.5508 1.9329 10.8508C1.67423 10.1508 1.54523 9.41745 1.5459 8.65078C1.5459 7.08412 2.0709 5.78011 3.1209 4.73878C4.1709 3.69745 5.47923 3.17645 7.0459 3.17578C7.91257 3.17578 8.73757 3.35911 9.5209 3.72578C10.3042 4.09245 10.9792 4.60911 11.5459 5.27578C12.1126 4.60911 12.7876 4.09245 13.5709 3.72578C14.3542 3.35911 15.1792 3.17578 16.0459 3.17578C17.3959 3.17578 18.5292 3.55511 19.4459 4.31378C20.3626 5.07245 20.9876 6.02645 21.3209 7.17578H19.1959C18.8959 6.50911 18.4542 6.00911 17.8709 5.67578C17.2876 5.34245 16.6792 5.17578 16.0459 5.17578C15.1959 5.17578 14.4626 5.40511 13.8459 5.86378C13.2292 6.32245 12.6542 6.92645 12.1209 7.67578H10.9709C10.4542 6.92578 9.86657 6.32178 9.2079 5.86378C8.54923 5.40578 7.82857 5.17645 7.0459 5.17578C6.0959 5.17578 5.2749 5.50511 4.5829 6.16378C3.8909 6.82245 3.54523 7.65111 3.5459 8.64978C3.5459 9.19978 3.66257 9.75811 3.8959 10.3248C4.12923 10.8914 4.5459 11.5458 5.1459 12.2878C5.7459 13.0291 6.56257 13.8958 7.5959 14.8878C8.62923 15.8798 9.9459 17.0758 11.5459 18.4758C11.9792 18.0924 12.4876 17.6508 13.0709 17.1508C13.6542 16.6508 14.1209 16.2341 14.4709 15.9008L14.6959 16.1258L15.1839 16.6138L15.6709 17.1008L15.8959 17.3258C15.5292 17.6591 15.0626 18.0718 14.4959 18.5638C13.9292 19.0558 13.4292 19.4931 12.9959 19.8758L11.5459 21.1758ZM18.5459 17.1758V14.1758H15.5459V12.1758H18.5459V9.17578H20.5459V12.1758H23.5459V14.1758H20.5459V17.1758H18.5459Z" fill="black"/>
</svg>
