<svg width="23" height="20" viewBox="0 0 23 20" fill="none" xmlns="http://www.w3.org/2000/svg">
<path d="M4.50397 8.75725L10.7192 0.046875L16.9344 8.75725H4.50397ZM16.9344 19.4033C15.5219 19.4033 14.3214 18.98 13.333 18.1335C12.3446 17.287 11.85 16.2585 11.8492 15.0481C11.8492 13.8383 12.3438 12.8101 13.333 11.9636C14.3222 11.1171 15.5226 10.6935 16.9344 10.6929C18.347 10.6929 19.5478 11.1165 20.537 11.9636C21.5262 12.8108 22.0204 13.8389 22.0196 15.0481C22.0196 16.2578 21.5254 17.2863 20.537 18.1335C19.5486 18.9806 18.3477 19.4039 16.9344 19.4033ZM0.548828 18.9193V11.1768H9.58916V18.9193H0.548828ZM16.9344 17.4676C17.7255 17.4676 18.3941 17.2337 18.9403 16.7659C19.4864 16.2982 19.7595 15.7255 19.7595 15.0481C19.7595 14.3706 19.4864 13.798 18.9403 13.3302C18.3941 12.8624 17.7255 12.6285 16.9344 12.6285C16.1434 12.6285 15.4748 12.8624 14.9286 13.3302C14.3824 13.798 14.1093 14.3706 14.1093 15.0481C14.1093 15.7255 14.3824 16.2982 14.9286 16.7659C15.4748 17.2337 16.1434 17.4676 16.9344 17.4676ZM2.80891 16.9837H7.32908V13.1124H2.80891V16.9837ZM8.51562 6.82161H12.9228L10.7192 3.77298L8.51562 6.82161Z" fill="black"/>
</svg>
