<svg width="23" height="24" viewBox="0 0 23 24" fill="none" xmlns="http://www.w3.org/2000/svg">
<path d="M11.6494 21.8908L6.90171 22.3014L7.31318 17.5635L17.1883 7.77179C17.3357 7.62136 17.5117 7.50184 17.7061 7.42024C17.9004 7.33864 18.1091 7.29661 18.3199 7.29661C18.5307 7.29661 18.7394 7.33864 18.9337 7.42024C19.128 7.50184 19.304 7.62136 19.4514 7.77179L21.4613 9.7933C21.6094 9.94023 21.727 10.1149 21.8072 10.3074C21.8874 10.4998 21.9287 10.7062 21.9287 10.9146C21.9287 11.123 21.8874 11.3294 21.8072 11.5219C21.727 11.7143 21.6094 11.889 21.4613 12.0359L11.6494 21.8908ZM2.0211 7.31379C1.46562 7.21745 1.46562 6.42148 2.0211 6.32514C3.00463 6.15431 3.91491 5.69507 4.63589 5.00595C5.35686 4.31683 5.85587 3.42906 6.06929 2.45583L6.10252 2.30263C6.2228 1.75619 7.00458 1.75145 7.13118 2.29947L7.17075 2.47636C7.39199 3.44527 7.89516 4.32734 8.61708 5.01181C9.339 5.69628 10.2475 6.15263 11.2284 6.32356C11.7871 6.41832 11.7871 7.21903 11.2284 7.31695C10.2474 7.48747 9.33873 7.94346 8.61652 8.62766C7.89432 9.31185 7.39079 10.1937 7.16917 11.1626L7.12802 11.341C7.003 11.8875 6.22121 11.8843 6.10094 11.3363L6.06929 11.1831C5.85565 10.2094 5.35618 9.32135 4.63459 8.63219C3.91301 7.94303 3.00205 7.48404 2.01794 7.31379H2.0211Z" fill="#FFC107" stroke="#3F3F3F" stroke-width="2.14286" stroke-linecap="round" stroke-linejoin="round"/>
</svg>
