<svg width="23" height="22" viewBox="0 0 23 22" fill="none" xmlns="http://www.w3.org/2000/svg">
<path d="M18.7013 0.382565C19.1999 0.117901 19.8275 0.287451 20.1026 0.767155L20.3089 1.12693C21.1384 2.56191 21.1599 4.25741 20.455 5.67585C21.6026 6.85857 22.299 8.44242 22.299 10.1834C22.299 10.9485 22.1657 11.6846 21.9164 12.3669C21.6542 13.0823 20.6914 13.041 20.3347 12.3628L19.8318 11.3951C19.6555 11.0601 19.2988 10.8451 18.9077 10.8451H15.7656C15.194 10.8451 14.7341 10.4026 14.7341 9.85258V6.54428C14.7341 5.99427 14.2742 5.55179 13.7025 5.55179H12.9675C12.052 5.55179 11.678 4.56343 12.5033 4.19125C13.3887 3.79012 14.3773 3.56681 15.4218 3.56681C16.6382 3.56681 17.7772 3.86869 18.7658 4.40215C19.0022 3.64951 18.9248 2.81417 18.5079 2.09461L18.3016 1.73483C18.0265 1.25513 18.2027 0.651365 18.7013 0.386701V0.382565ZM7.65057 14.5462L11.6393 6.87511H13.3586V10.1834C13.3586 11.2793 14.2828 12.1684 15.4218 12.1684H18.697L19.7243 14.1451C16.2943 18.6154 10.7926 21.4316 4.72777 21.4316H2.20041C1.14734 21.4316 0.291992 20.6087 0.291992 19.5955C0.291992 18.7354 0.915236 17.991 1.78778 17.8049L3.9283 17.3459C5.54444 16.9985 6.91558 15.9729 7.65487 14.5462H7.65057Z" fill="black"/>
</svg>
