<svg width="24" height="23" viewBox="0 0 24 23" fill="none" xmlns="http://www.w3.org/2000/svg">
<path fill-rule="evenodd" clip-rule="evenodd" d="M20.3292 0.282427C20.6701 0.225569 21.0194 0.243642 21.3526 0.335392C21.6858 0.427142 21.9951 0.590366 22.2589 0.813718C22.5227 1.03707 22.7347 1.31519 22.8801 1.62875C23.0255 1.9423 23.1009 2.28377 23.1011 2.62941V16.6971C23.1008 17.745 22.7548 18.7636 22.1167 19.5948C21.4786 20.4261 20.5841 21.0236 19.5718 21.2946C18.5595 21.5657 17.4861 21.4951 16.518 21.094C15.5499 20.6928 14.7412 19.9834 14.2174 19.0758C13.6935 18.1682 13.4837 17.1132 13.6206 16.0742C13.7575 15.0353 14.2333 14.0705 14.9744 13.3295C15.7154 12.5886 16.6802 12.1128 17.7192 11.9761C18.7582 11.8393 19.8132 12.0492 20.7208 12.5732V7.39004L8.81919 9.37403V17.8872C8.81919 17.9586 8.81324 18.0265 8.80134 18.0943C8.88678 19.0095 8.66712 19.9273 8.17656 20.7046C7.68601 21.4819 6.95212 22.0752 6.08924 22.3919C5.22635 22.7087 4.28293 22.7311 3.40596 22.4558C2.52899 22.1804 1.76773 21.6227 1.24077 20.8696C0.713816 20.1164 0.450764 19.2102 0.4926 18.2919C0.534436 17.3737 0.87881 16.4951 1.47207 15.793C2.06533 15.0909 2.87415 14.6047 3.77253 14.4103C4.6709 14.2158 5.60837 14.3239 6.43888 14.7178V4.6134C6.43881 4.04994 6.63863 3.50472 7.00279 3.07474C7.36695 2.64477 7.87184 2.35792 8.42763 2.26523L20.3292 0.282427ZM8.81919 6.96158L20.7208 4.97759V2.62941L8.81919 4.6134V6.96158Z" fill="black"/>
</svg>
