<svg width="34" height="34" viewBox="0 0 34 34" fill="none" xmlns="http://www.w3.org/2000/svg">
<path d="M8.70158 0.75C9.39191 0.75 9.95114 1.28766 9.95114 1.95144V4.37423C11.0597 4.35432 12.3026 4.35432 13.7015 4.35432H20.3642C21.7614 4.35432 23.0044 4.35432 24.1129 4.37589V1.9531C24.1129 1.28932 24.6721 0.75 25.3624 0.75C26.0528 0.75 26.612 1.28766 26.612 1.95144V4.48376C29.0099 4.66796 30.5847 5.12099 31.7397 6.23447C32.898 7.3463 33.3693 8.85972 33.5601 11.1664L33.6929 12.3661H0.503906V11.1647C0.696402 8.85806 1.16769 7.34465 2.32432 6.23282C3.48096 5.12099 5.05411 4.6663 7.45201 4.4821V1.95144C7.45201 1.28766 8.01125 0.75 8.70158 0.75Z" fill="black"/>
<path opacity="0.5" d="M2.80298 31.6417L2.80268 31.6414C1.93875 30.7782 1.4787 29.6332 1.24305 27.8811C1.00547 26.1146 1.0044 23.8075 1.0044 20.6644V17.3455C1.0044 17.14 1.0043 16.9111 1.00418 16.6666C1.00362 15.4653 1.00288 13.8891 1.01383 12.8672H33.1729C33.1883 14.0979 33.1934 16.1326 33.1934 17.3455V20.6644C33.1934 23.8083 33.1923 26.1159 32.9547 27.8823C32.7191 29.6345 32.259 30.779 31.3952 31.6413L31.3949 31.6416C30.5309 32.5057 29.3853 32.9657 27.6332 33.2014C25.8667 33.4389 23.56 33.44 20.4178 33.44H13.78C10.6361 33.44 8.32897 33.4389 6.5627 33.2014C4.81086 32.9657 3.6662 32.5057 2.80298 31.6417Z" fill="black" stroke="black"/>
<path d="M27.054 25.641C27.054 26.0811 26.8792 26.5032 26.568 26.8144C26.2568 27.1256 25.8347 27.3004 25.3946 27.3004C24.9544 27.3004 24.5324 27.1256 24.2211 26.8144C23.9099 26.5032 23.7351 26.0811 23.7351 25.641C23.7351 25.2009 23.9099 24.7788 24.2211 24.4676C24.5324 24.1564 24.9544 23.9815 25.3946 23.9815C25.8347 23.9815 26.2568 24.1564 26.568 24.4676C26.8792 24.7788 27.054 25.2009 27.054 25.641ZM27.054 19.0032C27.054 19.4433 26.8792 19.8654 26.568 20.1766C26.2568 20.4878 25.8347 20.6626 25.3946 20.6626C24.9544 20.6626 24.5324 20.4878 24.2211 20.1766C23.9099 19.8654 23.7351 19.4433 23.7351 19.0032C23.7351 18.5631 23.9099 18.141 24.2211 17.8298C24.5324 17.5186 24.9544 17.3438 25.3946 17.3438C25.8347 17.3438 26.2568 17.5186 26.568 17.8298C26.8792 18.141 27.054 18.5631 27.054 19.0032ZM18.7568 25.641C18.7568 26.0811 18.5819 26.5032 18.2707 26.8144C17.9595 27.1256 17.5374 27.3004 17.0973 27.3004C16.6572 27.3004 16.2351 27.1256 15.9239 26.8144C15.6127 26.5032 15.4379 26.0811 15.4379 25.641C15.4379 25.2009 15.6127 24.7788 15.9239 24.4676C16.2351 24.1564 16.6572 23.9815 17.0973 23.9815C17.5374 23.9815 17.9595 24.1564 18.2707 24.4676C18.5819 24.7788 18.7568 25.2009 18.7568 25.641ZM18.7568 19.0032C18.7568 19.4433 18.5819 19.8654 18.2707 20.1766C17.9595 20.4878 17.5374 20.6626 17.0973 20.6626C16.6572 20.6626 16.2351 20.4878 15.9239 20.1766C15.6127 19.8654 15.4379 19.4433 15.4379 19.0032C15.4379 18.5631 15.6127 18.141 15.9239 17.8298C16.2351 17.5186 16.6572 17.3438 17.0973 17.3438C17.5374 17.3438 17.9595 17.5186 18.2707 17.8298C18.5819 18.141 18.7568 18.5631 18.7568 19.0032ZM10.4595 25.641C10.4595 26.0811 10.2847 26.5032 9.97348 26.8144C9.66227 27.1256 9.24019 27.3004 8.80007 27.3004C8.35996 27.3004 7.93787 27.1256 7.62667 26.8144C7.31546 26.5032 7.14062 26.0811 7.14062 25.641C7.14062 25.2009 7.31546 24.7788 7.62667 24.4676C7.93787 24.1564 8.35996 23.9815 8.80007 23.9815C9.24019 23.9815 9.66227 24.1564 9.97348 24.4676C10.2847 24.7788 10.4595 25.2009 10.4595 25.641ZM10.4595 19.0032C10.4595 19.4433 10.2847 19.8654 9.97348 20.1766C9.66227 20.4878 9.24019 20.6626 8.80007 20.6626C8.35996 20.6626 7.93787 20.4878 7.62667 20.1766C7.31546 19.8654 7.14062 19.4433 7.14062 19.0032C7.14062 18.5631 7.31546 18.141 7.62667 17.8298C7.93787 17.5186 8.35996 17.3438 8.80007 17.3438C9.24019 17.3438 9.66227 17.5186 9.97348 17.8298C10.2847 18.141 10.4595 18.5631 10.4595 19.0032Z" fill="black"/>
</svg>
