<svg width="22" height="18" viewBox="0 0 22 18" fill="none" xmlns="http://www.w3.org/2000/svg">
<path d="M10 18L6.825 15.15C5.625 14.0667 4.59567 13.1 3.737 12.25C2.87834 11.4 2.17 10.6 1.612 9.85C1.054 9.1 0.645669 8.375 0.387003 7.675C0.128336 6.975 -0.000664096 6.24167 2.57069e-06 5.475C2.57069e-06 3.90833 0.525003 2.60433 1.575 1.563C2.625 0.521667 3.93334 0.000666667 5.5 0C6.36667 0 7.19167 0.183333 7.975 0.55C8.75834 0.916667 9.43334 1.43333 10 2.1C10.5667 1.43333 11.2417 0.916667 12.025 0.55C12.8083 0.183333 13.6333 0 14.5 0C15.85 0 16.9833 0.379333 17.9 1.138C18.8167 1.89667 19.4417 2.85067 19.775 4H17.65C17.35 3.33333 16.9083 2.83333 16.325 2.5C15.7417 2.16667 15.1333 2 14.5 2C13.65 2 12.9167 2.22933 12.3 2.688C11.6833 3.14667 11.1083 3.75067 10.575 4.5H9.425C8.90834 3.75 8.32067 3.146 7.662 2.688C7.00334 2.23 6.28267 2.00067 5.5 2C4.55 2 3.729 2.32933 3.037 2.988C2.345 3.64667 1.99934 4.47533 2 5.474C2 6.024 2.11667 6.58233 2.35 7.149C2.58334 7.71567 3 8.37 3.6 9.112C4.2 9.85333 5.01667 10.72 6.05 11.712C7.08334 12.704 8.4 13.9 10 15.3C10.4333 14.9167 10.9417 14.475 11.525 13.975C12.1083 13.475 12.575 13.0583 12.925 12.725L13.15 12.95L13.638 13.438L14.125 13.925L14.35 14.15C13.9833 14.4833 13.5167 14.896 12.95 15.388C12.3833 15.88 11.8833 16.3173 11.45 16.7L10 18ZM17 14V11H14V9H17V6H19V9H22V11H19V14H17Z" fill="black"/>
</svg>
