<svg width="25" height="29" viewBox="0 0 25 29" fill="none" xmlns="http://www.w3.org/2000/svg">
<path d="M11.967 11.305H14.202L13.659 13.5518H11.385L11.967 11.305ZM0 3.54167C0 2.60236 0.395088 1.70152 1.09835 1.03733C1.80161 0.373139 2.75544 0 3.75 0H21C21.4925 0 21.9801 0.0916079 22.4351 0.269593C22.89 0.447579 23.3034 0.708456 23.6517 1.03733C23.9999 1.3662 24.2761 1.75663 24.4645 2.18633C24.653 2.61602 24.75 3.07657 24.75 3.54167V23.7292C24.75 24.011 24.6315 24.2812 24.4205 24.4805C24.2095 24.6797 23.9234 24.7917 23.625 24.7917H2.25C2.25 25.1674 2.40804 25.5277 2.68934 25.7934C2.97064 26.0591 3.35218 26.2083 3.75 26.2083H23.625C23.9234 26.2083 24.2095 26.3203 24.4205 26.5195C24.6315 26.7188 24.75 26.989 24.75 27.2708C24.75 27.5526 24.6315 27.8229 24.4205 28.0221C24.2095 28.2214 23.9234 28.3333 23.625 28.3333H3.75C2.75544 28.3333 1.80161 27.9602 1.09835 27.296C0.395088 26.6318 0 25.731 0 24.7917V3.54167ZM10.536 7.89083L10.2015 9.18H8.595L8.442 9.18992C8.17267 9.22484 7.92584 9.35068 7.74715 9.54418C7.56846 9.73768 7.47001 9.98575 7.47 10.2425L7.4805 10.387C7.51747 10.6414 7.65072 10.8745 7.8556 11.0432C8.06049 11.212 8.32314 11.305 8.595 11.305H9.6495L9.0675 13.5518L7.8735 13.5533L7.7205 13.5632C7.45117 13.5981 7.20434 13.7239 7.02565 13.9174C6.84696 14.1109 6.74851 14.359 6.7485 14.6158L6.759 14.7603C6.79597 15.0146 6.92922 15.2477 7.1341 15.4165C7.33899 15.5853 7.60164 15.6782 7.8735 15.6783H8.517L8.3325 16.3951L8.3055 16.5368C8.27705 16.7924 8.3477 17.0491 8.50436 17.2594C8.66103 17.4696 8.89308 17.619 9.1575 17.68L9.3075 17.7055C9.5782 17.7324 9.85003 17.6656 10.0726 17.5177C10.2952 17.3697 10.4534 17.1506 10.518 16.9008L10.833 15.6768H13.1415L12.9645 16.4107L12.9405 16.5523C12.9159 16.8085 12.9905 17.0644 13.1505 17.2726C13.3105 17.4807 13.545 17.627 13.8105 17.6843L13.9605 17.7069C14.2317 17.7302 14.5027 17.6597 14.7231 17.5086C14.9435 17.3575 15.0984 17.136 15.159 16.8853L15.45 15.6768L16.86 15.6783L17.013 15.6683C17.2826 15.6337 17.5298 15.508 17.7088 15.3145C17.8878 15.121 17.9864 14.8727 17.9865 14.6158L17.976 14.4713C17.939 14.2169 17.8058 13.9838 17.6009 13.815C17.396 13.6462 17.1334 13.5533 16.8615 13.5533H15.966L16.5105 11.305H17.5905L17.7435 11.2951C18.0128 11.2602 18.2597 11.1343 18.4383 10.9408C18.617 10.7473 18.7155 10.4993 18.7155 10.2425L18.705 10.0994C18.6684 9.84479 18.5353 9.61134 18.3303 9.44229C18.1254 9.27324 17.8626 9.18006 17.5905 9.18H17.0265L17.2215 8.381L17.2455 8.23933C17.2697 7.9834 17.195 7.72783 17.035 7.51998C16.875 7.31212 16.6407 7.16606 16.3755 7.10883L16.2255 7.08617C15.9545 7.06327 15.6839 7.1339 15.4638 7.28497C15.2437 7.43605 15.0891 7.65733 15.0285 7.90783L14.718 9.18H12.516L12.72 8.39658L12.747 8.25492C12.7782 7.98626 12.6998 7.71648 12.5277 7.5005C12.3557 7.28452 12.103 7.13856 11.8211 7.09235C11.5391 7.04613 11.2491 7.10313 11.0101 7.25173C10.7711 7.40034 10.601 7.62939 10.5345 7.89225" fill="black"/>
</svg>
