<svg width="23" height="24" viewBox="0 0 23 24" fill="none" xmlns="http://www.w3.org/2000/svg">
<path d="M11.6504 21.8908L6.90269 22.3014L7.31415 17.5635L17.1893 7.77179C17.3367 7.62136 17.5127 7.50184 17.707 7.42024C17.9013 7.33864 18.11 7.29661 18.3209 7.29661C18.5317 7.29661 18.7404 7.33864 18.9347 7.42024C19.129 7.50184 19.305 7.62136 19.4524 7.77179L21.4622 9.7933C21.6104 9.94023 21.7279 10.1149 21.8082 10.3074C21.8884 10.4998 21.9297 10.7062 21.9297 10.9146C21.9297 11.123 21.8884 11.3294 21.8082 11.5219C21.7279 11.7143 21.6104 11.889 21.4622 12.0359L11.6504 21.8908ZM2.02208 7.31379C1.4666 7.21745 1.4666 6.42148 2.02208 6.32514C3.00561 6.15431 3.91589 5.69507 4.63686 5.00595C5.35784 4.31683 5.85684 3.42906 6.07026 2.45583L6.1035 2.30263C6.22377 1.75619 7.00556 1.75145 7.13216 2.29947L7.17172 2.47636C7.39297 3.44527 7.89614 4.32734 8.61806 5.01181C9.33998 5.69628 10.2485 6.15263 11.2294 6.32356C11.788 6.41832 11.788 7.21903 11.2294 7.31694C10.2484 7.48747 9.3397 7.94346 8.6175 8.62766C7.8953 9.31185 7.39177 10.1937 7.17014 11.1626L7.129 11.341C7.00397 11.8875 6.22219 11.8843 6.10191 11.3363L6.07026 11.1831C5.85663 10.2094 5.35715 9.32135 4.63557 8.63219C3.91399 7.94303 3.00302 7.48404 2.01891 7.31379H2.02208Z" fill="#FFC107" stroke="#3F3F3F" stroke-width="2.14286" stroke-linecap="round" stroke-linejoin="round"/>
</svg>
