<svg width="23" height="20" viewBox="0 0 23 20" fill="none" xmlns="http://www.w3.org/2000/svg">
<path d="M4.50202 8.75725L10.7172 0.046875L16.9325 8.75725H4.50202ZM16.9325 19.4033C15.5199 19.4033 14.3194 18.98 13.331 18.1335C12.3426 17.287 11.848 16.2585 11.8473 15.0481C11.8473 13.8383 12.3419 12.8101 13.331 11.9636C14.3202 11.1171 15.5207 10.6935 16.9325 10.6929C18.345 10.6929 19.5459 11.1165 20.535 11.9636C21.5242 12.8108 22.0184 13.8389 22.0177 15.0481C22.0177 16.2578 21.5235 17.2863 20.535 18.1335C19.5466 18.9806 18.3458 19.4039 16.9325 19.4033ZM0.546875 18.9193V11.1768H9.58721V18.9193H0.546875ZM16.9325 17.4676C17.7235 17.4676 18.3921 17.2337 18.9383 16.7659C19.4845 16.2982 19.7576 15.7255 19.7576 15.0481C19.7576 14.3706 19.4845 13.798 18.9383 13.3302C18.3921 12.8624 17.7235 12.6285 16.9325 12.6285C16.1414 12.6285 15.4728 12.8624 14.9267 13.3302C14.3805 13.798 14.1074 14.3706 14.1074 15.0481C14.1074 15.7255 14.3805 16.2982 14.9267 16.7659C15.4728 17.2337 16.1414 17.4676 16.9325 17.4676ZM2.80696 16.9837H7.32712V13.1124H2.80696V16.9837ZM8.51367 6.82161H12.9208L10.7172 3.77298L8.51367 6.82161Z" fill="black"/>
</svg>
