<svg width="23" height="18" viewBox="0 0 23 18" fill="none" xmlns="http://www.w3.org/2000/svg">
<path d="M2.38008 0.234375L4.57852 4.63125H7.87617L5.67773 0.234375H7.87617L10.0746 4.63125H13.3723L11.1738 0.234375H13.3723L15.5707 4.63125H18.8684L16.6699 0.234375H19.9676C20.5721 0.234375 21.0899 0.449822 21.5208 0.880715C21.9517 1.31161 22.1667 1.82897 22.166 2.43281V15.6234C22.166 16.228 21.9509 16.7457 21.5208 17.1766C21.0906 17.6075 20.5729 17.8226 19.9676 17.8219H2.38008C1.77551 17.8219 1.25814 17.6068 0.827981 17.1766C0.39782 16.7465 0.182373 16.2287 0.181641 15.6234V2.43281C0.181641 1.82824 0.397088 1.31088 0.827981 0.880715C1.25887 0.450554 1.77624 0.235108 2.38008 0.234375Z" fill="black"/>
</svg>
