<svg width="34" height="34" viewBox="0 0 34 34" fill="none" xmlns="http://www.w3.org/2000/svg">
<path d="M8.7006 0.75C9.39093 0.75 9.95017 1.28766 9.95017 1.95144V4.37423C11.0587 4.35432 12.3016 4.35432 13.7005 4.35432H20.3632C21.7605 4.35432 23.0034 4.35432 24.1119 4.37589V1.9531C24.1119 1.28932 24.6711 0.75 25.3615 0.75C26.0518 0.75 26.611 1.28766 26.611 1.95144V4.48376C29.0089 4.66796 30.5837 5.12099 31.7387 6.23447C32.897 7.3463 33.3683 8.85972 33.5591 11.1664L33.6919 12.3661H0.50293V11.1647C0.695426 8.85806 1.16671 7.34465 2.32334 6.23282C3.47998 5.12099 5.05314 4.6663 7.45104 4.4821V1.95144C7.45104 1.28766 8.01027 0.75 8.7006 0.75Z" fill="black"/>
<path opacity="0.5" d="M2.802 31.6417L2.8017 31.6414C1.93777 30.7782 1.47772 29.6332 1.24207 27.8811C1.00449 26.1146 1.00343 23.8075 1.00343 20.6644V17.3455C1.00343 17.14 1.00332 16.9111 1.0032 16.6666C1.00264 15.4653 1.0019 13.8891 1.01285 12.8672H33.1719C33.1873 14.0979 33.1924 16.1326 33.1924 17.3455V20.6644C33.1924 23.8083 33.1913 26.1159 32.9537 27.8823C32.7181 29.6345 32.258 30.779 31.3943 31.6413L31.394 31.6416C30.5299 32.5057 29.3843 32.9657 27.6322 33.2014C25.8657 33.4389 23.559 33.44 20.4168 33.44H13.779C10.6351 33.44 8.32799 33.4389 6.56173 33.2014C4.80988 32.9657 3.66522 32.5057 2.802 31.6417Z" fill="black" stroke="black"/>
<path d="M27.0545 25.641C27.0545 26.0811 26.8797 26.5032 26.5684 26.8144C26.2572 27.1256 25.8352 27.3004 25.395 27.3004C24.9549 27.3004 24.5328 27.1256 24.2216 26.8144C23.9104 26.5032 23.7356 26.0811 23.7356 25.641C23.7356 25.2009 23.9104 24.7788 24.2216 24.4676C24.5328 24.1564 24.9549 23.9815 25.395 23.9815C25.8352 23.9815 26.2572 24.1564 26.5684 24.4676C26.8797 24.7788 27.0545 25.2009 27.0545 25.641ZM27.0545 19.0032C27.0545 19.4433 26.8797 19.8654 26.5684 20.1766C26.2572 20.4878 25.8352 20.6626 25.395 20.6626C24.9549 20.6626 24.5328 20.4878 24.2216 20.1766C23.9104 19.8654 23.7356 19.4433 23.7356 19.0032C23.7356 18.5631 23.9104 18.141 24.2216 17.8298C24.5328 17.5186 24.9549 17.3438 25.395 17.3438C25.8352 17.3438 26.2572 17.5186 26.5684 17.8298C26.8797 18.141 27.0545 18.5631 27.0545 19.0032ZM18.7572 25.641C18.7572 26.0811 18.5824 26.5032 18.2712 26.8144C17.96 27.1256 17.5379 27.3004 17.0978 27.3004C16.6577 27.3004 16.2356 27.1256 15.9244 26.8144C15.6132 26.5032 15.4384 26.0811 15.4384 25.641C15.4384 25.2009 15.6132 24.7788 15.9244 24.4676C16.2356 24.1564 16.6577 23.9815 17.0978 23.9815C17.5379 23.9815 17.96 24.1564 18.2712 24.4676C18.5824 24.7788 18.7572 25.2009 18.7572 25.641ZM18.7572 19.0032C18.7572 19.4433 18.5824 19.8654 18.2712 20.1766C17.96 20.4878 17.5379 20.6626 17.0978 20.6626C16.6577 20.6626 16.2356 20.4878 15.9244 20.1766C15.6132 19.8654 15.4384 19.4433 15.4384 19.0032C15.4384 18.5631 15.6132 18.141 15.9244 17.8298C16.2356 17.5186 16.6577 17.3438 17.0978 17.3438C17.5379 17.3438 17.96 17.5186 18.2712 17.8298C18.5824 18.141 18.7572 18.5631 18.7572 19.0032ZM10.46 25.641C10.46 26.0811 10.2852 26.5032 9.97397 26.8144C9.66276 27.1256 9.24067 27.3004 8.80056 27.3004C8.36045 27.3004 7.93836 27.1256 7.62715 26.8144C7.31595 26.5032 7.14111 26.0811 7.14111 25.641C7.14111 25.2009 7.31595 24.7788 7.62715 24.4676C7.93836 24.1564 8.36045 23.9815 8.80056 23.9815C9.24067 23.9815 9.66276 24.1564 9.97397 24.4676C10.2852 24.7788 10.46 25.2009 10.46 25.641ZM10.46 19.0032C10.46 19.4433 10.2852 19.8654 9.97397 20.1766C9.66276 20.4878 9.24067 20.6626 8.80056 20.6626C8.36045 20.6626 7.93836 20.4878 7.62715 20.1766C7.31595 19.8654 7.14111 19.4433 7.14111 19.0032C7.14111 18.5631 7.31595 18.141 7.62715 17.8298C7.93836 17.5186 8.36045 17.3438 8.80056 17.3438C9.24067 17.3438 9.66276 17.5186 9.97397 17.8298C10.2852 18.141 10.46 18.5631 10.46 19.0032Z" fill="black"/>
</svg>
