<svg width="25" height="25" viewBox="0 0 25 25" fill="none" xmlns="http://www.w3.org/2000/svg">
<path d="M11.5459 21.7539L8.3709 18.9039C7.1709 17.8206 6.14157 16.8539 5.2829 16.0039C4.42423 15.1539 3.7159 14.3539 3.1579 13.6039C2.5999 12.8539 2.19157 12.1289 1.9329 11.4289C1.67423 10.7289 1.54523 9.99557 1.5459 9.22891C1.5459 7.66224 2.0709 6.35824 3.1209 5.31691C4.1709 4.27557 5.47923 3.75457 7.0459 3.75391C7.91257 3.75391 8.73757 3.93724 9.5209 4.30391C10.3042 4.67057 10.9792 5.18724 11.5459 5.85391C12.1126 5.18724 12.7876 4.67057 13.5709 4.30391C14.3542 3.93724 15.1792 3.75391 16.0459 3.75391C17.3959 3.75391 18.5292 4.13324 19.4459 4.89191C20.3626 5.65057 20.9876 6.60457 21.3209 7.75391H19.1959C18.8959 7.08724 18.4542 6.58724 17.8709 6.25391C17.2876 5.92057 16.6792 5.75391 16.0459 5.75391C15.1959 5.75391 14.4626 5.98324 13.8459 6.44191C13.2292 6.90057 12.6542 7.50457 12.1209 8.25391H10.9709C10.4542 7.50391 9.86657 6.89991 9.2079 6.44191C8.54923 5.98391 7.82857 5.75457 7.0459 5.75391C6.0959 5.75391 5.2749 6.08324 4.5829 6.74191C3.8909 7.40057 3.54523 8.22924 3.5459 9.22791C3.5459 9.77791 3.66257 10.3362 3.8959 10.9029C4.12923 11.4696 4.5459 12.1239 5.1459 12.8659C5.7459 13.6072 6.56257 14.4739 7.5959 15.4659C8.62923 16.4579 9.9459 17.6539 11.5459 19.0539C11.9792 18.6706 12.4876 18.2289 13.0709 17.7289C13.6542 17.2289 14.1209 16.8122 14.4709 16.4789L14.6959 16.7039L15.1839 17.1919L15.6709 17.6789L15.8959 17.9039C15.5292 18.2372 15.0626 18.6499 14.4959 19.1419C13.9292 19.6339 13.4292 20.0712 12.9959 20.4539L11.5459 21.7539ZM18.5459 17.7539V14.7539H15.5459V12.7539H18.5459V9.75391H20.5459V12.7539H23.5459V14.7539H20.5459V17.7539H18.5459Z" fill="black"/>
</svg>
