<svg width="25" height="25" viewBox="0 0 25 25" fill="none" xmlns="http://www.w3.org/2000/svg">
<path d="M11.5459 21.25L8.3709 18.4C7.1709 17.3167 6.14157 16.35 5.2829 15.5C4.42423 14.65 3.7159 13.85 3.1579 13.1C2.5999 12.35 2.19157 11.625 1.9329 10.925C1.67423 10.225 1.54523 9.49167 1.5459 8.725C1.5459 7.15833 2.0709 5.85433 3.1209 4.813C4.1709 3.77167 5.47923 3.25067 7.0459 3.25C7.91257 3.25 8.73757 3.43333 9.5209 3.8C10.3042 4.16667 10.9792 4.68333 11.5459 5.35C12.1126 4.68333 12.7876 4.16667 13.5709 3.8C14.3542 3.43333 15.1792 3.25 16.0459 3.25C17.3959 3.25 18.5292 3.62933 19.4459 4.388C20.3626 5.14667 20.9876 6.10067 21.3209 7.25H19.1959C18.8959 6.58333 18.4542 6.08333 17.8709 5.75C17.2876 5.41667 16.6792 5.25 16.0459 5.25C15.1959 5.25 14.4626 5.47933 13.8459 5.938C13.2292 6.39667 12.6542 7.00067 12.1209 7.75H10.9709C10.4542 7 9.86657 6.396 9.2079 5.938C8.54923 5.48 7.82857 5.25067 7.0459 5.25C6.0959 5.25 5.2749 5.57933 4.5829 6.238C3.8909 6.89667 3.54523 7.72533 3.5459 8.724C3.5459 9.274 3.66257 9.83233 3.8959 10.399C4.12923 10.9657 4.5459 11.62 5.1459 12.362C5.7459 13.1033 6.56257 13.97 7.5959 14.962C8.62923 15.954 9.9459 17.15 11.5459 18.55C11.9792 18.1667 12.4876 17.725 13.0709 17.225C13.6542 16.725 14.1209 16.3083 14.4709 15.975L14.6959 16.2L15.1839 16.688L15.6709 17.175L15.8959 17.4C15.5292 17.7333 15.0626 18.146 14.4959 18.638C13.9292 19.13 13.4292 19.5673 12.9959 19.95L11.5459 21.25ZM18.5459 17.25V14.25H15.5459V12.25H18.5459V9.25H20.5459V12.25H23.5459V14.25H20.5459V17.25H18.5459Z" fill="black"/>
</svg>
