<svg width="23" height="21" viewBox="0 0 23 21" fill="none" xmlns="http://www.w3.org/2000/svg">
<path d="M4.50397 9.42521L10.7192 0.714844L16.9344 9.42521H4.50397ZM16.9344 20.0712C15.5219 20.0712 14.3214 19.648 13.333 18.8014C12.3446 17.9549 11.85 16.9265 11.8492 15.716C11.8492 14.5063 12.3438 13.4781 13.333 12.6316C14.3222 11.7851 15.5226 11.3615 16.9344 11.3609C18.347 11.3609 19.5478 11.7844 20.537 12.6316C21.5262 13.4788 22.0204 14.5069 22.0196 15.716C22.0196 16.9258 21.5254 17.9543 20.537 18.8014C19.5486 19.6486 18.3477 20.0719 16.9344 20.0712ZM0.548828 19.5873V11.8448H9.58916V19.5873H0.548828ZM16.9344 18.1356C17.7255 18.1356 18.3941 17.9017 18.9403 17.4339C19.4864 16.9661 19.7595 16.3935 19.7595 15.716C19.7595 15.0386 19.4864 14.4659 18.9403 13.9982C18.3941 13.5304 17.7255 13.2965 16.9344 13.2965C16.1434 13.2965 15.4748 13.5304 14.9286 13.9982C14.3824 14.4659 14.1093 15.0386 14.1093 15.716C14.1093 16.3935 14.3824 16.9661 14.9286 17.4339C15.4748 17.9017 16.1434 18.1356 16.9344 18.1356ZM2.80891 17.6517H7.32908V13.7804H2.80891V17.6517ZM8.51562 7.48958H12.9228L10.7192 4.44095L8.51562 7.48958Z" fill="black"/>
</svg>
