<svg width="21" height="21" viewBox="0 0 21 21" fill="none" xmlns="http://www.w3.org/2000/svg">
<path d="M18.7962 0.738281C19.1482 0.738316 19.4879 0.835231 19.7509 1.01065C20.0139 1.18606 20.182 1.42777 20.2232 1.68993L20.2332 1.81603V19.06C20.2328 19.3347 20.0926 19.5989 19.8411 19.7987C19.5897 19.9984 19.2461 20.1186 18.8804 20.1347C18.5148 20.1508 18.1548 20.0616 17.8739 19.8853C17.593 19.709 17.4125 19.4589 17.3693 19.1861L17.3592 19.06V13.6713H15.9222C15.5703 13.6712 15.2305 13.5743 14.9675 13.3989C14.7045 13.2235 14.5365 12.9818 14.4953 12.7196L14.4852 12.5935V6.12703C14.4852 3.7452 16.6407 0.738281 18.7962 0.738281ZM10.1742 0.738281C10.5262 0.738316 10.8659 0.835231 11.1289 1.01065C11.392 1.18606 11.56 1.42777 11.6012 1.68993L11.6112 1.81603V7.20478C11.6111 8.1606 11.1876 9.08931 10.4073 9.84503C9.62697 10.6007 8.53407 11.1407 7.30023 11.38V19.06C7.29982 19.3347 7.15958 19.5989 6.90815 19.7987C6.65672 19.9984 6.31308 20.1186 5.94745 20.1347C5.58181 20.1508 5.22178 20.0616 4.94092 19.8853C4.66005 19.709 4.47955 19.4589 4.43629 19.1861L4.42623 19.06V11.38C3.24136 11.1502 2.1851 10.643 1.41107 9.93204C0.637039 9.22107 0.185605 8.34344 0.12242 7.42679L0.115234 7.20478V1.81603C0.115641 1.54133 0.255886 1.27712 0.507317 1.07738C0.758748 0.87763 1.10239 0.757427 1.46802 0.741329C1.83365 0.725231 2.19368 0.814451 2.47455 0.99076C2.75541 1.16707 2.93591 1.41716 2.97917 1.68993L2.98923 1.81603V7.20478C2.98925 7.58314 3.12205 7.95483 3.37429 8.2825C3.62654 8.61016 3.98934 8.88226 4.42623 9.07144V1.81603C4.42664 1.54133 4.56688 1.27712 4.81831 1.07738C5.06975 0.87763 5.41338 0.757427 5.77902 0.741329C6.14465 0.725231 6.50468 0.814451 6.78554 0.99076C7.06641 1.16707 7.24691 1.41716 7.29017 1.68993L7.30023 1.81603L7.30167 9.07144C7.70268 8.89759 8.04173 8.65363 8.28993 8.36032C8.53813 8.06702 8.68814 7.73307 8.72717 7.38692L8.73723 7.20478V1.81603C8.73723 1.53019 8.88863 1.25606 9.15812 1.05395C9.42761 0.851829 9.79311 0.738281 10.1742 0.738281Z" fill="black"/>
</svg>
