<svg width="39" height="39" viewBox="0 0 39 39" fill="none" xmlns="http://www.w3.org/2000/svg">
<path d="M38.5859 19.0234C38.5859 15.2656 37.4716 11.5921 35.3839 8.46761C33.2961 5.34308 30.3287 2.9078 26.8569 1.46973C23.3851 0.0316696 19.5649 -0.344593 15.8792 0.388527C12.1936 1.12165 8.80811 2.93122 6.15092 5.58842C3.49372 8.24561 1.68415 11.6311 0.951027 15.3167C0.217907 19.0024 0.59417 22.8226 2.03223 26.2944C3.4703 29.7662 5.90558 32.7336 9.03011 34.8214C12.1546 36.9091 15.8281 38.0234 19.5859 38.0234C24.6251 38.0234 29.4578 36.0217 33.021 32.4585C36.5842 28.8953 38.5859 24.0626 38.5859 19.0234ZM30.4431 20.3806L13.9538 20.3806L21.5267 27.9901L19.5859 29.8806L8.7288 19.0234L19.5859 8.1663L21.5267 10.1029L13.9538 17.6663L30.4431 17.6663V20.3806Z" fill="#505050"/>
</svg>
