<svg width="43" height="56" viewBox="0 0 43 56" fill="none" xmlns="http://www.w3.org/2000/svg">
<path d="M37.3273 0.421875H5.70245C2.79146 0.421875 0.431641 3.18135 0.431641 6.58534V49.7296C0.431641 53.1336 2.79146 55.8931 5.70245 55.8931H37.3273C40.2383 55.8931 42.5982 53.1336 42.5982 49.7296V6.58534C42.5982 3.18135 40.2383 0.421875 37.3273 0.421875Z" fill="black" fill-opacity="0.25"/>
<path d="M12.2852 11.2109H30.733M12.2852 20.4561H22.8268M12.2852 29.7013H28.0976" stroke="black" stroke-width="1.66667" stroke-linecap="round"/>
<path d="M0.431641 49.7446C0.431641 48.11 0.986957 46.5423 1.97543 45.3864C2.9639 44.2305 4.30455 43.5811 5.70245 43.5811H34.6919C37.1481 43.5811 38.3762 43.5811 39.3434 43.1127C39.9834 42.803 40.5648 42.3488 41.0545 41.7761C41.5443 41.2034 41.9327 40.5235 42.1976 39.7752C42.5982 38.6442 42.5982 37.2081 42.5982 34.3359V43.5811C42.5982 49.3933 42.5982 52.2963 41.0538 54.1022C39.5095 55.9081 37.0269 55.9081 32.0565 55.9081H5.70245C4.30455 55.9081 2.9639 55.2587 1.97543 54.1028C0.986957 52.947 0.431641 51.3793 0.431641 49.7446Z" fill="black"/>
</svg>
