<svg width="50" height="56" viewBox="0 0 50 56" fill="none" xmlns="http://www.w3.org/2000/svg">
<path d="M45.3251 4.68911H39.2384V2.55549C39.2384 1.98962 39.0247 1.44693 38.6442 1.0468C38.2637 0.646666 37.7476 0.421875 37.2095 0.421875C36.6714 0.421875 36.1554 0.646666 35.7749 1.0468C35.3944 1.44693 35.1806 1.98962 35.1806 2.55549V4.68911H14.8917V2.55549C14.8917 1.98962 14.6779 1.44693 14.2974 1.0468C13.917 0.646666 13.4009 0.421875 12.8628 0.421875C12.3247 0.421875 11.8087 0.646666 11.4282 1.0468C11.0477 1.44693 10.8339 1.98962 10.8339 2.55549V4.68911H4.74724C3.67105 4.68911 2.63893 5.1387 1.87795 5.93896C1.11697 6.73922 0.689453 7.82461 0.689453 8.95635V51.6287C0.689453 52.7605 1.11697 53.8459 1.87795 54.6461C2.63893 55.4464 3.67105 55.896 4.74724 55.896H45.3251C46.4013 55.896 47.4334 55.4464 48.1944 54.6461C48.9554 53.8459 49.3829 52.7605 49.3829 51.6287V8.95635C49.3829 7.82461 48.9554 6.73922 48.1944 5.93896C47.4334 5.1387 46.4013 4.68911 45.3251 4.68911ZM10.8339 8.95635V11.09C10.8339 11.6558 11.0477 12.1985 11.4282 12.5987C11.8087 12.9988 12.3247 13.2236 12.8628 13.2236C13.4009 13.2236 13.917 12.9988 14.2974 12.5987C14.6779 12.1985 14.8917 11.6558 14.8917 11.09V8.95635H35.1806V11.09C35.1806 11.6558 35.3944 12.1985 35.7749 12.5987C36.1554 12.9988 36.6714 13.2236 37.2095 13.2236C37.7476 13.2236 38.2637 12.9988 38.6442 12.5987C39.0247 12.1985 39.2384 11.6558 39.2384 11.09V8.95635H45.3251V17.4908H4.74724V8.95635H10.8339ZM45.3251 51.6287H4.74724V21.7581H45.3251V51.6287ZM20.9784 28.1589V45.2279C20.9784 45.7937 20.7646 46.3364 20.3841 46.7366C20.0036 47.1367 19.4876 47.3615 18.9495 47.3615C18.4114 47.3615 17.8953 47.1367 17.5148 46.7366C17.1343 46.3364 16.9206 45.7937 16.9206 45.2279V31.61L15.7996 32.2021C15.318 32.4554 14.7605 32.497 14.2497 32.318C13.7389 32.1389 13.3166 31.7538 13.0758 31.2473C12.835 30.7409 12.7954 30.1546 12.9657 29.6174C13.136 29.0802 13.5022 28.6362 13.9838 28.3829L18.0416 26.2493C18.351 26.0865 18.6949 26.0096 19.0406 26.0259C19.3862 26.0423 19.7222 26.1513 20.0165 26.3426C20.3108 26.534 20.5537 26.8013 20.722 27.1192C20.8904 27.4371 20.9786 27.795 20.9784 28.1589ZM35.982 36.28L31.1228 43.0943H35.1806C35.7187 43.0943 36.2348 43.319 36.6153 43.7192C36.9958 44.1193 37.2095 44.662 37.2095 45.2279C37.2095 45.7937 36.9958 46.3364 36.6153 46.7366C36.2348 47.1367 35.7187 47.3615 35.1806 47.3615H27.0651C26.6883 47.3615 26.3189 47.2511 25.9984 47.0428C25.6779 46.8345 25.4189 46.5365 25.2504 46.1821C25.0819 45.8276 25.0105 45.4309 25.0444 45.0363C25.0782 44.6416 25.2159 44.2647 25.4419 43.9477L32.7409 33.7143C32.9069 33.4819 33.026 33.2162 33.0909 32.9337C33.1558 32.6511 33.1651 32.3576 33.1182 32.0711C33.0713 31.7846 32.9692 31.5112 32.8183 31.2677C32.6673 31.0242 32.4706 30.8157 32.2403 30.6549C32.0099 30.4942 31.7508 30.3847 31.4787 30.3331C31.2067 30.2816 30.9275 30.289 30.6583 30.3549C30.3891 30.4209 30.1355 30.544 29.9132 30.7167C29.6908 30.8894 29.5044 31.1081 29.3653 31.3593C29.236 31.6097 29.0604 31.8304 28.8487 32.0082C28.637 32.186 28.3936 32.3175 28.1328 32.3948C27.872 32.4721 27.5992 32.4937 27.3304 32.4583C27.0615 32.4229 26.8021 32.3313 26.5675 32.1887C26.3329 32.0462 26.1278 31.8558 25.9644 31.6285C25.8009 31.4013 25.6823 31.142 25.6157 30.8658C25.5491 30.5896 25.5358 30.3022 25.5765 30.0205C25.6172 29.7389 25.7111 29.4686 25.8528 29.2257C26.523 28.0061 27.5571 27.053 28.7947 26.5142C30.0324 25.9754 31.4045 25.881 32.6983 26.2456C33.9922 26.6102 35.1355 27.4135 35.9512 28.5309C36.7668 29.6483 37.2091 31.0175 37.2095 32.4262C37.2138 33.8177 36.7825 35.172 35.982 36.28Z" fill="#FFC107"/>
</svg>
