<svg width="53" height="56" viewBox="0 0 53 56" fill="none" xmlns="http://www.w3.org/2000/svg">
<path d="M10.0168 25.3404L24.9932 0.328125L39.9696 25.3404H10.0168ZM39.9696 55.9109C36.5659 55.9109 33.6732 54.6955 31.2915 52.2646C28.9098 49.8338 27.718 46.8805 27.7162 43.4048C27.7162 39.9308 28.908 36.9785 31.2915 34.5476C33.675 32.1168 36.5677 30.9005 39.9696 30.8986C43.3734 30.8986 46.267 32.115 48.6505 34.5476C51.034 36.9803 52.2249 39.9327 52.2231 43.4048C52.2231 46.8787 51.0322 49.832 48.6505 52.2646C46.2688 54.6973 43.3752 55.9127 39.9696 55.9109ZM0.486328 54.5213V32.2882H22.2702V54.5213H0.486328ZM39.9696 50.3526C41.8757 50.3526 43.4868 49.681 44.8029 48.3377C46.1191 46.9945 46.7771 45.3502 46.7771 43.4048C46.7771 41.4594 46.1191 39.815 44.8029 38.4718C43.4868 37.1285 41.8757 36.4569 39.9696 36.4569C38.0636 36.4569 36.4525 37.1285 35.1363 38.4718C33.8202 39.815 33.1622 41.4594 33.1622 43.4048C33.1622 45.3502 33.8202 46.9945 35.1363 48.3377C36.4525 49.681 38.0636 50.3526 39.9696 50.3526ZM5.9323 48.963H16.8243V37.8465H5.9323V48.963ZM19.6834 19.7821H30.303L24.9932 11.0278L19.6834 19.7821Z" fill="#3A54D9"/>
</svg>
