<svg width="39" height="39" viewBox="0 0 39 39" fill="none" xmlns="http://www.w3.org/2000/svg">
<path d="M0.585938 19.0234C0.585938 22.7813 1.70027 26.4547 3.78801 29.5793C5.87576 32.7038 8.84315 35.1391 12.3149 36.5771C15.7867 38.0152 19.607 38.3915 23.2926 37.6583C26.9783 36.9252 30.3638 35.1157 33.021 32.4585C35.6782 29.8013 37.4877 26.4158 38.2208 22.7301C38.954 19.0445 38.5777 15.2242 37.1396 11.7524C35.7016 8.28065 33.2663 5.31326 30.1418 3.22551C27.0172 1.13777 23.3438 0.0234375 19.5859 0.0234375C14.5468 0.0234375 9.7141 2.02522 6.15091 5.58841C2.58772 9.1516 0.585938 13.9843 0.585938 19.0234ZM8.72879 17.6663H25.2181L17.6452 10.0568L19.5859 8.16629L30.4431 19.0234L19.5859 29.8806L17.6452 27.9439L25.2181 20.3806H8.72879V17.6663Z" fill="#505050"/>
</svg>
