<svg width="24" height="23" viewBox="0 0 24 23" fill="none" xmlns="http://www.w3.org/2000/svg">
<path fill-rule="evenodd" clip-rule="evenodd" d="M20.3282 0.282427C20.6691 0.225569 21.0184 0.243642 21.3516 0.335392C21.6849 0.427142 21.9941 0.590366 22.2579 0.813718C22.5217 1.03707 22.7337 1.31519 22.8791 1.62875C23.0246 1.9423 23.1 2.28377 23.1001 2.62941V16.6971C23.0999 17.745 22.7539 18.7636 22.1158 19.5948C21.4776 20.4261 20.5831 21.0236 19.5708 21.2946C18.5586 21.5657 17.4851 21.4951 16.517 21.094C15.5489 20.6928 14.7402 19.9834 14.2164 19.0758C13.6925 18.1682 13.4827 17.1132 13.6196 16.0742C13.7565 15.0353 14.2323 14.0705 14.9734 13.3295C15.7144 12.5886 16.6792 12.1128 17.7182 11.9761C18.7572 11.8393 19.8122 12.0492 20.7198 12.5732V7.39004L8.81821 9.37403V17.8872C8.81821 17.9586 8.81226 18.0265 8.80036 18.0943C8.88581 19.0095 8.66614 19.9273 8.17559 20.7046C7.68504 21.4819 6.95114 22.0752 6.08826 22.3919C5.22537 22.7087 4.28195 22.7311 3.40499 22.4558C2.52802 22.1804 1.76675 21.6227 1.2398 20.8696C0.71284 20.1164 0.449788 19.2102 0.491623 18.2919C0.533459 17.3737 0.877833 16.4951 1.47109 15.793C2.06435 15.0909 2.87317 14.6047 3.77155 14.4103C4.66992 14.2158 5.60739 14.3239 6.4379 14.7178V4.6134C6.43783 4.04994 6.63765 3.50472 7.00182 3.07474C7.36598 2.64477 7.87086 2.35792 8.42665 2.26523L20.3282 0.282427ZM8.81821 6.96158L20.7198 4.97759V2.62941L8.81821 4.6134V6.96158Z" fill="black"/>
</svg>
