<svg width="26" height="25" viewBox="0 0 26 25" fill="none" xmlns="http://www.w3.org/2000/svg">
<path d="M22.1502 8.21571C22.1502 8.48426 22.0435 8.74182 21.8536 8.93171C21.6637 9.12161 21.4061 9.22829 21.1376 9.22829C20.869 9.22829 20.6115 9.12161 20.4216 8.93171C20.2317 8.74182 20.125 8.48426 20.125 8.21571C20.125 7.94716 20.2317 7.6896 20.4216 7.4997C20.6115 7.30981 20.869 7.20312 21.1376 7.20312C21.4061 7.20312 21.6637 7.30981 21.8536 7.4997C22.0435 7.6896 22.1502 7.94716 22.1502 8.21571Z" fill="black"/>
<path d="M22.1502 8.21454C22.1502 8.48309 22.0435 8.74064 21.8536 8.93054C21.6637 9.12044 21.4061 9.22712 21.1376 9.22712C20.869 9.22712 20.6115 9.12044 20.4216 8.93054C20.2317 8.74064 20.125 8.48309 20.125 8.21454C20.125 7.94598 20.2317 7.68843 20.4216 7.49853C20.6115 7.30864 20.869 7.20195 21.1376 7.20195C21.4061 7.20195 21.6637 7.30864 21.8536 7.49853C22.0435 7.68843 22.1502 7.94598 22.1502 8.21454ZM22.1502 8.21454V3.15162C22.1502 2.97258 22.2213 2.80088 22.3479 2.67428C22.4745 2.54768 22.6462 2.47656 22.8252 2.47656H24.6254" stroke="black" stroke-width="2" stroke-linecap="round"/>
<path d="M16.7502 18.2269C16.1534 18.2269 15.5811 17.9899 15.1591 17.5679C14.7371 17.1459 14.5 16.5735 14.5 15.9767C14.5 15.38 14.7371 14.8076 15.1591 14.3856C15.5811 13.9636 16.1534 13.7266 16.7502 13.7266C17.347 13.7266 17.9193 13.9636 18.3413 14.3856C18.7633 14.8076 19.0004 15.38 19.0004 15.9767C19.0004 16.5735 18.7633 17.1459 18.3413 17.5679C17.9193 17.9899 17.347 18.2269 16.7502 18.2269Z" stroke="black" stroke-width="2" stroke-linecap="round" stroke-linejoin="round"/>
<path d="M23.4456 13.7276C22.8819 19.4127 18.0845 23.8534 12.2509 23.8534C6.03704 23.8534 1 18.8164 1 12.6025C1 6.38861 6.03704 1.35157 12.2509 1.35157C13.7996 1.34959 15.3319 1.6683 16.7513 2.28765" stroke="black" stroke-width="2" stroke-linecap="round" stroke-linejoin="round"/>
<path d="M8.31255 9.22666C8.16335 9.22666 8.02026 9.16739 7.91477 9.06189C7.80927 8.95639 7.75 8.81331 7.75 8.66411C7.75 8.51491 7.80927 8.37183 7.91477 8.26633C8.02026 8.16083 8.16335 8.10156 8.31255 8.10156C8.46174 8.10156 8.60483 8.16083 8.71033 8.26633C8.81583 8.37183 8.87509 8.51491 8.87509 8.66411C8.87509 8.81331 8.81583 8.95639 8.71033 9.06189C8.60483 9.16739 8.46174 9.22666 8.31255 9.22666ZM16.1882 9.22666C16.039 9.22666 15.8959 9.16739 15.7904 9.06189C15.6849 8.95639 15.6257 8.81331 15.6257 8.66411C15.6257 8.51491 15.6849 8.37183 15.7904 8.26633C15.8959 8.16083 16.039 8.10156 16.1882 8.10156C16.3374 8.10156 16.4805 8.16083 16.586 8.26633C16.6915 8.37183 16.7507 8.51491 16.7507 8.66411C16.7507 8.81331 16.6915 8.95639 16.586 9.06189C16.4805 9.16739 16.3374 9.22666 16.1882 9.22666Z" fill="black" stroke="black" stroke-width="2" stroke-linecap="round" stroke-linejoin="round"/>
</svg>
