<svg width="25" height="24" viewBox="0 0 25 24" fill="none" xmlns="http://www.w3.org/2000/svg">
<path d="M22.4557 0.726562C22.864 0.726603 23.258 0.839008 23.563 1.04246C23.8681 1.24591 24.063 1.52625 24.1107 1.83031L24.1224 1.97656V21.9766C24.1219 22.2952 23.9593 22.6016 23.6677 22.8333C23.376 23.0649 22.9775 23.2044 22.5534 23.223C22.1293 23.2417 21.7118 23.1382 21.386 22.9337C21.0603 22.7292 20.8509 22.4392 20.8007 22.1228L20.7891 21.9766V15.7266H19.1224C18.7142 15.7265 18.3202 15.6141 18.0151 15.4107C17.7101 15.2072 17.5152 14.9269 17.4674 14.6228L17.4557 14.4766V6.97656C17.4557 4.21406 19.9557 0.726562 22.4557 0.726562ZM12.4557 0.726562C12.864 0.726603 13.258 0.839008 13.563 1.04246C13.8681 1.24591 14.063 1.52625 14.1107 1.83031L14.1224 1.97656V8.22656C14.1222 9.33515 13.631 10.4123 12.726 11.2888C11.821 12.1653 10.5534 12.7915 9.1224 13.0691V21.9766C9.12193 22.2952 8.95926 22.6016 8.66765 22.8333C8.37603 23.0649 7.97747 23.2044 7.5534 23.223C7.12934 23.2417 6.71176 23.1382 6.38601 22.9337C6.06025 22.7292 5.8509 22.4392 5.80073 22.1228L5.78906 21.9766V13.0691C4.41482 12.8026 3.18974 12.2143 2.292 11.3897C1.39426 10.5651 0.87068 9.54721 0.797396 8.48406L0.789062 8.22656V1.97656C0.789534 1.65796 0.952194 1.35152 1.24381 1.11985C1.53542 0.888182 1.93398 0.748769 2.35805 0.730097C2.78212 0.711426 3.19969 0.814906 3.52545 1.01939C3.85121 1.22388 4.06056 1.51394 4.11073 1.83031L4.1224 1.97656V8.22656C4.12241 8.66539 4.27644 9.09649 4.569 9.47653C4.86156 9.85656 5.28234 10.1721 5.78906 10.3916V1.97656C5.78953 1.65796 5.95219 1.35152 6.24381 1.11985C6.53543 0.888182 6.93398 0.748769 7.35805 0.730097C7.78212 0.711426 8.19969 0.814906 8.52545 1.01939C8.85121 1.22388 9.06056 1.51394 9.11073 1.83031L9.1224 1.97656L9.12406 10.3916C9.58917 10.1899 9.9824 9.90697 10.2703 9.56679C10.5581 9.22661 10.7321 8.83929 10.7774 8.43781L10.7891 8.22656V1.97656C10.7891 1.64504 10.9647 1.3271 11.2772 1.09268C11.5898 0.858258 12.0137 0.726563 12.4557 0.726562Z" fill="black"/>
</svg>
