<svg width="24" height="23" viewBox="0 0 24 23" fill="none" xmlns="http://www.w3.org/2000/svg">
<path d="M19.5189 0.483834C20.0475 0.203218 20.7129 0.382988 21.0046 0.891604L21.2233 1.27307C22.1029 2.79453 22.1257 4.59223 21.3783 6.09615C22.5951 7.35015 23.3334 9.02946 23.3334 10.8754C23.3334 11.6865 23.1921 12.467 22.9278 13.1905C22.6498 13.949 21.6289 13.9052 21.2507 13.1861L20.7175 12.1601C20.5306 11.8049 20.1524 11.5769 19.7377 11.5769H16.4063C15.8001 11.5769 15.3125 11.1078 15.3125 10.5246V7.01692C15.3125 6.43377 14.8249 5.96461 14.2188 5.96461H13.4395C12.4688 5.96461 12.0723 4.91669 12.9473 4.52207C13.8861 4.09676 14.9343 3.85999 16.0417 3.85999C17.3314 3.85999 18.5391 4.18007 19.5873 4.74569C19.8379 3.94769 19.7559 3.06199 19.3138 2.29907L19.0951 1.91761C18.8034 1.40899 18.9903 0.768835 19.5189 0.488219V0.483834ZM7.80209 15.5012L12.0313 7.36769H13.8542V10.8754C13.8542 12.0373 14.834 12.98 16.0417 12.98H19.5143L20.6035 15.0759C16.9668 19.8156 11.1335 22.8016 4.70313 22.8016H2.02344C0.906902 22.8016 0 21.929 0 20.8548C0 19.9428 0.660808 19.1536 1.58594 18.9562L3.85547 18.4696C5.56902 18.1012 7.02279 17.0139 7.80665 15.5012H7.80209Z" fill="black"/>
</svg>
