<svg width="12" height="15" viewBox="0 0 12 15" fill="none" xmlns="http://www.w3.org/2000/svg">
<path d="M5.65108 6.01187H6.7065L6.45008 7.13529H5.37625L5.65108 6.01187ZM0 2.13021C0 1.66055 0.186569 1.21014 0.518665 0.87804C0.850761 0.545944 1.30118 0.359375 1.77083 0.359375H9.91667C10.1492 0.359375 10.3795 0.405179 10.5943 0.494172C10.8092 0.583164 11.0044 0.713603 11.1688 0.87804C11.3333 1.04248 11.4637 1.23769 11.5527 1.45254C11.6417 1.66739 11.6875 1.89766 11.6875 2.13021V12.224C11.6875 12.3649 11.6315 12.5 11.5319 12.5996C11.4323 12.6992 11.2971 12.7552 11.1562 12.7552H1.0625C1.0625 12.9431 1.13713 13.1232 1.26997 13.2561C1.4028 13.3889 1.58297 13.4635 1.77083 13.4635H11.1562C11.2971 13.4635 11.4323 13.5195 11.5319 13.6191C11.6315 13.7188 11.6875 13.8539 11.6875 13.9948C11.6875 14.1357 11.6315 14.2708 11.5319 14.3704C11.4323 14.4701 11.2971 14.526 11.1562 14.526H1.77083C1.30118 14.526 0.850761 14.3395 0.518665 14.0074C0.186569 13.6753 0 13.2249 0 12.7552V2.13021ZM4.97533 4.30479L4.81737 4.94937H4.05875L3.9865 4.95433C3.85932 4.97179 3.74276 5.03472 3.65838 5.13147C3.574 5.22822 3.5275 5.35225 3.5275 5.48062L3.53246 5.55287C3.54992 5.68006 3.61284 5.79662 3.70959 5.881C3.80634 5.96538 3.93037 6.01187 4.05875 6.01187H4.55671L4.28187 7.13529L3.71804 7.136L3.64579 7.14096C3.51861 7.15842 3.40205 7.22134 3.31767 7.31809C3.23329 7.41484 3.1868 7.53887 3.18679 7.66725L3.19175 7.7395C3.20921 7.86668 3.27213 7.98324 3.36888 8.06762C3.46563 8.152 3.58966 8.19849 3.71804 8.1985H4.02192L3.93479 8.55692L3.92204 8.62775C3.9086 8.75558 3.94197 8.88395 4.01595 8.98906C4.08993 9.09416 4.19951 9.16889 4.32437 9.19937L4.39521 9.21212C4.52304 9.22556 4.6514 9.1922 4.75651 9.11822C4.86162 9.04424 4.93635 8.93466 4.96683 8.80979L5.11558 8.19779H6.20571L6.12212 8.56471L6.11079 8.63554C6.09916 8.76362 6.13439 8.89158 6.20995 8.99566C6.2855 9.09974 6.39624 9.17287 6.52162 9.2015L6.59246 9.21283C6.72054 9.22446 6.84849 9.18923 6.95257 9.11368C7.05665 9.03813 7.12979 8.92738 7.15842 8.802L7.29583 8.19779L7.96167 8.1985L8.03392 8.19354C8.16123 8.17624 8.27796 8.11338 8.36248 8.01662C8.447 7.91985 8.4936 7.79573 8.49362 7.66725L8.48867 7.595C8.47121 7.46782 8.40828 7.35126 8.31153 7.26688C8.21478 7.1825 8.09075 7.13601 7.96237 7.136H7.5395L7.79662 6.01187H8.30662L8.37888 6.00692C8.50606 5.98946 8.62262 5.92653 8.707 5.82978C8.79138 5.73303 8.83787 5.609 8.83787 5.48062L8.83292 5.40908C8.81561 5.28177 8.75276 5.16504 8.65599 5.08052C8.55923 4.99599 8.43511 4.9494 8.30662 4.94937H8.04029L8.13237 4.54987L8.14371 4.47904C8.15516 4.35107 8.11984 4.22329 8.04431 4.11936C7.96877 4.01544 7.85813 3.9424 7.73287 3.91379L7.66204 3.90246C7.53407 3.89101 7.40629 3.92632 7.30236 4.00186C7.19844 4.0774 7.1254 4.18804 7.09679 4.31329L6.95017 4.94937H5.91033L6.00667 4.55767L6.01942 4.48683C6.03413 4.3525 5.99711 4.21762 5.91588 4.10963C5.83465 4.00163 5.71531 3.92866 5.58217 3.90555C5.44903 3.88244 5.31209 3.91094 5.19922 3.98524C5.08635 4.05954 5.00603 4.17407 4.97462 4.3055" fill="#5E5E5E"/>
</svg>
