<svg width="19" height="17" viewBox="0 0 19 17" fill="none" xmlns="http://www.w3.org/2000/svg">
<path d="M15.9051 5.4453C15.9051 5.61935 15.83 5.78626 15.6962 5.90933C15.5624 6.0324 15.381 6.10154 15.1918 6.10154C15.0026 6.10154 14.8212 6.0324 14.6874 5.90933C14.5537 5.78626 14.4785 5.61935 14.4785 5.4453C14.4785 5.27126 14.5537 5.10434 14.6874 4.98127C14.8212 4.8582 15.0026 4.78906 15.1918 4.78906C15.381 4.78906 15.5624 4.8582 15.6962 4.98127C15.83 5.10434 15.9051 5.27126 15.9051 5.4453Z" fill="black"/>
<path d="M15.9051 5.44525C15.9051 5.61929 15.83 5.78621 15.6962 5.90928C15.5624 6.03234 15.381 6.10148 15.1918 6.10148C15.0026 6.10148 14.8212 6.03234 14.6874 5.90928C14.5537 5.78621 14.4785 5.61929 14.4785 5.44525C14.4785 5.2712 14.5537 5.10428 14.6874 4.98122C14.8212 4.85815 15.0026 4.78901 15.1918 4.78901C15.381 4.78901 15.5624 4.85815 15.6962 4.98122C15.83 5.10428 15.9051 5.2712 15.9051 5.44525ZM15.9051 5.44525V2.16405C15.9051 2.04802 15.9552 1.93675 16.0444 1.8547C16.1336 1.77266 16.2545 1.72656 16.3807 1.72656H17.6487" stroke="black" stroke-width="2" stroke-linecap="round"/>
<path d="M12.0929 11.9322C11.6725 11.9322 11.2693 11.7786 10.9721 11.5051C10.6748 11.2316 10.5078 10.8607 10.5078 10.4739C10.5078 10.0872 10.6748 9.71624 10.9721 9.44275C11.2693 9.16927 11.6725 9.01562 12.0929 9.01562C12.5133 9.01562 12.9165 9.16927 13.2138 9.44275C13.511 9.71624 13.678 10.0872 13.678 10.4739C13.678 10.8607 13.511 11.2316 13.2138 11.5051C12.9165 11.7786 12.5133 11.9322 12.0929 11.9322Z" stroke="black" stroke-width="2" stroke-linecap="round" stroke-linejoin="round"/>
<path d="M16.8115 9.0207C16.4145 12.7051 13.035 15.5831 8.92558 15.5831C4.54828 15.5831 1 12.3187 1 8.29154C1 4.26443 4.54828 1.00001 8.92558 1.00001C10.0165 0.99872 11.0959 1.20528 12.0958 1.60666" stroke="black" stroke-width="2" stroke-linecap="round" stroke-linejoin="round"/>
<path d="M6.15604 6.10415C6.05094 6.10415 5.95015 6.06574 5.87583 5.99737C5.80152 5.929 5.75977 5.83627 5.75977 5.73958C5.75977 5.64288 5.80152 5.55015 5.87583 5.48178C5.95015 5.41341 6.05094 5.375 6.15604 5.375C6.26114 5.375 6.36194 5.41341 6.43626 5.48178C6.51057 5.55015 6.55232 5.64288 6.55232 5.73958C6.55232 5.83627 6.51057 5.929 6.43626 5.99737C6.36194 6.06574 6.26114 6.10415 6.15604 6.10415ZM11.704 6.10415C11.5989 6.10415 11.4981 6.06574 11.4237 5.99737C11.3494 5.929 11.3077 5.83627 11.3077 5.73958C11.3077 5.64288 11.3494 5.55015 11.4237 5.48178C11.4981 5.41341 11.5989 5.375 11.704 5.375C11.8091 5.375 11.9098 5.41341 11.9842 5.48178C12.0585 5.55015 12.1002 5.64288 12.1002 5.73958C12.1002 5.83627 12.0585 5.929 11.9842 5.99737C11.9098 6.06574 11.8091 6.10415 11.704 6.10415Z" fill="black" stroke="black" stroke-width="2" stroke-linecap="round" stroke-linejoin="round"/>
</svg>
