<svg width="16" height="16" viewBox="0 0 16 16" fill="none" xmlns="http://www.w3.org/2000/svg">
<path d="M3.65775 0V0.531513H4.40943V0H3.65775ZM11.1745 0V0.531513H11.9262V0H11.1745ZM3.49071 1.1294V3.18908H12.0932V1.1294H3.49071ZM3.32826 3.78697C2.21883 3.96353 1.10939 4.13996 0 4.31655L0.147454 4.90281L0.734556 4.8094V7.47434H1.48623V4.68981L3.65775 4.34432V5.84665H4.40943V3.78697H3.32826ZM11.1745 3.78697V5.84665H11.9262V4.34432L14.0977 4.68981V7.47434H14.8494V4.8094L15.4365 4.90281L15.5839 4.31655C14.4746 4.13999 13.3651 3.96349 12.2557 3.78697H11.1745ZM3.90831 6.44453L2.23775 7.44119H13.3462L11.6756 6.44453H3.90831ZM0.991964 8.03907L5.93479 10.7914C4.37435 11.7019 2.81366 12.612 1.2533 13.5225L1.69771 14.0047L2.48041 13.5481L2.146 14.2398L0.587019 15.1078L1.01806 15.5977L7.79198 11.8256C10.0499 13.083 12.308 14.3402 14.5658 15.5977L14.9969 15.1078L13.438 14.2398L13.1035 13.5481L13.8862 14.0047L14.3307 13.5225C12.7702 12.6121 11.2096 11.7018 9.64916 10.7914L14.592 8.03907H13.2814L9.00911 10.4181L8.42752 10.0788L11.924 8.03911H10.6529L7.79198 9.70802L4.93101 8.03907H3.65996L7.15643 10.0788L6.57484 10.4181L2.30251 8.03904L0.991964 8.03907ZM7.79198 10.4495L8.35883 10.7802L7.79198 11.0959L7.22513 10.7802L7.79198 10.4495ZM6.58512 11.1535L7.13672 11.4607L3.24783 13.6262L3.60196 12.8938L6.58512 11.1535ZM8.99884 11.1535L11.982 12.8938L12.3361 13.6262L8.44723 11.4608L8.99884 11.1535Z" fill="black"/>
</svg>
