<svg width="16" height="15" viewBox="0 0 16 15" fill="none" xmlns="http://www.w3.org/2000/svg">
<path d="M14.6862 0C14.963 2.51861e-05 15.23 0.0701209 15.4368 0.196992C15.6436 0.323863 15.7757 0.498685 15.8081 0.688299L15.816 0.779501V13.2515C15.8156 13.4502 15.7054 13.6413 15.5077 13.7858C15.3101 13.9302 15.0399 14.0172 14.7525 14.0288C14.465 14.0405 14.182 13.9759 13.9612 13.8484C13.7404 13.7209 13.5985 13.54 13.5644 13.3427L13.5565 13.2515V9.35401H12.4268C12.1501 9.35398 11.8831 9.28389 11.6763 9.15702C11.4695 9.03015 11.3374 8.85532 11.305 8.66571L11.2971 8.57451V3.8975C11.2971 2.17481 12.9917 0 14.6862 0ZM7.90798 0C8.18468 2.51861e-05 8.45175 0.0701209 8.65853 0.196992C8.86531 0.323863 8.99741 0.498685 9.02978 0.688299L9.03769 0.779501V4.67701C9.03756 5.36832 8.70463 6.04002 8.09119 6.58661C7.47775 7.1332 6.61855 7.5237 5.64856 7.69679V13.2515C5.64824 13.4502 5.53798 13.6413 5.34032 13.7858C5.14265 13.9302 4.8725 14.0172 4.58505 14.0288C4.29761 14.0405 4.01457 13.9759 3.79376 13.8484C3.57295 13.7209 3.43105 13.54 3.39704 13.3427L3.38913 13.2515V7.69679C2.45763 7.53063 1.62725 7.16376 1.01873 6.64954C0.410222 6.13532 0.0553222 5.50056 0.00564869 4.83758L0 4.67701V0.779501C0.000319378 0.580822 0.110575 0.389725 0.30824 0.245256C0.505904 0.100786 0.776059 0.0138478 1.0635 0.00220434C1.35095 -0.00943916 1.63399 0.0550909 1.8548 0.18261C2.0756 0.310128 2.21751 0.491011 2.25151 0.688299L2.25942 0.779501V4.67701C2.25943 4.95066 2.36384 5.21949 2.56214 5.45648C2.76045 5.69347 3.04567 5.89027 3.38913 6.0271V0.779501C3.38945 0.580822 3.49971 0.389725 3.69737 0.245256C3.89504 0.100786 4.16519 0.0138478 4.45264 0.00220434C4.74008 -0.00943916 5.02313 0.0550909 5.24393 0.18261C5.46474 0.310128 5.60664 0.491011 5.64065 0.688299L5.64856 0.779501L5.64969 6.0271C5.96495 5.90136 6.23149 5.72491 6.42662 5.51277C6.62175 5.30064 6.73967 5.0591 6.77036 4.80874L6.77827 4.67701V0.779501C6.77827 0.572764 6.89729 0.374495 7.10915 0.22831C7.32102 0.0821257 7.60836 0 7.90798 0Z" fill="black"/>
</svg>
