<svg width="17" height="13" viewBox="0 0 17 13" fill="none" xmlns="http://www.w3.org/2000/svg">
<path d="M1.67311 0L3.34621 3.07852H5.85587L4.18277 0H5.85587L7.52898 3.07852H10.0386L8.36553 0H10.0386L11.7117 3.07852H14.2214L12.5483 0H15.058C15.5181 0 15.9121 0.150847 16.24 0.452542C16.5679 0.754236 16.7316 1.11647 16.7311 1.53926V10.7748C16.7311 11.1981 16.5674 11.5606 16.24 11.8623C15.9126 12.164 15.5186 12.3146 15.058 12.3141H1.67311C1.213 12.3141 0.819265 12.1635 0.491893 11.8623C0.164522 11.5611 0.000557702 11.1986 0 10.7748V1.53926C0 1.11596 0.163964 0.753723 0.491893 0.452542C0.819822 0.15136 1.21356 0.000513086 1.67311 0Z" fill="black"/>
</svg>
