<svg width="18" height="16" viewBox="0 0 18 16" fill="none" xmlns="http://www.w3.org/2000/svg">
<path d="M14.4727 0.0902295C14.8647 -0.101193 15.358 0.0214369 15.5743 0.368391L15.7365 0.628607C16.3886 1.66648 16.4055 2.89278 15.8514 3.91869C16.7536 4.77411 17.301 5.91966 17.301 7.17886C17.301 7.73219 17.1963 8.26459 17.0003 8.7581C16.7941 9.27554 16.0372 9.24563 15.7568 8.75511L15.3614 8.05522C15.2229 7.81295 14.9424 7.65742 14.6349 7.65742H12.1648C11.7153 7.65742 11.3538 7.33738 11.3538 6.93958V4.5468C11.3538 4.14899 10.9922 3.82896 10.5428 3.82896H9.96497C9.24522 3.82896 8.95124 3.11411 9.60003 2.84493C10.2961 2.5548 11.0733 2.39329 11.8944 2.39329C12.8507 2.39329 13.7462 2.61163 14.5234 2.99747C14.7092 2.45311 14.6484 1.84893 14.3206 1.3285L14.1584 1.06828C13.9422 0.721327 14.0807 0.284643 14.4727 0.0932205V0.0902295ZM5.78502 10.3343L8.92083 4.78607H10.2725V7.17886C10.2725 7.97147 10.999 8.61453 11.8944 8.61453H14.4693L15.2769 10.0442C12.5804 13.2775 8.25515 15.3143 3.48723 15.3143H1.50032C0.672441 15.3143 0 14.7191 0 13.9863C0 13.3642 0.48997 12.8258 1.17593 12.6912L2.85872 12.3592C4.12926 12.108 5.2072 11.3662 5.7884 10.3343H5.78502Z" fill="black"/>
</svg>
