<svg width="17" height="14" viewBox="0 0 17 14" fill="none" xmlns="http://www.w3.org/2000/svg">
<path d="M3.10938 6.29993L7.99554 0L12.8817 6.29993H3.10938ZM12.8817 13.9998C11.7712 13.9998 10.8274 13.6937 10.0504 13.0814C9.27335 12.4692 8.88453 11.7253 8.88394 10.8499C8.88394 9.97488 9.27276 9.23126 10.0504 8.619C10.828 8.00674 11.7718 7.70038 12.8817 7.69991C13.9922 7.69991 14.9363 8.00627 15.7139 8.619C16.4915 9.23172 16.8801 9.97535 16.8795 10.8499C16.8795 11.7249 16.491 12.4687 15.7139 13.0814C14.9369 13.6942 13.9928 14.0003 12.8817 13.9998ZM0 13.6498V8.04991H7.10715V13.6498H0ZM12.8817 12.5999C13.5036 12.5999 14.0292 12.4307 14.4586 12.0924C14.888 11.754 15.1027 11.3399 15.1027 10.8499C15.1027 10.3599 14.888 9.94572 14.4586 9.60739C14.0292 9.26906 13.5036 9.09989 12.8817 9.09989C12.2598 9.09989 11.7342 9.26906 11.3048 9.60739C10.8754 9.94572 10.6607 10.3599 10.6607 10.8499C10.6607 11.3399 10.8754 11.754 11.3048 12.0924C11.7342 12.4307 12.2598 12.5999 12.8817 12.5999ZM1.77679 12.2499H5.33036V9.44989H1.77679V12.2499ZM6.26317 4.89994H9.72791L7.99554 2.69497L6.26317 4.89994Z" fill="black"/>
</svg>
