<svg width="19" height="20" viewBox="0 0 19 20" fill="none" xmlns="http://www.w3.org/2000/svg">
<mask id="path-1-inside-1_107_1352" fill="white">
<path d="M14.9326 9.60655C15.0436 9.72196 15.1056 9.87592 15.1056 10.0361C15.1056 10.1963 15.0436 10.3503 14.9326 10.4657L11.7692 13.7565C11.3824 14.1585 10.7042 13.8848 10.7042 13.3273V11.4301C10.7042 11.389 10.6879 11.3496 10.6589 11.3206C10.6299 11.2915 10.5905 11.2752 10.5495 11.2752H4.51603C4.35191 11.2752 4.19452 11.21 4.07846 11.0938C3.96241 10.9776 3.89722 10.8201 3.89722 10.6558V9.41701C3.89722 9.25274 3.96241 9.09519 4.07846 8.97903C4.19452 8.86287 4.35191 8.79761 4.51603 8.79761H10.5495C10.5905 8.79761 10.6299 8.7813 10.6589 8.75226C10.6879 8.72322 10.7042 8.68383 10.7042 8.64276V6.74554C10.7042 6.18807 11.3824 5.9143 11.7686 6.31629L14.9326 9.60655Z"/>
</mask>
<path d="M14.9326 9.60655C15.0436 9.72196 15.1056 9.87592 15.1056 10.0361C15.1056 10.1963 15.0436 10.3503 14.9326 10.4657L11.7692 13.7565C11.3824 14.1585 10.7042 13.8848 10.7042 13.3273V11.4301C10.7042 11.389 10.6879 11.3496 10.6589 11.3206C10.6299 11.2915 10.5905 11.2752 10.5495 11.2752H4.51603C4.35191 11.2752 4.19452 11.21 4.07846 11.0938C3.96241 10.9776 3.89722 10.8201 3.89722 10.6558V9.41701C3.89722 9.25274 3.96241 9.09519 4.07846 8.97903C4.19452 8.86287 4.35191 8.79761 4.51603 8.79761H10.5495C10.5905 8.79761 10.6299 8.7813 10.6589 8.75226C10.6879 8.72322 10.7042 8.68383 10.7042 8.64276V6.74554C10.7042 6.18807 11.3824 5.9143 11.7686 6.31629L14.9326 9.60655Z" fill="#535353"/>
<path d="M14.9326 9.60655L11.3286 13.0723L11.3287 13.0724L14.9326 9.60655ZM14.9326 10.4657L11.3287 6.99985L11.3279 7.00063L14.9326 10.4657ZM11.7692 13.7565L15.3723 17.2232L15.3739 17.2216L11.7692 13.7565ZM11.7686 6.31629L8.16267 9.78003L8.16458 9.78201L11.7686 6.31629ZM11.3287 13.0724C10.5435 12.2558 10.1056 11.1675 10.1056 10.0361H20.1056C20.1056 8.58431 19.5437 7.18808 18.5365 6.14075L11.3287 13.0724ZM10.1056 10.0361C10.1056 8.90468 10.5435 7.81637 11.3287 6.99985L18.5365 13.9315C19.5437 12.8841 20.1056 11.4879 20.1056 10.0361H10.1056ZM11.3279 7.00063L8.16453 10.2915L15.3739 17.2216L18.5373 13.9307L11.3279 7.00063ZM8.16607 10.2899C10.9037 7.44444 15.7042 9.38877 15.7042 13.3273H5.70421C5.70421 18.3807 11.8611 20.8726 15.3723 17.2232L8.16607 10.2899ZM15.7042 13.3273V11.4301H5.70421V13.3273H15.7042ZM15.7042 11.4301C15.7042 10.0644 15.1623 8.7538 14.1961 7.7867L7.1217 14.8544C6.21354 13.9454 5.70421 12.7135 5.70421 11.4301H15.7042ZM14.1961 7.7867C13.2298 6.81945 11.9181 6.27522 10.5495 6.27522V16.2752C9.26295 16.2752 8.03002 15.7636 7.1217 14.8544L14.1961 7.7867ZM10.5495 6.27522H4.51603V16.2752H10.5495V6.27522ZM4.51603 6.27522C5.67953 6.27522 6.79441 6.7379 7.61566 7.55993L0.541265 14.6277C1.59462 15.682 3.02429 16.2752 4.51603 16.2752V6.27522ZM7.61566 7.55993C8.43677 8.38181 8.89722 9.49552 8.89722 10.6558H-1.10278C-1.10278 12.1447 -0.51194 13.5735 0.541265 14.6277L7.61566 7.55993ZM8.89722 10.6558V9.41701H-1.10278V10.6558H8.89722ZM8.89722 9.41701C8.89722 10.5773 8.43677 11.691 7.61566 12.5129L0.541265 5.44516C-0.511943 6.49936 -1.10278 7.92817 -1.10278 9.41701H8.89722ZM7.61566 12.5129C6.7944 13.3349 5.67952 13.7976 4.51603 13.7976V3.79761C3.02431 3.79761 1.59463 4.3908 0.541265 5.44516L7.61566 12.5129ZM4.51603 13.7976H10.5495V3.79761H4.51603V13.7976ZM10.5495 13.7976C11.9181 13.7976 13.2298 13.2534 14.1961 12.2861L7.1217 5.21839C8.03002 4.30922 9.26295 3.79761 10.5495 3.79761V13.7976ZM14.1961 12.2861C15.1623 11.319 15.7042 10.0084 15.7042 8.64276H5.70421C5.70421 7.35928 6.21354 6.1274 7.1217 5.21839L14.1961 12.2861ZM15.7042 8.64276V6.74554H5.70421V8.64276H15.7042ZM15.7042 6.74554C15.7042 10.6766 10.9062 12.6362 8.16267 9.78003L15.3745 2.85256C11.8587 -0.807555 5.70421 1.69951 5.70421 6.74554H15.7042ZM8.16458 9.78201L11.3286 13.0723L18.5366 6.14083L15.3726 2.85057L8.16458 9.78201Z" fill="#535353" mask="url(#path-1-inside-1_107_1352)"/>
<mask id="path-3-inside-2_107_1352" fill="white">
<path d="M3.27866 0.550781C2.87234 0.550781 2.46999 0.630888 2.0946 0.786527C1.71921 0.942166 1.37812 1.17029 1.09081 1.45787C0.510554 2.03867 0.18457 2.82641 0.18457 3.64779V16.0358C0.18457 16.8572 0.510554 17.6449 1.09081 18.2257C1.37812 18.5133 1.71921 18.7414 2.0946 18.8971C2.46999 19.0527 2.87234 19.1328 3.27866 19.1328H15.655C16.4756 19.1328 17.2626 18.8065 17.8429 18.2257C18.4231 17.6449 18.7491 16.8572 18.7491 16.0358V3.64779C18.7491 3.24108 18.6691 2.83836 18.5136 2.46261C18.3581 2.08687 18.1302 1.74546 17.8429 1.45787C17.5555 1.17029 17.2145 0.942166 16.8391 0.786527C16.4637 0.630888 16.0613 0.550781 15.655 0.550781H3.27866ZM1.42221 3.64779C1.42221 3.15496 1.6178 2.68232 1.96595 2.33384C2.3141 1.98536 2.7863 1.78958 3.27866 1.78958H15.655C16.1474 1.78958 16.6196 1.98536 16.9677 2.33384C17.3159 2.68232 17.5115 3.15496 17.5115 3.64779V16.0358C17.5115 16.5286 17.3159 17.0013 16.9677 17.3498C16.6196 17.6982 16.1474 17.894 15.655 17.894H3.27866C2.7863 17.894 2.3141 17.6982 1.96595 17.3498C1.6178 17.0013 1.42221 16.5286 1.42221 16.0358V3.64779Z"/>
</mask>
<path d="M3.27866 0.550781C2.87234 0.550781 2.46999 0.630888 2.0946 0.786527C1.71921 0.942166 1.37812 1.17029 1.09081 1.45787C0.510554 2.03867 0.18457 2.82641 0.18457 3.64779V16.0358C0.18457 16.8572 0.510554 17.6449 1.09081 18.2257C1.37812 18.5133 1.71921 18.7414 2.0946 18.8971C2.46999 19.0527 2.87234 19.1328 3.27866 19.1328H15.655C16.4756 19.1328 17.2626 18.8065 17.8429 18.2257C18.4231 17.6449 18.7491 16.8572 18.7491 16.0358V3.64779C18.7491 3.24108 18.6691 2.83836 18.5136 2.46261C18.3581 2.08687 18.1302 1.74546 17.8429 1.45787C17.5555 1.17029 17.2145 0.942166 16.8391 0.786527C16.4637 0.630888 16.0613 0.550781 15.655 0.550781H3.27866ZM1.42221 3.64779C1.42221 3.15496 1.6178 2.68232 1.96595 2.33384C2.3141 1.98536 2.7863 1.78958 3.27866 1.78958H15.655C16.1474 1.78958 16.6196 1.98536 16.9677 2.33384C17.3159 2.68232 17.5115 3.15496 17.5115 3.64779V16.0358C17.5115 16.5286 17.3159 17.0013 16.9677 17.3498C16.6196 17.6982 16.1474 17.894 15.655 17.894H3.27866C2.7863 17.894 2.3141 17.6982 1.96595 17.3498C1.6178 17.0013 1.42221 16.5286 1.42221 16.0358V3.64779Z" fill="#535353"/>
<path d="M3.27866 0.550781V5.55078V0.550781ZM0.18457 3.64779H-4.81543H0.18457ZM1.09081 18.2257L-2.44639 21.7596L1.09081 18.2257ZM15.655 0.550781V-4.44922V0.550781ZM1.42221 3.64779H-3.57779H1.42221ZM3.27866 1.78958V-3.21042V1.78958ZM17.5115 3.64779H22.5115H17.5115ZM17.5115 16.0358H22.5115H17.5115ZM15.655 17.894V22.894V17.894ZM3.27866 17.894V22.894V17.894ZM1.42221 16.0358H-3.57779H1.42221ZM3.27866 -4.44922C2.21507 -4.44922 1.16201 -4.23953 0.179645 -3.83223L4.00956 5.40529C3.77797 5.5013 3.5296 5.55078 3.27866 5.55078V-4.44922ZM0.179645 -3.83223C-0.802714 -3.42494 -1.695 -2.82809 -2.44639 -2.07599L4.62801 4.99174C4.45124 5.16867 4.24113 5.30927 4.00956 5.40529L0.179645 -3.83223ZM-2.44639 -2.07599C-3.96381 -0.55715 -4.81543 1.50185 -4.81543 3.64779H5.18457C5.18457 4.15097 4.98491 4.6345 4.62801 4.99174L-2.44639 -2.07599ZM-4.81543 3.64779V16.0358H5.18457V3.64779H-4.81543ZM-4.81543 16.0358C-4.81543 18.1817 -3.96381 20.2407 -2.44639 21.7596L4.62801 14.6919C4.98491 15.0491 5.18457 15.5326 5.18457 16.0358H-4.81543ZM-2.44639 21.7596C-1.695 22.5117 -0.802716 23.1085 0.179645 23.5158L4.00956 14.2783C4.24114 14.3743 4.45124 14.5149 4.62801 14.6919L-2.44639 21.7596ZM0.179645 23.5158C1.16202 23.9231 2.21508 24.1328 3.27866 24.1328V14.1328C3.5296 14.1328 3.77797 14.1823 4.00956 14.2783L0.179645 23.5158ZM3.27866 24.1328H15.655V14.1328H3.27866V24.1328ZM15.655 24.1328C17.8032 24.1328 19.8625 23.2786 21.3801 21.7596L14.3057 14.6919C14.6627 14.3345 15.148 14.1328 15.655 14.1328V24.1328ZM21.3801 21.7596C22.8975 20.2407 23.7491 18.1817 23.7491 16.0358H13.7491C13.7491 15.5326 13.9488 15.0491 14.3057 14.6919L21.3801 21.7596ZM23.7491 16.0358V3.64779H13.7491V16.0358H23.7491ZM23.7491 3.64779C23.7491 2.58513 23.54 1.53276 23.1336 0.550735L13.8935 4.37449C13.7981 4.14396 13.7491 3.89704 13.7491 3.64779H23.7491ZM23.1336 0.550735C22.7272 -0.431302 22.1314 -1.32391 21.3801 -2.07599L14.3057 4.99174C14.1289 4.81482 13.9889 4.60504 13.8935 4.37449L23.1336 0.550735ZM21.3801 -2.07599C20.6287 -2.82809 19.7364 -3.42494 18.754 -3.83223L14.9241 5.40529C14.6925 5.30927 14.4824 5.16867 14.3057 4.99174L21.3801 -2.07599ZM18.754 -3.83223C17.7717 -4.23953 16.7186 -4.44922 15.655 -4.44922V5.55078C15.4041 5.55078 15.1557 5.5013 14.9241 5.40529L18.754 -3.83223ZM15.655 -4.44922H3.27866V5.55078H15.655V-4.44922ZM6.42221 3.64779C6.42221 4.47952 6.09215 5.27814 5.50315 5.86771L-1.57125 -1.20003C-2.85656 0.0864948 -3.57779 1.8304 -3.57779 3.64779H6.42221ZM5.50315 5.86771C4.91398 6.45743 4.1139 6.78958 3.27866 6.78958V-3.21042C1.45869 -3.21042 -0.285781 -2.48671 -1.57125 -1.20003L5.50315 5.86771ZM3.27866 6.78958H15.655V-3.21042H3.27866V6.78958ZM15.655 6.78958C14.8198 6.78958 14.0197 6.45743 13.4305 5.86771L20.5049 -1.20003C19.2194 -2.48671 17.475 -3.21042 15.655 -3.21042V6.78958ZM13.4305 5.86771C12.8415 5.27814 12.5115 4.47952 12.5115 3.64779H22.5115C22.5115 1.8304 21.7902 0.0864963 20.5049 -1.20003L13.4305 5.86771ZM12.5115 3.64779V16.0358H22.5115V3.64779H12.5115ZM12.5115 16.0358C12.5115 15.2041 12.8415 14.4055 13.4305 13.8159L20.5049 20.8836C21.7902 19.5971 22.5115 17.8532 22.5115 16.0358H12.5115ZM13.4305 13.8159C14.0197 13.2262 14.8198 12.894 15.655 12.894V22.894C17.475 22.894 19.2194 22.1703 20.5049 20.8836L13.4305 13.8159ZM15.655 12.894H3.27866V22.894H15.655V12.894ZM3.27866 12.894C4.1139 12.894 4.91398 13.2262 5.50315 13.8159L-1.57125 20.8836C-0.28578 22.1703 1.45869 22.894 3.27866 22.894V12.894ZM5.50315 13.8159C6.09215 14.4055 6.42221 15.2041 6.42221 16.0358H-3.57779C-3.57779 17.8532 -2.85656 19.5971 -1.57125 20.8836L5.50315 13.8159ZM6.42221 16.0358V3.64779H-3.57779V16.0358H6.42221Z" fill="#535353" mask="url(#path-3-inside-2_107_1352)"/>
</svg>
