<svg width="24" height="27" viewBox="0 0 24 27" fill="none" xmlns="http://www.w3.org/2000/svg">
<path d="M14.7316 9.05625L9.83785 1.0125C9.5191 0.46875 8.94723 0.140625 8.3191 0.140625H2.14098C0.781603 0.140625 -0.0715219 1.60313 0.594103 2.78438C1.83126 4.97318 3.57737 6.83183 5.68473 8.20313C6.39723 8.75625 7.27848 9.05625 8.18785 9.05625H14.7316Z" fill="#0074BA"/>
<path d="M22.1277 0.140625H15.9496C15.3215 0.140625 14.7496 0.46875 14.4309 1.0125L9.53711 9.05625H16.0902C16.9996 9.05625 17.8715 8.75625 18.5934 8.20313C20.7027 6.83438 22.4465 4.97813 23.684 2.78438C24.3402 1.60313 23.4871 0.140625 22.1277 0.140625Z" fill="#00A6ED"/>
<path d="M12.1273 26.3875C17.3258 26.3875 21.5398 22.0684 21.5398 16.7406C21.5398 11.4128 17.3258 7.09375 12.1273 7.09375C6.92891 7.09375 2.71484 11.4128 2.71484 16.7406C2.71484 22.0684 6.92891 26.3875 12.1273 26.3875Z" fill="#D3883E"/>
<path d="M12.1356 25.2317C9.92314 25.2317 7.84189 24.3505 6.28564 22.7473C4.71935 21.144 3.8471 18.9887 3.85751 16.7473C3.85751 14.4786 4.72001 12.3505 6.28564 10.7473C7.04529 9.96227 7.95506 9.338 8.96085 8.91167C9.96664 8.48533 11.0479 8.26562 12.1403 8.26562C13.2327 8.26562 14.314 8.48533 15.3198 8.91167C16.3256 9.338 17.2354 9.96227 17.995 10.7473C21.22 14.0567 21.22 19.438 17.995 22.7473C16.42 24.3505 14.3388 25.2317 12.1356 25.2317ZM12.1263 9.41608C10.2981 9.41608 8.46064 10.1286 7.07314 11.563C5.7235 12.9501 4.97272 14.8119 4.98251 16.7473C4.98251 18.7067 5.72314 20.5442 7.07314 21.9317C7.72757 22.6112 8.51244 23.1516 9.38074 23.5205C10.249 23.8894 11.1829 24.0792 12.1263 24.0786C14.0388 24.0786 15.8294 23.3192 17.1794 21.9317C19.9638 19.0723 19.9638 14.4223 17.1794 11.563C16.5255 10.8827 15.7407 10.3419 14.8723 9.97293C14.0039 9.60398 13.0698 9.41456 12.1263 9.41608Z" fill="#F3AD61"/>
<path d="M13.4509 15.3984L14.4334 13.7016C14.5132 13.5621 14.5551 13.4042 14.5551 13.2436C14.5551 13.0829 14.5132 12.9251 14.4334 12.7856C14.3536 12.6463 14.2384 12.5306 14.0994 12.4502C13.9605 12.3699 13.8027 12.3278 13.6422 12.3281H10.7434C10.5057 12.3357 10.2802 12.4355 10.1148 12.6064C9.9493 12.7772 9.85678 13.0057 9.85678 13.2436C9.85678 13.4814 9.9493 13.71 10.1148 13.8808C10.2802 14.0517 10.5057 14.1515 10.7434 14.1591H12.0587L11.3537 15.3881C11.2248 15.5473 11.154 15.7458 11.1531 15.9506C11.1531 16.4569 11.5637 16.8666 12.069 16.8666C12.6409 16.8666 13.1078 17.3334 13.1078 17.9053C13.1078 18.4772 12.6409 18.945 12.069 18.945C11.6303 18.945 11.2394 18.6684 11.0959 18.2578C11.0143 18.0309 10.8463 17.8455 10.6286 17.7419C10.4108 17.6383 10.161 17.6249 9.93342 17.7047C9.82029 17.7442 9.71611 17.8057 9.62694 17.8857C9.53776 17.9658 9.46535 18.0627 9.4139 18.1709C9.36245 18.2791 9.33299 18.3965 9.32722 18.5161C9.32145 18.6358 9.33949 18.7555 9.38029 18.8681C9.57961 19.4221 9.94453 19.9013 10.4255 20.2408C10.9065 20.5802 11.4803 20.7635 12.069 20.7656C12.8272 20.7649 13.554 20.4634 14.0901 19.9273C14.6262 19.3912 14.9277 18.6644 14.9284 17.9063C14.9272 17.3947 14.7896 16.8927 14.5299 16.4519C14.2702 16.0111 13.8978 15.6475 13.4509 15.3984Z" fill="#402A32"/>
</svg>
