<svg width="13" height="9" viewBox="0 0 13 9" fill="none" xmlns="http://www.w3.org/2000/svg">
<path fill-rule="evenodd" clip-rule="evenodd" d="M1.17767 0.46875C0.967529 0.468798 0.762118 0.535133 0.587406 0.65937C0.412694 0.783606 0.276525 0.960167 0.196113 1.16673C0.115701 1.37329 0.0946568 1.60058 0.135641 1.81987C0.176625 2.03916 0.277798 2.24059 0.426369 2.39871L5.73968 8.05178C5.93896 8.26374 6.20921 8.38281 6.49099 8.38281C6.77277 8.38281 7.04301 8.26374 7.24229 8.05178L12.5556 2.39871C12.7042 2.24059 12.8054 2.03916 12.8463 1.81987C12.8873 1.60058 12.8663 1.37329 12.7859 1.16673C12.7055 0.960167 12.5693 0.783606 12.3946 0.65937C12.2199 0.535133 12.0144 0.468798 11.8043 0.46875H1.17767Z" fill="black"/>
</svg>
