<svg width="23" height="6" viewBox="0 0 23 6" fill="none" xmlns="http://www.w3.org/2000/svg">
<path d="M1.26758 3.02344C1.26758 3.35496 1.39927 3.6729 1.63369 3.90732C1.86812 4.14174 2.18606 4.27344 2.51758 4.27344C2.8491 4.27344 3.16704 4.14174 3.40146 3.90732C3.63588 3.6729 3.76758 3.35496 3.76758 3.02344C3.76758 2.69192 3.63588 2.37397 3.40146 2.13955C3.16704 1.90513 2.8491 1.77344 2.51758 1.77344C2.18606 1.77344 1.86812 1.90513 1.63369 2.13955C1.39927 2.37397 1.26758 2.69192 1.26758 3.02344ZM10.0176 3.02344C10.0176 3.35496 10.1493 3.6729 10.3837 3.90732C10.6181 4.14174 10.9361 4.27344 11.2676 4.27344C11.5991 4.27344 11.917 4.14174 12.1515 3.90732C12.3859 3.6729 12.5176 3.35496 12.5176 3.02344C12.5176 2.69192 12.3859 2.37397 12.1515 2.13955C11.917 1.90513 11.5991 1.77344 11.2676 1.77344C10.9361 1.77344 10.6181 1.90513 10.3837 2.13955C10.1493 2.37397 10.0176 2.69192 10.0176 3.02344ZM18.7676 3.02344C18.7676 3.35496 18.8993 3.6729 19.1337 3.90732C19.3681 4.14174 19.6861 4.27344 20.0176 4.27344C20.3491 4.27344 20.667 4.14174 20.9015 3.90732C21.1359 3.6729 21.2676 3.35496 21.2676 3.02344C21.2676 2.69192 21.1359 2.37397 20.9015 2.13955C20.667 1.90513 20.3491 1.77344 20.0176 1.77344C19.6861 1.77344 19.3681 1.90513 19.1337 2.13955C18.8993 2.37397 18.7676 2.69192 18.7676 3.02344Z" stroke="#757575" stroke-width="2.5" stroke-linecap="round" stroke-linejoin="round"/>
</svg>
